<svg width="50" height="50" viewBox="0 0 50 50" fill="none" xmlns="http://www.w3.org/2000/svg">
<style>
    @media (prefers-color-scheme: dark) {
        :root {
            --color-dark: #10C2D5;
            --color-light: #6DDAD2;
        }
    }

    @media (prefers-color-scheme: light) {
        :root {
            --color-dark: #006A5F;
            --color-light: #4BBEB6;
        }
    }

    .dark-fill {
        fill: var(--color-dark);
    }

    .dark-stroke {
        stroke: var(--color-dark);
    }

    .light-fill {
        fill: var(--color-light);
    }

    .light-stroke {
        stroke: var(--color-light);
    }
</style>
<path class="light-fill" d="M10.0158 24C10.0158 23.3925 9.52329 22.9 8.91577 22.9C8.30826 22.9 7.81577 23.3925 7.81577 24H10.0158ZM4.48531 39.5957C4.03431 40.0028 3.99865 40.6983 4.40568 41.1493C4.8127 41.6003 5.50827 41.636 5.95927 41.229L4.48531 39.5957ZM7.81577 24C7.81577 25.5607 7.61565 28.9547 7.06184 32.2669C6.78505 33.9223 6.42519 35.5246 5.97098 36.8535C5.50369 38.2206 4.98707 39.1429 4.48531 39.5957L5.95927 41.229C6.8945 40.3849 7.55807 39.0122 8.05273 37.565C8.56049 36.0796 8.94438 34.3483 9.23171 32.6297C9.80615 29.1941 10.0158 25.6787 10.0158 24H7.81577Z"/>
<path class="dark-fill" d="M20.404 43.8617C20.9995 43.7415 21.3848 43.1613 21.2646 42.5658C21.1444 41.9703 20.5642 41.585 19.9687 41.7052L20.404 43.8617ZM6.27664 40.9108C6.68518 40.4612 6.65187 39.7655 6.20224 39.357C5.7526 38.9484 5.05692 38.9817 4.64838 39.4314L6.27664 40.9108ZM3.86148 39.8894C2.74543 39.8894 2.24645 39.1602 2.23596 38.4186C2.23053 38.0345 2.36205 37.6816 2.59725 37.4323C2.81875 37.1975 3.20314 36.9789 3.86147 36.9789V34.7789C2.66674 34.7789 1.6794 35.1992 0.996954 35.9226C0.328201 36.6315 0.0235505 37.5562 0.0361823 38.4497C0.0618239 40.2634 1.4159 42.0894 3.86148 42.0894V39.8894ZM3.86147 36.9789C4.42783 36.9789 5.0811 37.2585 5.93355 37.8948C6.79135 38.535 7.65076 39.3749 8.70703 40.3262C10.7245 42.1432 13.32 44.2388 16.8356 44.2388V42.0388C14.2309 42.0388 12.1923 40.5045 10.1793 38.6915C9.22036 37.8278 8.21544 36.8527 7.24946 36.1317C6.27813 35.4068 5.14816 34.7789 3.86147 34.7789V36.9789ZM16.8356 44.2388C17.7027 44.2388 18.5965 44.1427 19.2588 44.0506C19.5934 44.0041 19.8762 43.9576 20.0765 43.9224C20.1768 43.9048 20.2568 43.89 20.3125 43.8794C20.3405 43.8742 20.3623 43.8699 20.3777 43.8669C20.3854 43.8654 20.3915 43.8642 20.3959 43.8633C20.3981 43.8629 20.3999 43.8625 20.4013 43.8622C20.4019 43.8621 20.4025 43.862 20.403 43.8619C20.4032 43.8619 20.4034 43.8618 20.4036 43.8618C20.4037 43.8618 20.4038 43.8617 20.4038 43.8617C20.4039 43.8617 20.404 43.8617 20.1864 42.7834C19.9687 41.7052 19.9688 41.7052 19.9689 41.7052C19.9689 41.7051 19.969 41.7051 19.969 41.7051C19.9691 41.7051 19.9691 41.7051 19.9691 41.7051C19.9692 41.7051 19.9691 41.7051 19.9689 41.7051C19.9686 41.7052 19.9678 41.7054 19.9666 41.7056C19.9643 41.7061 19.9603 41.7069 19.9547 41.708C19.9435 41.7101 19.926 41.7135 19.9027 41.718C19.856 41.7268 19.786 41.7398 19.6964 41.7555C19.5169 41.787 19.2602 41.8293 18.9558 41.8716C18.3403 41.9572 17.5587 42.0388 16.8356 42.0388V44.2388ZM4.64838 39.4314C4.30833 39.8056 4.05093 39.8894 3.86148 39.8894V42.0894C4.86612 42.0894 5.67193 41.5764 6.27664 40.9108L4.64838 39.4314Z"/>
<path class="dark-stroke" d="M13.2586 31C13.9943 30.3279 14.9736 29.918 16.0486 29.918C18.3339 29.918 20.1865 31.7706 20.1865 34.0558C20.1865 35.5431 19.4019 36.847 18.224 37.5764" stroke-width="2.2" stroke-linecap="round"/>
<path class="light-stroke" d="M18.7716 37.1692C18.0439 37.8057 17.0913 38.1914 16.0486 38.1914C13.7633 38.1914 11.9107 36.3388 11.9107 34.0535C11.9107 32.8319 12.44 31.734 13.2819 30.9766" stroke-width="2.2" stroke-linecap="round"/>
<path class="dark-fill" d="M25.0463 23.4078C24.4388 23.4078 23.9463 23.9003 23.9463 24.5078C23.9463 25.1153 24.4388 25.6078 25.0463 25.6078V23.4078ZM36.2691 25.6078C36.8766 25.6078 37.3691 25.1153 37.3691 24.5078C37.3691 23.9003 36.8766 23.4078 36.2691 23.4078V25.6078ZM29.1064 36.268C29.0574 36.8735 29.5086 37.4041 30.1142 37.4531C30.7197 37.502 31.2503 37.0508 31.2992 36.4453L29.1064 36.268ZM30.2028 36.3566C31.2992 36.4453 31.2992 36.4453 31.2993 36.4452C31.2993 36.4452 31.2993 36.4451 31.2993 36.4451C31.2993 36.445 31.2993 36.4448 31.2993 36.4446C31.2993 36.4442 31.2994 36.4436 31.2994 36.4428C31.2996 36.4413 31.2997 36.4391 31.3 36.4362C31.3004 36.4304 31.3011 36.4218 31.302 36.4105C31.3038 36.3881 31.3064 36.3549 31.3098 36.3119C31.3166 36.2258 31.3263 36.1001 31.3383 35.9408C31.3624 35.6224 31.3956 35.1697 31.4323 34.6314C31.5057 33.5558 31.5936 32.1334 31.6504 30.7558L29.4522 30.6651C29.3966 32.0152 29.3101 33.416 29.2374 34.4816C29.2011 35.0138 29.1683 35.4611 29.1446 35.7752C29.1327 35.9322 29.1231 36.0558 29.1165 36.14C29.1132 36.182 29.1107 36.2142 29.109 36.2358C29.1081 36.2466 29.1075 36.2548 29.107 36.2602C29.1068 36.2629 29.1067 36.2649 29.1065 36.2662C29.1065 36.2668 29.1065 36.2673 29.1064 36.2676C29.1064 36.2678 29.1064 36.2679 29.1064 36.2679C29.1064 36.268 29.1064 36.268 29.1064 36.268C29.1064 36.268 29.1064 36.268 30.2028 36.3566ZM25.0463 25.6078H30.7384V23.4078H25.0463V25.6078ZM30.7384 25.6078H36.2691V23.4078H30.7384V25.6078ZM31.6504 30.7558C31.7623 28.0426 31.8523 25.4858 31.8383 24.4923L29.6385 24.5233C29.6515 25.4406 29.5654 27.9227 29.4522 30.6651L31.6504 30.7558Z"/>
<path class="dark-fill" d="M30.4557 31.2989C31.0632 31.2989 31.5557 30.8065 31.5557 30.1989C31.5557 29.5914 31.0632 29.0989 30.4557 29.0989V31.2989ZM27.2823 28.8734C26.6951 28.7175 26.0927 29.0671 25.9368 29.6543C25.7809 30.2414 26.1306 30.8438 26.7177 30.9997L27.2823 28.8734ZM29.0024 31.2989C29.0036 31.2989 29.0048 31.2989 29.006 31.2989C29.0072 31.2989 29.0083 31.2989 29.0095 31.2989C29.0107 31.2989 29.0119 31.2989 29.0131 31.2989C29.0143 31.2989 29.0155 31.2989 29.0167 31.2989C29.0179 31.2989 29.019 31.2989 29.0202 31.2989C29.0214 31.2989 29.0226 31.2989 29.0238 31.2989C29.025 31.2989 29.0262 31.2989 29.0274 31.2989C29.0286 31.2989 29.0298 31.2989 29.031 31.2989C29.0322 31.2989 29.0334 31.2989 29.0346 31.2989C29.0358 31.2989 29.037 31.2989 29.0382 31.2989C29.0394 31.2989 29.0406 31.2989 29.0418 31.2989C29.043 31.2989 29.0442 31.2989 29.0454 31.2989C29.0466 31.2989 29.0478 31.2989 29.049 31.2989C29.0502 31.2989 29.0514 31.2989 29.0526 31.2989C29.0538 31.2989 29.055 31.2989 29.0562 31.2989C29.0575 31.2989 29.0587 31.2989 29.0599 31.2989C29.0611 31.2989 29.0623 31.2989 29.0635 31.2989C29.0647 31.2989 29.0659 31.2989 29.0671 31.2989C29.0684 31.2989 29.0696 31.2989 29.0708 31.2989C29.072 31.2989 29.0732 31.2989 29.0744 31.2989C29.0757 31.2989 29.0769 31.2989 29.0781 31.2989C29.0793 31.2989 29.0805 31.2989 29.0817 31.2989C29.083 31.2989 29.0842 31.2989 29.0854 31.2989C29.0866 31.2989 29.0878 31.2989 29.0891 31.2989C29.0903 31.2989 29.0915 31.2989 29.0927 31.2989C29.094 31.2989 29.0952 31.2989 29.0964 31.2989C29.0976 31.2989 29.0989 31.2989 29.1001 31.2989C29.1013 31.2989 29.1025 31.2989 29.1038 31.2989C29.105 31.2989 29.1062 31.2989 29.1075 31.2989C29.1087 31.2989 29.1099 31.2989 29.1111 31.2989C29.1124 31.2989 29.1136 31.2989 29.1148 31.2989C29.1161 31.2989 29.1173 31.2989 29.1185 31.2989C29.1198 31.2989 29.121 31.2989 29.1222 31.2989C29.1235 31.2989 29.1247 31.2989 29.1259 31.2989C29.1272 31.2989 29.1284 31.2989 29.1297 31.2989C29.1309 31.2989 29.1321 31.2989 29.1334 31.2989C29.1346 31.2989 29.1359 31.2989 29.1371 31.2989C29.1383 31.2989 29.1396 31.2989 29.1408 31.2989C29.1421 31.2989 29.1433 31.2989 29.1445 31.2989C29.1458 31.2989 29.147 31.2989 29.1483 31.2989C29.1495 31.2989 29.1508 31.2989 29.152 31.2989C29.1532 31.2989 29.1545 31.2989 29.1557 31.2989C29.157 31.2989 29.1582 31.2989 29.1595 31.2989C29.1607 31.2989 29.162 31.2989 29.1632 31.2989C29.1645 31.2989 29.1657 31.2989 29.167 31.2989C29.1682 31.2989 29.1695 31.2989 29.1707 31.2989C29.172 31.2989 29.1732 31.2989 29.1745 31.2989C29.1757 31.2989 29.177 31.2989 29.1782 31.2989C29.1795 31.2989 29.1807 31.2989 29.182 31.2989C29.1832 31.2989 29.1845 31.2989 29.1857 31.2989C29.187 31.2989 29.1883 31.2989 29.1895 31.2989C29.1908 31.2989 29.192 31.2989 29.1933 31.2989C29.1945 31.2989 29.1958 31.2989 29.1971 31.2989C29.1983 31.2989 29.1996 31.2989 29.2008 31.2989C29.2021 31.2989 29.2033 31.2989 29.2046 31.2989C29.2059 31.2989 29.2071 31.2989 29.2084 31.2989C29.2096 31.2989 29.2109 31.2989 29.2122 31.2989C29.2134 31.2989 29.2147 31.2989 29.216 31.2989C29.2172 31.2989 29.2185 31.2989 29.2197 31.2989C29.221 31.2989 29.2223 31.2989 29.2235 31.2989C29.2248 31.2989 29.2261 31.2989 29.2273 31.2989C29.2286 31.2989 29.2299 31.2989 29.2311 31.2989C29.2324 31.2989 29.2337 31.2989 29.2349 31.2989C29.2362 31.2989 29.2375 31.2989 29.2387 31.2989C29.24 31.2989 29.2413 31.2989 29.2425 31.2989C29.2438 31.2989 29.2451 31.2989 29.2463 31.2989C29.2476 31.2989 29.2489 31.2989 29.2502 31.2989C29.2514 31.2989 29.2527 31.2989 29.254 31.2989C29.2552 31.2989 29.2565 31.2989 29.2578 31.2989C29.259 31.2989 29.2603 31.2989 29.2616 31.2989C29.2629 31.2989 29.2641 31.2989 29.2654 31.2989C29.2667 31.2989 29.268 31.2989 29.2692 31.2989C29.2705 31.2989 29.2718 31.2989 29.2731 31.2989C29.2743 31.2989 29.2756 31.2989 29.2769 31.2989C29.2782 31.2989 29.2794 31.2989 29.2807 31.2989C29.282 31.2989 29.2833 31.2989 29.2845 31.2989C29.2858 31.2989 29.2871 31.2989 29.2884 31.2989C29.2896 31.2989 29.2909 31.2989 29.2922 31.2989C29.2935 31.2989 29.2947 31.2989 29.296 31.2989C29.2973 31.2989 29.2986 31.2989 29.2999 31.2989C29.3011 31.2989 29.3024 31.2989 29.3037 31.2989C29.305 31.2989 29.3063 31.2989 29.3075 31.2989C29.3088 31.2989 29.3101 31.2989 29.3114 31.2989C29.3127 31.2989 29.3139 31.2989 29.3152 31.2989C29.3165 31.2989 29.3178 31.2989 29.3191 31.2989C29.3203 31.2989 29.3216 31.2989 29.3229 31.2989C29.3242 31.2989 29.3255 31.2989 29.3267 31.2989C29.328 31.2989 29.3293 31.2989 29.3306 31.2989C29.3319 31.2989 29.3332 31.2989 29.3344 31.2989C29.3357 31.2989 29.337 31.2989 29.3383 31.2989C29.3396 31.2989 29.3409 31.2989 29.3421 31.2989C29.3434 31.2989 29.3447 31.2989 29.346 31.2989C29.3473 31.2989 29.3486 31.2989 29.3498 31.2989C29.3511 31.2989 29.3524 31.2989 29.3537 31.2989C29.355 31.2989 29.3563 31.2989 29.3576 31.2989C29.3588 31.2989 29.3601 31.2989 29.3614 31.2989C29.3627 31.2989 29.364 31.2989 29.3653 31.2989C29.3665 31.2989 29.3678 31.2989 29.3691 31.2989C29.3704 31.2989 29.3717 31.2989 29.373 31.2989C29.3743 31.2989 29.3756 31.2989 29.3768 31.2989C29.3781 31.2989 29.3794 31.2989 29.3807 31.2989C29.382 31.2989 29.3833 31.2989 29.3846 31.2989C29.3858 31.2989 29.3871 31.2989 29.3884 31.2989C29.3897 31.2989 29.391 31.2989 29.3923 31.2989C29.3936 31.2989 29.3949 31.2989 29.3961 31.2989C29.3974 31.2989 29.3987 31.2989 29.4 31.2989C29.4013 31.2989 29.4026 31.2989 29.4039 31.2989C29.4051 31.2989 29.4064 31.2989 29.4077 31.2989C29.409 31.2989 29.4103 31.2989 29.4116 31.2989C29.4129 31.2989 29.4142 31.2989 29.4155 31.2989C29.4167 31.2989 29.418 31.2989 29.4193 31.2989C29.4206 31.2989 29.4219 31.2989 29.4232 31.2989C29.4245 31.2989 29.4258 31.2989 29.427 31.2989C29.4283 31.2989 29.4296 31.2989 29.4309 31.2989C29.4322 31.2989 29.4335 31.2989 29.4348 31.2989C29.4361 31.2989 29.4373 31.2989 29.4386 31.2989C29.4399 31.2989 29.4412 31.2989 29.4425 31.2989C29.4438 31.2989 29.4451 31.2989 29.4464 31.2989C29.4476 31.2989 29.4489 31.2989 29.4502 31.2989C29.4515 31.2989 29.4528 31.2989 29.4541 31.2989C29.4554 31.2989 29.4567 31.2989 29.4579 31.2989C29.4592 31.2989 29.4605 31.2989 29.4618 31.2989C29.4631 31.2989 29.4644 31.2989 29.4657 31.2989C29.467 31.2989 29.4682 31.2989 29.4695 31.2989C29.4708 31.2989 29.4721 31.2989 29.4734 31.2989C29.4747 31.2989 29.476 31.2989 29.4773 31.2989C29.4785 31.2989 29.4798 31.2989 29.4811 31.2989C29.4824 31.2989 29.4837 31.2989 29.485 31.2989C29.4863 31.2989 29.4875 31.2989 29.4888 31.2989C29.4901 31.2989 29.4914 31.2989 29.4927 31.2989C29.494 31.2989 29.4953 31.2989 29.4965 31.2989C29.4978 31.2989 29.4991 31.2989 29.5004 31.2989C29.5017 31.2989 29.503 31.2989 29.5043 31.2989C29.5055 31.2989 29.5068 31.2989 29.5081 31.2989C29.5094 31.2989 29.5107 31.2989 29.512 31.2989C29.5132 31.2989 29.5145 31.2989 29.5158 31.2989C29.5171 31.2989 29.5184 31.2989 29.5197 31.2989C29.5209 31.2989 29.5222 31.2989 29.5235 31.2989C29.5248 31.2989 29.5261 31.2989 29.5274 31.2989C29.5286 31.2989 29.5299 31.2989 29.5312 31.2989C29.5325 31.2989 29.5338 31.2989 29.5351 31.2989C29.5363 31.2989 29.5376 31.2989 29.5389 31.2989C29.5402 31.2989 29.5415 31.2989 29.5427 31.2989C29.544 31.2989 29.5453 31.2989 29.5466 31.2989C29.5479 31.2989 29.5491 31.2989 29.5504 31.2989C29.5517 31.2989 29.553 31.2989 29.5543 31.2989C29.5555 31.2989 29.5568 31.2989 29.5581 31.2989C29.5594 31.2989 29.5607 31.2989 29.5619 31.2989C29.5632 31.2989 29.5645 31.2989 29.5658 31.2989C29.567 31.2989 29.5683 31.2989 29.5696 31.2989C29.5709 31.2989 29.5722 31.2989 29.5734 31.2989C29.5747 31.2989 29.576 31.2989 29.5773 31.2989C29.5785 31.2989 29.5798 31.2989 29.5811 31.2989C29.5824 31.2989 29.5836 31.2989 29.5849 31.2989C29.5862 31.2989 29.5875 31.2989 29.5887 31.2989C29.59 31.2989 29.5913 31.2989 29.5926 31.2989C29.5938 31.2989 29.5951 31.2989 29.5964 31.2989C29.5977 31.2989 29.5989 31.2989 29.6002 31.2989C29.6015 31.2989 29.6027 31.2989 29.604 31.2989C29.6053 31.2989 29.6066 31.2989 29.6078 31.2989C29.6091 31.2989 29.6104 31.2989 29.6116 31.2989C29.6129 31.2989 29.6142 31.2989 29.6154 31.2989C29.6167 31.2989 29.618 31.2989 29.6192 31.2989C29.6205 31.2989 29.6218 31.2989 29.623 31.2989C29.6243 31.2989 29.6256 31.2989 29.6269 31.2989C29.6281 31.2989 29.6294 31.2989 29.6306 31.2989C29.6319 31.2989 29.6332 31.2989 29.6344 31.2989C29.6357 31.2989 29.637 31.2989 29.6382 31.2989C29.6395 31.2989 29.6408 31.2989 29.642 31.2989C29.6433 31.2989 29.6446 31.2989 29.6458 31.2989C29.6471 31.2989 29.6483 31.2989 29.6496 31.2989C29.6509 31.2989 29.6521 31.2989 29.6534 31.2989C29.6546 31.2989 29.6559 31.2989 29.6572 31.2989C29.6584 31.2989 29.6597 31.2989 29.6609 31.2989C29.6622 31.2989 29.6635 31.2989 29.6647 31.2989C29.666 31.2989 29.6672 31.2989 29.6685 31.2989C29.6697 31.2989 29.671 31.2989 29.6723 31.2989C29.6735 31.2989 29.6748 31.2989 29.676 31.2989C29.6773 31.2989 29.6785 31.2989 29.6798 31.2989C29.681 31.2989 29.6823 31.2989 29.6835 31.2989C29.6848 31.2989 29.686 31.2989 29.6873 31.2989C29.6885 31.2989 29.6898 31.2989 29.691 31.2989C29.6923 31.2989 29.6935 31.2989 29.6948 31.2989C29.696 31.2989 29.6973 31.2989 29.6985 31.2989C29.6998 31.2989 29.701 31.2989 29.7023 31.2989C29.7035 31.2989 29.7048 31.2989 29.706 31.2989C29.7073 31.2989 29.7085 31.2989 29.7098 31.2989C29.711 31.2989 29.7122 31.2989 29.7135 31.2989C29.7147 31.2989 29.716 31.2989 29.7172 31.2989C29.7185 31.2989 29.7197 31.2989 29.7209 31.2989C29.7222 31.2989 29.7234 31.2989 29.7247 31.2989C29.7259 31.2989 29.7271 31.2989 29.7284 31.2989C29.7296 31.2989 29.7308 31.2989 29.7321 31.2989C29.7333 31.2989 29.7346 31.2989 29.7358 31.2989C29.737 31.2989 29.7383 31.2989 29.7395 31.2989C29.7407 31.2989 29.742 31.2989 29.7432 31.2989C29.7444 31.2989 29.7457 31.2989 29.7469 31.2989C29.7481 31.2989 29.7494 31.2989 29.7506 31.2989C29.7518 31.2989 29.753 31.2989 29.7543 31.2989C29.7555 31.2989 29.7567 31.2989 29.758 31.2989C29.7592 31.2989 29.7604 31.2989 29.7616 31.2989C29.7629 31.2989 29.7641 31.2989 29.7653 31.2989C29.7665 31.2989 29.7678 31.2989 29.769 31.2989C29.7702 31.2989 29.7714 31.2989 29.7727 31.2989C29.7739 31.2989 29.7751 31.2989 29.7763 31.2989C29.7775 31.2989 29.7788 31.2989 29.78 31.2989C29.7812 31.2989 29.7824 31.2989 29.7836 31.2989C29.7848 31.2989 29.7861 31.2989 29.7873 31.2989C29.7885 31.2989 29.7897 31.2989 29.7909 31.2989C29.7921 31.2989 29.7934 31.2989 29.7946 31.2989C29.7958 31.2989 29.797 31.2989 29.7982 31.2989C29.7994 31.2989 29.8006 31.2989 29.8018 31.2989C29.803 31.2989 29.8042 31.2989 29.8055 31.2989C29.8067 31.2989 29.8079 31.2989 29.8091 31.2989C29.8103 31.2989 29.8115 31.2989 29.8127 31.2989C29.8139 31.2989 29.8151 31.2989 29.8163 31.2989C29.8175 31.2989 29.8187 31.2989 29.8199 31.2989C29.8211 31.2989 29.8223 31.2989 29.8235 31.2989C29.8247 31.2989 29.8259 31.2989 29.8271 31.2989C29.8283 31.2989 29.8295 31.2989 29.8307 31.2989C29.8319 31.2989 29.8331 31.2989 29.8343 31.2989C29.8355 31.2989 29.8367 31.2989 29.8379 31.2989C29.8391 31.2989 29.8403 31.2989 29.8414 31.2989C29.8426 31.2989 29.8438 31.2989 29.845 31.2989C29.8462 31.2989 29.8474 31.2989 29.8486 31.2989C29.8498 31.2989 29.851 31.2989 29.8521 31.2989C29.8533 31.2989 29.8545 31.2989 29.8557 31.2989C29.8569 31.2989 29.8581 31.2989 29.8592 31.2989C29.8604 31.2989 29.8616 31.2989 29.8628 31.2989C29.864 31.2989 29.8651 31.2989 29.8663 31.2989C29.8675 31.2989 29.8687 31.2989 29.8699 31.2989C29.871 31.2989 29.8722 31.2989 29.8734 31.2989C29.8746 31.2989 29.8757 31.2989 29.8769 31.2989C29.8781 31.2989 29.8792 31.2989 29.8804 31.2989C29.8816 31.2989 29.8828 31.2989 29.8839 31.2989C29.8851 31.2989 29.8863 31.2989 29.8874 31.2989C29.8886 31.2989 29.8898 31.2989 29.8909 31.2989C29.8921 31.2989 29.8932 31.2989 29.8944 31.2989C29.8956 31.2989 29.8967 31.2989 29.8979 31.2989C29.8991 31.2989 29.9002 31.2989 29.9014 31.2989C29.9025 31.2989 29.9037 31.2989 29.9048 31.2989C29.906 31.2989 29.9072 31.2989 29.9083 31.2989C29.9095 31.2989 29.9106 31.2989 29.9118 31.2989C29.9129 31.2989 29.9141 31.2989 29.9152 31.2989C29.9164 31.2989 29.9175 31.2989 29.9187 31.2989C29.9198 31.2989 29.921 31.2989 29.9221 31.2989C29.9233 31.2989 29.9244 31.2989 29.9255 31.2989C29.9267 31.2989 29.9278 31.2989 29.929 31.2989C29.9301 31.2989 29.9313 31.2989 29.9324 31.2989C29.9335 31.2989 29.9347 31.2989 29.9358 31.2989C29.9369 31.2989 29.9381 31.2989 29.9392 31.2989C29.9404 31.2989 29.9415 31.2989 29.9426 31.2989C29.9438 31.2989 29.9449 31.2989 29.946 31.2989C29.9471 31.2989 29.9483 31.2989 29.9494 31.2989C29.9505 31.2989 29.9517 31.2989 29.9528 31.2989C29.9539 31.2989 29.955 31.2989 29.9562 31.2989C29.9573 31.2989 29.9584 31.2989 29.9595 31.2989C29.9606 31.2989 29.9618 31.2989 29.9629 31.2989C29.964 31.2989 29.9651 31.2989 29.9662 31.2989C29.9674 31.2989 29.9685 31.2989 29.9696 31.2989C29.9707 31.2989 29.9718 31.2989 29.9729 31.2989C29.974 31.2989 29.9751 31.2989 29.9763 31.2989C29.9774 31.2989 29.9785 31.2989 29.9796 31.2989C29.9807 31.2989 29.9818 31.2989 29.9829 31.2989C29.984 31.2989 29.9851 31.2989 29.9862 31.2989C29.9873 31.2989 29.9884 31.2989 29.9895 31.2989C29.9906 31.2989 29.9917 31.2989 29.9928 31.2989C29.9939 31.2989 29.995 31.2989 29.9961 31.2989C29.9972 31.2989 29.9983 31.2989 29.9994 31.2989C30.0005 31.2989 30.0016 31.2989 30.0026 31.2989C30.0037 31.2989 30.0048 31.2989 30.0059 31.2989C30.007 31.2989 30.0081 31.2989 30.0092 31.2989C30.0103 31.2989 30.0113 31.2989 30.0124 31.2989C30.0135 31.2989 30.0146 31.2989 30.0157 31.2989C30.0167 31.2989 30.0178 31.2989 30.0189 31.2989C30.02 31.2989 30.021 31.2989 30.0221 31.2989C30.0232 31.2989 30.0243 31.2989 30.0253 31.2989C30.0264 31.2989 30.0275 31.2989 30.0285 31.2989C30.0296 31.2989 30.0307 31.2989 30.0318 31.2989C30.0328 31.2989 30.0339 31.2989 30.0349 31.2989C30.036 31.2989 30.0371 31.2989 30.0381 31.2989C30.0392 31.2989 30.0403 31.2989 30.0413 31.2989C30.0424 31.2989 30.0434 31.2989 30.0445 31.2989C30.0455 31.2989 30.0466 31.2989 30.0476 31.2989C30.0487 31.2989 30.0497 31.2989 30.0508 31.2989C30.0518 31.2989 30.0529 31.2989 30.0539 31.2989C30.055 31.2989 30.056 31.2989 30.0571 31.2989C30.0581 31.2989 30.0592 31.2989 30.0602 31.2989C30.0612 31.2989 30.0623 31.2989 30.0633 31.2989C30.0644 31.2989 30.0654 31.2989 30.0664 31.2989C30.0675 31.2989 30.0685 31.2989 30.0695 31.2989C30.0706 31.2989 30.0716 31.2989 30.0726 31.2989C30.0737 31.2989 30.0747 31.2989 30.0757 31.2989C30.0767 31.2989 30.0778 31.2989 30.0788 31.2989C30.0798 31.2989 30.0808 31.2989 30.0819 31.2989C30.0829 31.2989 30.0839 31.2989 30.0849 31.2989C30.0859 31.2989 30.087 31.2989 30.088 31.2989C30.089 31.2989 30.09 31.2989 30.091 31.2989C30.092 31.2989 30.093 31.2989 30.094 31.2989C30.0951 31.2989 30.0961 31.2989 30.0971 31.2989C30.0981 31.2989 30.0991 31.2989 30.1001 31.2989C30.1011 31.2989 30.1021 31.2989 30.1031 31.2989C30.1041 31.2989 30.1051 31.2989 30.1061 31.2989C30.1071 31.2989 30.1081 31.2989 30.1091 31.2989C30.1101 31.2989 30.1111 31.2989 30.112 31.2989C30.113 31.2989 30.114 31.2989 30.115 31.2989C30.116 31.2989 30.117 31.2989 30.118 31.2989C30.119 31.2989 30.1199 31.2989 30.1209 31.2989C30.1219 31.2989 30.1229 31.2989 30.1239 31.2989C30.1248 31.2989 30.1258 31.2989 30.1268 31.2989C30.1278 31.2989 30.1287 31.2989 30.1297 31.2989C30.1307 31.2989 30.1317 31.2989 30.1326 31.2989C30.1336 31.2989 30.1346 31.2989 30.1355 31.2989C30.1365 31.2989 30.1375 31.2989 30.1384 31.2989C30.1394 31.2989 30.1403 31.2989 30.1413 31.2989C30.1423 31.2989 30.1432 31.2989 30.1442 31.2989C30.1451 31.2989 30.1461 31.2989 30.147 31.2989C30.148 31.2989 30.1489 31.2989 30.1499 31.2989C30.1508 31.2989 30.1518 31.2989 30.1527 31.2989C30.1537 31.2989 30.1546 31.2989 30.1556 31.2989C30.1565 31.2989 30.1574 31.2989 30.1584 31.2989C30.1593 31.2989 30.1603 31.2989 30.1612 31.2989C30.1621 31.2989 30.1631 31.2989 30.164 31.2989C30.1649 31.2989 30.1659 31.2989 30.1668 31.2989C30.1677 31.2989 30.1686 31.2989 30.1696 31.2989C30.1705 31.2989 30.1714 31.2989 30.1723 31.2989C30.1733 31.2989 30.1742 31.2989 30.1751 31.2989C30.176 31.2989 30.1769 31.2989 30.1779 31.2989C30.1788 31.2989 30.1797 31.2989 30.1806 31.2989C30.1815 31.2989 30.1824 31.2989 30.1833 31.2989C30.1842 31.2989 30.1851 31.2989 30.186 31.2989C30.1869 31.2989 30.1879 31.2989 30.1888 31.2989C30.1897 31.2989 30.1906 31.2989 30.1914 31.2989C30.1923 31.2989 30.1932 31.2989 30.1941 31.2989C30.195 31.2989 30.1959 31.2989 30.1968 31.2989C30.1977 31.2989 30.1986 31.2989 30.1995 31.2989C30.2004 31.2989 30.2013 31.2989 30.2021 31.2989C30.203 31.2989 30.2039 31.2989 30.2048 31.2989C30.2057 31.2989 30.2065 31.2989 30.2074 31.2989C30.2083 31.2989 30.2092 31.2989 30.21 31.2989C30.2109 31.2989 30.2118 31.2989 30.2126 31.2989C30.2135 31.2989 30.2144 31.2989 30.2152 31.2989C30.2161 31.2989 30.217 31.2989 30.2178 31.2989C30.2187 31.2989 30.2196 31.2989 30.2204 31.2989C30.2213 31.2989 30.2221 31.2989 30.223 31.2989C30.2238 31.2989 30.2247 31.2989 30.2255 31.2989C30.2264 31.2989 30.2272 31.2989 30.2281 31.2989C30.2289 31.2989 30.2298 31.2989 30.2306 31.2989C30.2315 31.2989 30.2323 31.2989 30.2331 31.2989C30.234 31.2989 30.2348 31.2989 30.2356 31.2989C30.2365 31.2989 30.2373 31.2989 30.2381 31.2989C30.239 31.2989 30.2398 31.2989 30.2406 31.2989C30.2415 31.2989 30.2423 31.2989 30.2431 31.2989C30.2439 31.2989 30.2447 31.2989 30.2456 31.2989C30.2464 31.2989 30.2472 31.2989 30.248 31.2989C30.2488 31.2989 30.2496 31.2989 30.2505 31.2989C30.2513 31.2989 30.2521 31.2989 30.2529 31.2989C30.2537 31.2989 30.2545 31.2989 30.2553 31.2989C30.2561 31.2989 30.2569 31.2989 30.2577 31.2989C30.2585 31.2989 30.2593 31.2989 30.2601 31.2989C30.2609 31.2989 30.2617 31.2989 30.2625 31.2989C30.2633 31.2989 30.2641 31.2989 30.2648 31.2989C30.2656 31.2989 30.2664 31.2989 30.2672 31.2989C30.268 31.2989 30.2688 31.2989 30.2695 31.2989C30.2703 31.2989 30.2711 31.2989 30.2719 31.2989C30.2727 31.2989 30.2734 31.2989 30.2742 31.2989C30.275 31.2989 30.2757 31.2989 30.2765 31.2989C30.2773 31.2989 30.278 31.2989 30.2788 31.2989C30.2796 31.2989 30.2803 31.2989 30.2811 31.2989C30.2818 31.2989 30.2826 31.2989 30.2834 31.2989C30.2841 31.2989 30.2849 31.2989 30.2856 31.2989C30.2864 31.2989 30.2871 31.2989 30.2879 31.2989C30.2886 31.2989 30.2893 31.2989 30.2901 31.2989C30.2908 31.2989 30.2916 31.2989 30.2923 31.2989C30.293 31.2989 30.2938 31.2989 30.2945 31.2989C30.2953 31.2989 30.296 31.2989 30.2967 31.2989C30.2974 31.2989 30.2982 31.2989 30.2989 31.2989C30.2996 31.2989 30.3003 31.2989 30.3011 31.2989C30.3018 31.2989 30.3025 31.2989 30.3032 31.2989C30.3039 31.2989 30.3047 31.2989 30.3054 31.2989C30.3061 31.2989 30.3068 31.2989 30.3075 31.2989C30.3082 31.2989 30.3089 31.2989 30.3096 31.2989C30.3103 31.2989 30.311 31.2989 30.3117 31.2989C30.3124 31.2989 30.3131 31.2989 30.3138 31.2989C30.3145 31.2989 30.3152 31.2989 30.3159 31.2989C30.3166 31.2989 30.3173 31.2989 30.3179 31.2989C30.3186 31.2989 30.3193 31.2989 30.32 31.2989C30.3207 31.2989 30.3214 31.2989 30.322 31.2989C30.3227 31.2989 30.3234 31.2989 30.3241 31.2989C30.3247 31.2989 30.3254 31.2989 30.3261 31.2989C30.3267 31.2989 30.3274 31.2989 30.3281 31.2989C30.3287 31.2989 30.3294 31.2989 30.3301 31.2989C30.3307 31.2989 30.3314 31.2989 30.332 31.2989C30.3327 31.2989 30.3333 31.2989 30.334 31.2989C30.3346 31.2989 30.3353 31.2989 30.3359 31.2989C30.3366 31.2989 30.3372 31.2989 30.3379 31.2989C30.3385 31.2989 30.3391 31.2989 30.3398 31.2989C30.3404 31.2989 30.341 31.2989 30.3417 31.2989C30.3423 31.2989 30.3429 31.2989 30.3436 31.2989C30.3442 31.2989 30.3448 31.2989 30.3454 31.2989C30.3461 31.2989 30.3467 31.2989 30.3473 31.2989C30.3479 31.2989 30.3485 31.2989 30.3491 31.2989C30.3498 31.2989 30.3504 31.2989 30.351 31.2989C30.3516 31.2989 30.3522 31.2989 30.3528 31.2989C30.3534 31.2989 30.354 31.2989 30.3546 31.2989C30.3552 31.2989 30.3558 31.2989 30.3564 31.2989C30.357 31.2989 30.3576 31.2989 30.3582 31.2989C30.3588 31.2989 30.3593 31.2989 30.3599 31.2989C30.3605 31.2989 30.3611 31.2989 30.3617 31.2989C30.3623 31.2989 30.3628 31.2989 30.3634 31.2989C30.364 31.2989 30.3646 31.2989 30.3651 31.2989C30.3657 31.2989 30.3663 31.2989 30.3668 31.2989C30.3674 31.2989 30.368 31.2989 30.3685 31.2989C30.3691 31.2989 30.3696 31.2989 30.3702 31.2989C30.3708 31.2989 30.3713 31.2989 30.3719 31.2989C30.3724 31.2989 30.373 31.2989 30.3735 31.2989C30.374 31.2989 30.3746 31.2989 30.3751 31.2989C30.3757 31.2989 30.3762 31.2989 30.3768 31.2989C30.3773 31.2989 30.3778 31.2989 30.3784 31.2989C30.3789 31.2989 30.3794 31.2989 30.3799 31.2989C30.3805 31.2989 30.381 31.2989 30.3815 31.2989C30.382 31.2989 30.3825 31.2989 30.3831 31.2989C30.3836 31.2989 30.3841 31.2989 30.3846 31.2989C30.3851 31.2989 30.3856 31.2989 30.3861 31.2989C30.3866 31.2989 30.3871 31.2989 30.3876 31.2989C30.3881 31.2989 30.3886 31.2989 30.3891 31.2989C30.3896 31.2989 30.3901 31.2989 30.3906 31.2989C30.3911 31.2989 30.3916 31.2989 30.3921 31.2989C30.3926 31.2989 30.3931 31.2989 30.3935 31.2989C30.394 31.2989 30.3945 31.2989 30.395 31.2989C30.3954 31.2989 30.3959 31.2989 30.3964 31.2989C30.3969 31.2989 30.3973 31.2989 30.3978 31.2989C30.3983 31.2989 30.3987 31.2989 30.3992 31.2989C30.3996 31.2989 30.4001 31.2989 30.4006 31.2989C30.401 31.2989 30.4015 31.2989 30.4019 31.2989C30.4024 31.2989 30.4028 31.2989 30.4033 31.2989C30.4037 31.2989 30.4041 31.2989 30.4046 31.2989C30.405 31.2989 30.4055 31.2989 30.4059 31.2989C30.4063 31.2989 30.4068 31.2989 30.4072 31.2989C30.4076 31.2989 30.408 31.2989 30.4085 31.2989C30.4089 31.2989 30.4093 31.2989 30.4097 31.2989C30.4101 31.2989 30.4106 31.2989 30.411 31.2989C30.4114 31.2989 30.4118 31.2989 30.4122 31.2989C30.4126 31.2989 30.413 31.2989 30.4134 31.2989C30.4138 31.2989 30.4142 31.2989 30.4146 31.2989C30.415 31.2989 30.4154 31.2989 30.4158 31.2989C30.4162 31.2989 30.4166 31.2989 30.417 31.2989C30.4174 31.2989 30.4177 31.2989 30.4181 31.2989C30.4185 31.2989 30.4189 31.2989 30.4193 31.2989C30.4196 31.2989 30.42 31.2989 30.4204 31.2989C30.4207 31.2989 30.4211 31.2989 30.4215 31.2989C30.4218 31.2989 30.4222 31.2989 30.4226 31.2989C30.4229 31.2989 30.4233 31.2989 30.4236 31.2989C30.424 31.2989 30.4243 31.2989 30.4247 31.2989C30.425 31.2989 30.4254 31.2989 30.4257 31.2989C30.4261 31.2989 30.4264 31.2989 30.4267 31.2989C30.4271 31.2989 30.4274 31.2989 30.4277 31.2989C30.4281 31.2989 30.4284 31.2989 30.4287 31.2989C30.429 31.2989 30.4294 31.2989 30.4297 31.2989C30.43 31.2989 30.4303 31.2989 30.4306 31.2989C30.431 31.2989 30.4313 31.2989 30.4316 31.2989C30.4319 31.2989 30.4322 31.2989 30.4325 31.2989C30.4328 31.2989 30.4331 31.2989 30.4334 31.2989C30.4337 31.2989 30.434 31.2989 30.4343 31.2989C30.4346 31.2989 30.4349 31.2989 30.4351 31.2989C30.4354 31.2989 30.4357 31.2989 30.436 31.2989C30.4363 31.2989 30.4365 31.2989 30.4368 31.2989C30.4371 31.2989 30.4374 31.2989 30.4376 31.2989C30.4379 31.2989 30.4382 31.2989 30.4384 31.2989C30.4387 31.2989 30.439 31.2989 30.4392 31.2989C30.4395 31.2989 30.4397 31.2989 30.44 31.2989C30.4402 31.2989 30.4405 31.2989 30.4407 31.2989C30.441 31.2989 30.4412 31.2989 30.4415 31.2989C30.4417 31.2989 30.4419 31.2989 30.4422 31.2989C30.4424 31.2989 30.4426 31.2989 30.4429 31.2989C30.4431 31.2989 30.4433 31.2989 30.4435 31.2989C30.4438 31.2989 30.444 31.2989 30.4442 31.2989C30.4444 31.2989 30.4446 31.2989 30.4448 31.2989C30.445 31.2989 30.4453 31.2989 30.4455 31.2989C30.4457 31.2989 30.4459 31.2989 30.4461 31.2989C30.4463 31.2989 30.4465 31.2989 30.4466 31.2989C30.4468 31.2989 30.447 31.2989 30.4472 31.2989C30.4474 31.2989 30.4476 31.2989 30.4478 31.2989C30.4479 31.2989 30.4481 31.2989 30.4483 31.2989C30.4485 31.2989 30.4486 31.2989 30.4488 31.2989C30.449 31.2989 30.4492 31.2989 30.4493 31.2989C30.4495 31.2989 30.4496 31.2989 30.4498 31.2989C30.45 31.2989 30.4501 31.2989 30.4503 31.2989C30.4504 31.2989 30.4506 31.2989 30.4507 31.2989C30.4508 31.2989 30.451 31.2989 30.4511 31.2989C30.4513 31.2989 30.4514 31.2989 30.4515 31.2989C30.4517 31.2989 30.4518 31.2989 30.4519 31.2989C30.452 31.2989 30.4522 31.2989 30.4523 31.2989C30.4524 31.2989 30.4525 31.2989 30.4526 31.2989C30.4527 31.2989 30.4529 31.2989 30.453 31.2989C30.4531 31.2989 30.4532 31.2989 30.4533 31.2989C30.4534 31.2989 30.4535 31.2989 30.4536 31.2989C30.4537 31.2989 30.4538 31.2989 30.4539 31.2989C30.4539 31.2989 30.454 31.2989 30.4541 31.2989C30.4542 31.2989 30.4543 31.2989 30.4543 31.2989C30.4544 31.2989 30.4545 31.2989 30.4546 31.2989C30.4546 31.2989 30.4547 31.2989 30.4548 31.2989C30.4548 31.2989 30.4549 31.2989 30.455 31.2989C30.455 31.2989 30.4551 31.2989 30.4551 31.2989C30.4552 31.2989 30.4552 31.2989 30.4553 31.2989C30.4553 31.2989 30.4553 31.2989 30.4554 31.2989C30.4554 31.2989 30.4555 31.2989 30.4555 31.2989C30.4555 31.2989 30.4555 31.2989 30.4556 31.2989C30.4556 31.2989 30.4556 31.2989 30.4556 31.2989C30.4557 31.2989 30.4557 31.2989 30.4557 31.2989C30.4557 31.2989 30.4557 31.2989 30.4557 31.2989C30.4557 31.2989 30.4557 31.2989 30.4557 30.1989C30.4557 29.0989 30.4557 29.0989 30.4557 29.0989C30.4557 29.0989 30.4557 29.0989 30.4557 29.0989C30.4557 29.0989 30.4557 29.0989 30.4556 29.0989C30.4556 29.0989 30.4556 29.0989 30.4556 29.0989C30.4555 29.0989 30.4555 29.0989 30.4555 29.0989C30.4555 29.0989 30.4554 29.0989 30.4554 29.0989C30.4553 29.0989 30.4553 29.0989 30.4553 29.0989C30.4552 29.0989 30.4552 29.0989 30.4551 29.0989C30.4551 29.0989 30.455 29.0989 30.455 29.0989C30.4549 29.0989 30.4548 29.0989 30.4548 29.0989C30.4547 29.0989 30.4546 29.0989 30.4546 29.0989C30.4545 29.0989 30.4544 29.0989 30.4543 29.0989C30.4543 29.0989 30.4542 29.0989 30.4541 29.0989C30.454 29.0989 30.4539 29.0989 30.4539 29.0989C30.4538 29.0989 30.4537 29.0989 30.4536 29.0989C30.4535 29.0989 30.4534 29.0989 30.4533 29.0989C30.4532 29.0989 30.4531 29.0989 30.453 29.0989C30.4529 29.0989 30.4527 29.0989 30.4526 29.0989C30.4525 29.0989 30.4524 29.0989 30.4523 29.0989C30.4522 29.0989 30.452 29.0989 30.4519 29.0989C30.4518 29.0989 30.4517 29.0989 30.4515 29.0989C30.4514 29.0989 30.4513 29.0989 30.4511 29.0989C30.451 29.0989 30.4508 29.0989 30.4507 29.0989C30.4506 29.0989 30.4504 29.0989 30.4503 29.0989C30.4501 29.0989 30.45 29.0989 30.4498 29.0989C30.4496 29.0989 30.4495 29.0989 30.4493 29.0989C30.4492 29.0989 30.449 29.0989 30.4488 29.0989C30.4486 29.0989 30.4485 29.0989 30.4483 29.0989C30.4481 29.0989 30.4479 29.0989 30.4478 29.0989C30.4476 29.0989 30.4474 29.0989 30.4472 29.0989C30.447 29.0989 30.4468 29.0989 30.4466 29.0989C30.4465 29.0989 30.4463 29.0989 30.4461 29.0989C30.4459 29.0989 30.4457 29.0989 30.4455 29.0989C30.4453 29.0989 30.445 29.0989 30.4448 29.0989C30.4446 29.0989 30.4444 29.0989 30.4442 29.0989C30.444 29.0989 30.4438 29.0989 30.4435 29.0989C30.4433 29.0989 30.4431 29.0989 30.4429 29.0989C30.4426 29.0989 30.4424 29.0989 30.4422 29.0989C30.4419 29.0989 30.4417 29.0989 30.4415 29.0989C30.4412 29.0989 30.441 29.0989 30.4407 29.0989C30.4405 29.0989 30.4402 29.0989 30.44 29.0989C30.4397 29.0989 30.4395 29.0989 30.4392 29.0989C30.439 29.0989 30.4387 29.0989 30.4384 29.0989C30.4382 29.0989 30.4379 29.0989 30.4376 29.0989C30.4374 29.0989 30.4371 29.0989 30.4368 29.0989C30.4365 29.0989 30.4363 29.0989 30.436 29.0989C30.4357 29.0989 30.4354 29.0989 30.4351 29.0989C30.4349 29.0989 30.4346 29.0989 30.4343 29.0989C30.434 29.0989 30.4337 29.0989 30.4334 29.0989C30.4331 29.0989 30.4328 29.0989 30.4325 29.0989C30.4322 29.0989 30.4319 29.0989 30.4316 29.0989C30.4313 29.0989 30.431 29.0989 30.4306 29.0989C30.4303 29.0989 30.43 29.0989 30.4297 29.0989C30.4294 29.0989 30.429 29.0989 30.4287 29.0989C30.4284 29.0989 30.4281 29.0989 30.4277 29.0989C30.4274 29.0989 30.4271 29.0989 30.4267 29.0989C30.4264 29.0989 30.4261 29.0989 30.4257 29.0989C30.4254 29.0989 30.425 29.0989 30.4247 29.0989C30.4243 29.0989 30.424 29.0989 30.4236 29.0989C30.4233 29.0989 30.4229 29.0989 30.4226 29.0989C30.4222 29.0989 30.4218 29.0989 30.4215 29.0989C30.4211 29.0989 30.4207 29.0989 30.4204 29.0989C30.42 29.0989 30.4196 29.0989 30.4193 29.0989C30.4189 29.0989 30.4185 29.0989 30.4181 29.0989C30.4177 29.0989 30.4174 29.0989 30.417 29.0989C30.4166 29.0989 30.4162 29.0989 30.4158 29.0989C30.4154 29.0989 30.415 29.0989 30.4146 29.0989C30.4142 29.0989 30.4138 29.0989 30.4134 29.0989C30.413 29.0989 30.4126 29.0989 30.4122 29.0989C30.4118 29.0989 30.4114 29.0989 30.411 29.0989C30.4106 29.0989 30.4101 29.0989 30.4097 29.0989C30.4093 29.0989 30.4089 29.0989 30.4085 29.0989C30.408 29.0989 30.4076 29.0989 30.4072 29.0989C30.4068 29.0989 30.4063 29.0989 30.4059 29.0989C30.4055 29.0989 30.405 29.0989 30.4046 29.0989C30.4041 29.0989 30.4037 29.0989 30.4033 29.0989C30.4028 29.0989 30.4024 29.0989 30.4019 29.0989C30.4015 29.0989 30.401 29.0989 30.4006 29.0989C30.4001 29.0989 30.3996 29.0989 30.3992 29.0989C30.3987 29.0989 30.3983 29.0989 30.3978 29.0989C30.3973 29.0989 30.3969 29.0989 30.3964 29.0989C30.3959 29.0989 30.3954 29.0989 30.395 29.0989C30.3945 29.0989 30.394 29.0989 30.3935 29.0989C30.3931 29.0989 30.3926 29.0989 30.3921 29.0989C30.3916 29.0989 30.3911 29.0989 30.3906 29.0989C30.3901 29.0989 30.3896 29.0989 30.3891 29.0989C30.3886 29.0989 30.3881 29.0989 30.3876 29.0989C30.3871 29.0989 30.3866 29.0989 30.3861 29.0989C30.3856 29.0989 30.3851 29.0989 30.3846 29.0989C30.3841 29.0989 30.3836 29.0989 30.3831 29.0989C30.3825 29.0989 30.382 29.0989 30.3815 29.0989C30.381 29.0989 30.3805 29.0989 30.3799 29.0989C30.3794 29.0989 30.3789 29.0989 30.3784 29.0989C30.3778 29.0989 30.3773 29.0989 30.3768 29.0989C30.3762 29.0989 30.3757 29.0989 30.3751 29.0989C30.3746 29.0989 30.374 29.0989 30.3735 29.0989C30.373 29.0989 30.3724 29.0989 30.3719 29.0989C30.3713 29.0989 30.3708 29.0989 30.3702 29.0989C30.3696 29.0989 30.3691 29.0989 30.3685 29.0989C30.368 29.0989 30.3674 29.0989 30.3668 29.0989C30.3663 29.0989 30.3657 29.0989 30.3651 29.0989C30.3646 29.0989 30.364 29.0989 30.3634 29.0989C30.3628 29.0989 30.3623 29.0989 30.3617 29.0989C30.3611 29.0989 30.3605 29.0989 30.3599 29.0989C30.3593 29.0989 30.3588 29.0989 30.3582 29.0989C30.3576 29.0989 30.357 29.0989 30.3564 29.0989C30.3558 29.0989 30.3552 29.0989 30.3546 29.0989C30.354 29.0989 30.3534 29.0989 30.3528 29.0989C30.3522 29.0989 30.3516 29.0989 30.351 29.0989C30.3504 29.0989 30.3498 29.0989 30.3491 29.0989C30.3485 29.0989 30.3479 29.0989 30.3473 29.0989C30.3467 29.0989 30.3461 29.0989 30.3454 29.0989C30.3448 29.0989 30.3442 29.0989 30.3436 29.0989C30.3429 29.0989 30.3423 29.0989 30.3417 29.0989C30.341 29.0989 30.3404 29.0989 30.3398 29.0989C30.3391 29.0989 30.3385 29.0989 30.3379 29.0989C30.3372 29.0989 30.3366 29.0989 30.3359 29.0989C30.3353 29.0989 30.3346 29.0989 30.334 29.0989C30.3333 29.0989 30.3327 29.0989 30.332 29.0989C30.3314 29.0989 30.3307 29.0989 30.3301 29.0989C30.3294 29.0989 30.3287 29.0989 30.3281 29.0989C30.3274 29.0989 30.3267 29.0989 30.3261 29.0989C30.3254 29.0989 30.3247 29.0989 30.3241 29.0989C30.3234 29.0989 30.3227 29.0989 30.322 29.0989C30.3214 29.0989 30.3207 29.0989 30.32 29.0989C30.3193 29.0989 30.3186 29.0989 30.3179 29.0989C30.3173 29.0989 30.3166 29.0989 30.3159 29.0989C30.3152 29.0989 30.3145 29.0989 30.3138 29.0989C30.3131 29.0989 30.3124 29.0989 30.3117 29.0989C30.311 29.0989 30.3103 29.0989 30.3096 29.0989C30.3089 29.0989 30.3082 29.0989 30.3075 29.0989C30.3068 29.0989 30.3061 29.0989 30.3054 29.0989C30.3047 29.0989 30.3039 29.0989 30.3032 29.0989C30.3025 29.0989 30.3018 29.0989 30.3011 29.0989C30.3003 29.0989 30.2996 29.0989 30.2989 29.0989C30.2982 29.0989 30.2974 29.0989 30.2967 29.0989C30.296 29.0989 30.2953 29.0989 30.2945 29.0989C30.2938 29.0989 30.293 29.0989 30.2923 29.0989C30.2916 29.0989 30.2908 29.0989 30.2901 29.0989C30.2893 29.0989 30.2886 29.0989 30.2879 29.0989C30.2871 29.0989 30.2864 29.0989 30.2856 29.0989C30.2849 29.0989 30.2841 29.0989 30.2834 29.0989C30.2826 29.0989 30.2818 29.0989 30.2811 29.0989C30.2803 29.0989 30.2796 29.0989 30.2788 29.0989C30.278 29.0989 30.2773 29.0989 30.2765 29.0989C30.2757 29.0989 30.275 29.0989 30.2742 29.0989C30.2734 29.0989 30.2727 29.0989 30.2719 29.0989C30.2711 29.0989 30.2703 29.0989 30.2695 29.0989C30.2688 29.0989 30.268 29.0989 30.2672 29.0989C30.2664 29.0989 30.2656 29.0989 30.2648 29.0989C30.2641 29.0989 30.2633 29.0989 30.2625 29.0989C30.2617 29.0989 30.2609 29.0989 30.2601 29.0989C30.2593 29.0989 30.2585 29.0989 30.2577 29.0989C30.2569 29.0989 30.2561 29.0989 30.2553 29.0989C30.2545 29.0989 30.2537 29.0989 30.2529 29.0989C30.2521 29.0989 30.2513 29.0989 30.2505 29.0989C30.2496 29.0989 30.2488 29.0989 30.248 29.0989C30.2472 29.0989 30.2464 29.0989 30.2456 29.0989C30.2447 29.0989 30.2439 29.0989 30.2431 29.0989C30.2423 29.0989 30.2415 29.0989 30.2406 29.0989C30.2398 29.0989 30.239 29.0989 30.2381 29.0989C30.2373 29.0989 30.2365 29.0989 30.2356 29.0989C30.2348 29.0989 30.234 29.0989 30.2331 29.0989C30.2323 29.0989 30.2315 29.0989 30.2306 29.0989C30.2298 29.0989 30.2289 29.0989 30.2281 29.0989C30.2272 29.0989 30.2264 29.0989 30.2255 29.0989C30.2247 29.0989 30.2238 29.0989 30.223 29.0989C30.2221 29.0989 30.2213 29.0989 30.2204 29.0989C30.2196 29.0989 30.2187 29.0989 30.2178 29.0989C30.217 29.0989 30.2161 29.0989 30.2152 29.0989C30.2144 29.0989 30.2135 29.0989 30.2126 29.0989C30.2118 29.0989 30.2109 29.0989 30.21 29.0989C30.2092 29.0989 30.2083 29.0989 30.2074 29.0989C30.2065 29.0989 30.2057 29.0989 30.2048 29.0989C30.2039 29.0989 30.203 29.0989 30.2021 29.0989C30.2013 29.0989 30.2004 29.0989 30.1995 29.0989C30.1986 29.0989 30.1977 29.0989 30.1968 29.0989C30.1959 29.0989 30.195 29.0989 30.1941 29.0989C30.1932 29.0989 30.1923 29.0989 30.1914 29.0989C30.1906 29.0989 30.1897 29.0989 30.1888 29.0989C30.1879 29.0989 30.1869 29.0989 30.186 29.0989C30.1851 29.0989 30.1842 29.0989 30.1833 29.0989C30.1824 29.0989 30.1815 29.0989 30.1806 29.0989C30.1797 29.0989 30.1788 29.0989 30.1779 29.0989C30.1769 29.0989 30.176 29.0989 30.1751 29.0989C30.1742 29.0989 30.1733 29.0989 30.1723 29.0989C30.1714 29.0989 30.1705 29.0989 30.1696 29.0989C30.1686 29.0989 30.1677 29.0989 30.1668 29.0989C30.1659 29.0989 30.1649 29.0989 30.164 29.0989C30.1631 29.0989 30.1621 29.0989 30.1612 29.0989C30.1603 29.0989 30.1593 29.0989 30.1584 29.0989C30.1574 29.0989 30.1565 29.0989 30.1556 29.0989C30.1546 29.0989 30.1537 29.0989 30.1527 29.0989C30.1518 29.0989 30.1508 29.0989 30.1499 29.0989C30.1489 29.0989 30.148 29.0989 30.147 29.0989C30.1461 29.0989 30.1451 29.0989 30.1442 29.0989C30.1432 29.0989 30.1423 29.0989 30.1413 29.0989C30.1403 29.0989 30.1394 29.0989 30.1384 29.0989C30.1375 29.0989 30.1365 29.0989 30.1355 29.0989C30.1346 29.0989 30.1336 29.0989 30.1326 29.0989C30.1317 29.0989 30.1307 29.0989 30.1297 29.0989C30.1287 29.0989 30.1278 29.0989 30.1268 29.0989C30.1258 29.0989 30.1248 29.0989 30.1239 29.0989C30.1229 29.0989 30.1219 29.0989 30.1209 29.0989C30.1199 29.0989 30.119 29.0989 30.118 29.0989C30.117 29.0989 30.116 29.0989 30.115 29.0989C30.114 29.0989 30.113 29.0989 30.112 29.0989C30.1111 29.0989 30.1101 29.0989 30.1091 29.0989C30.1081 29.0989 30.1071 29.0989 30.1061 29.0989C30.1051 29.0989 30.1041 29.0989 30.1031 29.0989C30.1021 29.0989 30.1011 29.0989 30.1001 29.0989C30.0991 29.0989 30.0981 29.0989 30.0971 29.0989C30.0961 29.0989 30.0951 29.0989 30.094 29.0989C30.093 29.0989 30.092 29.0989 30.091 29.0989C30.09 29.0989 30.089 29.0989 30.088 29.0989C30.087 29.0989 30.0859 29.0989 30.0849 29.0989C30.0839 29.0989 30.0829 29.0989 30.0819 29.0989C30.0808 29.0989 30.0798 29.0989 30.0788 29.0989C30.0778 29.0989 30.0767 29.0989 30.0757 29.0989C30.0747 29.0989 30.0737 29.0989 30.0726 29.0989C30.0716 29.0989 30.0706 29.0989 30.0695 29.0989C30.0685 29.0989 30.0675 29.0989 30.0664 29.0989C30.0654 29.0989 30.0644 29.0989 30.0633 29.0989C30.0623 29.0989 30.0612 29.0989 30.0602 29.0989C30.0592 29.0989 30.0581 29.0989 30.0571 29.0989C30.056 29.0989 30.055 29.0989 30.0539 29.0989C30.0529 29.0989 30.0518 29.0989 30.0508 29.0989C30.0497 29.0989 30.0487 29.0989 30.0476 29.0989C30.0466 29.0989 30.0455 29.0989 30.0445 29.0989C30.0434 29.0989 30.0424 29.0989 30.0413 29.0989C30.0403 29.0989 30.0392 29.0989 30.0381 29.0989C30.0371 29.0989 30.036 29.0989 30.0349 29.0989C30.0339 29.0989 30.0328 29.0989 30.0318 29.0989C30.0307 29.0989 30.0296 29.0989 30.0285 29.0989C30.0275 29.0989 30.0264 29.0989 30.0253 29.0989C30.0243 29.0989 30.0232 29.0989 30.0221 29.0989C30.021 29.0989 30.02 29.0989 30.0189 29.0989C30.0178 29.0989 30.0167 29.0989 30.0157 29.0989C30.0146 29.0989 30.0135 29.0989 30.0124 29.0989C30.0113 29.0989 30.0103 29.0989 30.0092 29.0989C30.0081 29.0989 30.007 29.0989 30.0059 29.0989C30.0048 29.0989 30.0037 29.0989 30.0026 29.0989C30.0016 29.0989 30.0005 29.0989 29.9994 29.0989C29.9983 29.0989 29.9972 29.0989 29.9961 29.0989C29.995 29.0989 29.9939 29.0989 29.9928 29.0989C29.9917 29.0989 29.9906 29.0989 29.9895 29.0989C29.9884 29.0989 29.9873 29.0989 29.9862 29.0989C29.9851 29.0989 29.984 29.0989 29.9829 29.0989C29.9818 29.0989 29.9807 29.0989 29.9796 29.0989C29.9785 29.0989 29.9774 29.0989 29.9763 29.0989C29.9751 29.0989 29.974 29.0989 29.9729 29.0989C29.9718 29.0989 29.9707 29.0989 29.9696 29.0989C29.9685 29.0989 29.9674 29.0989 29.9662 29.0989C29.9651 29.0989 29.964 29.0989 29.9629 29.0989C29.9618 29.0989 29.9606 29.0989 29.9595 29.0989C29.9584 29.0989 29.9573 29.0989 29.9562 29.0989C29.955 29.0989 29.9539 29.0989 29.9528 29.0989C29.9517 29.0989 29.9505 29.0989 29.9494 29.0989C29.9483 29.0989 29.9471 29.0989 29.946 29.0989C29.9449 29.0989 29.9438 29.0989 29.9426 29.0989C29.9415 29.0989 29.9404 29.0989 29.9392 29.0989C29.9381 29.0989 29.9369 29.0989 29.9358 29.0989C29.9347 29.0989 29.9335 29.0989 29.9324 29.0989C29.9313 29.0989 29.9301 29.0989 29.929 29.0989C29.9278 29.0989 29.9267 29.0989 29.9255 29.0989C29.9244 29.0989 29.9233 29.0989 29.9221 29.0989C29.921 29.0989 29.9198 29.0989 29.9187 29.0989C29.9175 29.0989 29.9164 29.0989 29.9152 29.0989C29.9141 29.0989 29.9129 29.0989 29.9118 29.0989C29.9106 29.0989 29.9095 29.0989 29.9083 29.0989C29.9072 29.0989 29.906 29.0989 29.9048 29.0989C29.9037 29.0989 29.9025 29.0989 29.9014 29.0989C29.9002 29.0989 29.8991 29.0989 29.8979 29.0989C29.8967 29.0989 29.8956 29.0989 29.8944 29.0989C29.8932 29.0989 29.8921 29.0989 29.8909 29.0989C29.8898 29.0989 29.8886 29.0989 29.8874 29.0989C29.8863 29.0989 29.8851 29.0989 29.8839 29.0989C29.8828 29.0989 29.8816 29.0989 29.8804 29.0989C29.8792 29.0989 29.8781 29.0989 29.8769 29.0989C29.8757 29.0989 29.8746 29.0989 29.8734 29.0989C29.8722 29.0989 29.871 29.0989 29.8699 29.0989C29.8687 29.0989 29.8675 29.0989 29.8663 29.0989C29.8651 29.0989 29.864 29.0989 29.8628 29.0989C29.8616 29.0989 29.8604 29.0989 29.8592 29.0989C29.8581 29.0989 29.8569 29.0989 29.8557 29.0989C29.8545 29.0989 29.8533 29.0989 29.8521 29.0989C29.851 29.0989 29.8498 29.0989 29.8486 29.0989C29.8474 29.0989 29.8462 29.0989 29.845 29.0989C29.8438 29.0989 29.8426 29.0989 29.8414 29.0989C29.8403 29.0989 29.8391 29.0989 29.8379 29.0989C29.8367 29.0989 29.8355 29.0989 29.8343 29.0989C29.8331 29.0989 29.8319 29.0989 29.8307 29.0989C29.8295 29.0989 29.8283 29.0989 29.8271 29.0989C29.8259 29.0989 29.8247 29.0989 29.8235 29.0989C29.8223 29.0989 29.8211 29.0989 29.8199 29.0989C29.8187 29.0989 29.8175 29.0989 29.8163 29.0989C29.8151 29.0989 29.8139 29.0989 29.8127 29.0989C29.8115 29.0989 29.8103 29.0989 29.8091 29.0989C29.8079 29.0989 29.8067 29.0989 29.8055 29.0989C29.8042 29.0989 29.803 29.0989 29.8018 29.0989C29.8006 29.0989 29.7994 29.0989 29.7982 29.0989C29.797 29.0989 29.7958 29.0989 29.7946 29.0989C29.7934 29.0989 29.7921 29.0989 29.7909 29.0989C29.7897 29.0989 29.7885 29.0989 29.7873 29.0989C29.7861 29.0989 29.7848 29.0989 29.7836 29.0989C29.7824 29.0989 29.7812 29.0989 29.78 29.0989C29.7788 29.0989 29.7775 29.0989 29.7763 29.0989C29.7751 29.0989 29.7739 29.0989 29.7727 29.0989C29.7714 29.0989 29.7702 29.0989 29.769 29.0989C29.7678 29.0989 29.7665 29.0989 29.7653 29.0989C29.7641 29.0989 29.7629 29.0989 29.7616 29.0989C29.7604 29.0989 29.7592 29.0989 29.758 29.0989C29.7567 29.0989 29.7555 29.0989 29.7543 29.0989C29.753 29.0989 29.7518 29.0989 29.7506 29.0989C29.7494 29.0989 29.7481 29.0989 29.7469 29.0989C29.7457 29.0989 29.7444 29.0989 29.7432 29.0989C29.742 29.0989 29.7407 29.0989 29.7395 29.0989C29.7383 29.0989 29.737 29.0989 29.7358 29.0989C29.7346 29.0989 29.7333 29.0989 29.7321 29.0989C29.7308 29.0989 29.7296 29.0989 29.7284 29.0989C29.7271 29.0989 29.7259 29.0989 29.7247 29.0989C29.7234 29.0989 29.7222 29.0989 29.7209 29.0989C29.7197 29.0989 29.7185 29.0989 29.7172 29.0989C29.716 29.0989 29.7147 29.0989 29.7135 29.0989C29.7122 29.0989 29.711 29.0989 29.7098 29.0989C29.7085 29.0989 29.7073 29.0989 29.706 29.0989C29.7048 29.0989 29.7035 29.0989 29.7023 29.0989C29.701 29.0989 29.6998 29.0989 29.6985 29.0989C29.6973 29.0989 29.696 29.0989 29.6948 29.0989C29.6935 29.0989 29.6923 29.0989 29.691 29.0989C29.6898 29.0989 29.6885 29.0989 29.6873 29.0989C29.686 29.0989 29.6848 29.0989 29.6835 29.0989C29.6823 29.0989 29.681 29.0989 29.6798 29.0989C29.6785 29.0989 29.6773 29.0989 29.676 29.0989C29.6748 29.0989 29.6735 29.0989 29.6723 29.0989C29.671 29.0989 29.6697 29.0989 29.6685 29.0989C29.6672 29.0989 29.666 29.0989 29.6647 29.0989C29.6635 29.0989 29.6622 29.0989 29.6609 29.0989C29.6597 29.0989 29.6584 29.0989 29.6572 29.0989C29.6559 29.0989 29.6546 29.0989 29.6534 29.0989C29.6521 29.0989 29.6509 29.0989 29.6496 29.0989C29.6483 29.0989 29.6471 29.0989 29.6458 29.0989C29.6446 29.0989 29.6433 29.0989 29.642 29.0989C29.6408 29.0989 29.6395 29.0989 29.6382 29.0989C29.637 29.0989 29.6357 29.0989 29.6344 29.0989C29.6332 29.0989 29.6319 29.0989 29.6306 29.0989C29.6294 29.0989 29.6281 29.0989 29.6269 29.0989C29.6256 29.0989 29.6243 29.0989 29.623 29.0989C29.6218 29.0989 29.6205 29.0989 29.6192 29.0989C29.618 29.0989 29.6167 29.0989 29.6154 29.0989C29.6142 29.0989 29.6129 29.0989 29.6116 29.0989C29.6104 29.0989 29.6091 29.0989 29.6078 29.0989C29.6066 29.0989 29.6053 29.0989 29.604 29.0989C29.6027 29.0989 29.6015 29.0989 29.6002 29.0989C29.5989 29.0989 29.5977 29.0989 29.5964 29.0989C29.5951 29.0989 29.5938 29.0989 29.5926 29.0989C29.5913 29.0989 29.59 29.0989 29.5887 29.0989C29.5875 29.0989 29.5862 29.0989 29.5849 29.0989C29.5836 29.0989 29.5824 29.0989 29.5811 29.0989C29.5798 29.0989 29.5785 29.0989 29.5773 29.0989C29.576 29.0989 29.5747 29.0989 29.5734 29.0989C29.5722 29.0989 29.5709 29.0989 29.5696 29.0989C29.5683 29.0989 29.567 29.0989 29.5658 29.0989C29.5645 29.0989 29.5632 29.0989 29.5619 29.0989C29.5607 29.0989 29.5594 29.0989 29.5581 29.0989C29.5568 29.0989 29.5555 29.0989 29.5543 29.0989C29.553 29.0989 29.5517 29.0989 29.5504 29.0989C29.5491 29.0989 29.5479 29.0989 29.5466 29.0989C29.5453 29.0989 29.544 29.0989 29.5427 29.0989C29.5415 29.0989 29.5402 29.0989 29.5389 29.0989C29.5376 29.0989 29.5363 29.0989 29.5351 29.0989C29.5338 29.0989 29.5325 29.0989 29.5312 29.0989C29.5299 29.0989 29.5286 29.0989 29.5274 29.0989C29.5261 29.0989 29.5248 29.0989 29.5235 29.0989C29.5222 29.0989 29.5209 29.0989 29.5197 29.0989C29.5184 29.0989 29.5171 29.0989 29.5158 29.0989C29.5145 29.0989 29.5132 29.0989 29.512 29.0989C29.5107 29.0989 29.5094 29.0989 29.5081 29.0989C29.5068 29.0989 29.5055 29.0989 29.5043 29.0989C29.503 29.0989 29.5017 29.0989 29.5004 29.0989C29.4991 29.0989 29.4978 29.0989 29.4965 29.0989C29.4953 29.0989 29.494 29.0989 29.4927 29.0989C29.4914 29.0989 29.4901 29.0989 29.4888 29.0989C29.4875 29.0989 29.4863 29.0989 29.485 29.0989C29.4837 29.0989 29.4824 29.0989 29.4811 29.0989C29.4798 29.0989 29.4785 29.0989 29.4773 29.0989C29.476 29.0989 29.4747 29.0989 29.4734 29.0989C29.4721 29.0989 29.4708 29.0989 29.4695 29.0989C29.4682 29.0989 29.467 29.0989 29.4657 29.0989C29.4644 29.0989 29.4631 29.0989 29.4618 29.0989C29.4605 29.0989 29.4592 29.0989 29.4579 29.0989C29.4567 29.0989 29.4554 29.0989 29.4541 29.0989C29.4528 29.0989 29.4515 29.0989 29.4502 29.0989C29.4489 29.0989 29.4476 29.0989 29.4464 29.0989C29.4451 29.0989 29.4438 29.0989 29.4425 29.0989C29.4412 29.0989 29.4399 29.0989 29.4386 29.0989C29.4373 29.0989 29.4361 29.0989 29.4348 29.0989C29.4335 29.0989 29.4322 29.0989 29.4309 29.0989C29.4296 29.0989 29.4283 29.0989 29.427 29.0989C29.4258 29.0989 29.4245 29.0989 29.4232 29.0989C29.4219 29.0989 29.4206 29.0989 29.4193 29.0989C29.418 29.0989 29.4167 29.0989 29.4155 29.0989C29.4142 29.0989 29.4129 29.0989 29.4116 29.0989C29.4103 29.0989 29.409 29.0989 29.4077 29.0989C29.4064 29.0989 29.4051 29.0989 29.4039 29.0989C29.4026 29.0989 29.4013 29.0989 29.4 29.0989C29.3987 29.0989 29.3974 29.0989 29.3961 29.0989C29.3949 29.0989 29.3936 29.0989 29.3923 29.0989C29.391 29.0989 29.3897 29.0989 29.3884 29.0989C29.3871 29.0989 29.3858 29.0989 29.3846 29.0989C29.3833 29.0989 29.382 29.0989 29.3807 29.0989C29.3794 29.0989 29.3781 29.0989 29.3768 29.0989C29.3756 29.0989 29.3743 29.0989 29.373 29.0989C29.3717 29.0989 29.3704 29.0989 29.3691 29.0989C29.3678 29.0989 29.3665 29.0989 29.3653 29.0989C29.364 29.0989 29.3627 29.0989 29.3614 29.0989C29.3601 29.0989 29.3588 29.0989 29.3576 29.0989C29.3563 29.0989 29.355 29.0989 29.3537 29.0989C29.3524 29.0989 29.3511 29.0989 29.3498 29.0989C29.3486 29.0989 29.3473 29.0989 29.346 29.0989C29.3447 29.0989 29.3434 29.0989 29.3421 29.0989C29.3409 29.0989 29.3396 29.0989 29.3383 29.0989C29.337 29.0989 29.3357 29.0989 29.3344 29.0989C29.3332 29.0989 29.3319 29.0989 29.3306 29.0989C29.3293 29.0989 29.328 29.0989 29.3267 29.0989C29.3255 29.0989 29.3242 29.0989 29.3229 29.0989C29.3216 29.0989 29.3203 29.0989 29.3191 29.0989C29.3178 29.0989 29.3165 29.0989 29.3152 29.0989C29.3139 29.0989 29.3127 29.0989 29.3114 29.0989C29.3101 29.0989 29.3088 29.0989 29.3075 29.0989C29.3063 29.0989 29.305 29.0989 29.3037 29.0989C29.3024 29.0989 29.3011 29.0989 29.2999 29.0989C29.2986 29.0989 29.2973 29.0989 29.296 29.0989C29.2947 29.0989 29.2935 29.0989 29.2922 29.0989C29.2909 29.0989 29.2896 29.0989 29.2884 29.0989C29.2871 29.0989 29.2858 29.0989 29.2845 29.0989C29.2833 29.0989 29.282 29.0989 29.2807 29.0989C29.2794 29.0989 29.2782 29.0989 29.2769 29.0989C29.2756 29.0989 29.2743 29.0989 29.2731 29.0989C29.2718 29.0989 29.2705 29.0989 29.2692 29.0989C29.268 29.0989 29.2667 29.0989 29.2654 29.0989C29.2641 29.0989 29.2629 29.0989 29.2616 29.0989C29.2603 29.0989 29.259 29.0989 29.2578 29.0989C29.2565 29.0989 29.2552 29.0989 29.254 29.0989C29.2527 29.0989 29.2514 29.0989 29.2502 29.0989C29.2489 29.0989 29.2476 29.0989 29.2463 29.0989C29.2451 29.0989 29.2438 29.0989 29.2425 29.0989C29.2413 29.0989 29.24 29.0989 29.2387 29.0989C29.2375 29.0989 29.2362 29.0989 29.2349 29.0989C29.2337 29.0989 29.2324 29.0989 29.2311 29.0989C29.2299 29.0989 29.2286 29.0989 29.2273 29.0989C29.2261 29.0989 29.2248 29.0989 29.2235 29.0989C29.2223 29.0989 29.221 29.0989 29.2197 29.0989C29.2185 29.0989 29.2172 29.0989 29.216 29.0989C29.2147 29.0989 29.2134 29.0989 29.2122 29.0989C29.2109 29.0989 29.2096 29.0989 29.2084 29.0989C29.2071 29.0989 29.2059 29.0989 29.2046 29.0989C29.2033 29.0989 29.2021 29.0989 29.2008 29.0989C29.1996 29.0989 29.1983 29.0989 29.1971 29.0989C29.1958 29.0989 29.1945 29.0989 29.1933 29.0989C29.192 29.0989 29.1908 29.0989 29.1895 29.0989C29.1883 29.0989 29.187 29.0989 29.1857 29.0989C29.1845 29.0989 29.1832 29.0989 29.182 29.0989C29.1807 29.0989 29.1795 29.0989 29.1782 29.0989C29.177 29.0989 29.1757 29.0989 29.1745 29.0989C29.1732 29.0989 29.172 29.0989 29.1707 29.0989C29.1695 29.0989 29.1682 29.0989 29.167 29.0989C29.1657 29.0989 29.1645 29.0989 29.1632 29.0989C29.162 29.0989 29.1607 29.0989 29.1595 29.0989C29.1582 29.0989 29.157 29.0989 29.1557 29.0989C29.1545 29.0989 29.1532 29.0989 29.152 29.0989C29.1508 29.0989 29.1495 29.0989 29.1483 29.0989C29.147 29.0989 29.1458 29.0989 29.1445 29.0989C29.1433 29.0989 29.1421 29.0989 29.1408 29.0989C29.1396 29.0989 29.1383 29.0989 29.1371 29.0989C29.1359 29.0989 29.1346 29.0989 29.1334 29.0989C29.1321 29.0989 29.1309 29.0989 29.1297 29.0989C29.1284 29.0989 29.1272 29.0989 29.1259 29.0989C29.1247 29.0989 29.1235 29.0989 29.1222 29.0989C29.121 29.0989 29.1198 29.0989 29.1185 29.0989C29.1173 29.0989 29.1161 29.0989 29.1148 29.0989C29.1136 29.0989 29.1124 29.0989 29.1111 29.0989C29.1099 29.0989 29.1087 29.0989 29.1075 29.0989C29.1062 29.0989 29.105 29.0989 29.1038 29.0989C29.1025 29.0989 29.1013 29.0989 29.1001 29.0989C29.0989 29.0989 29.0976 29.0989 29.0964 29.0989C29.0952 29.0989 29.094 29.0989 29.0927 29.0989C29.0915 29.0989 29.0903 29.0989 29.0891 29.0989C29.0878 29.0989 29.0866 29.0989 29.0854 29.0989C29.0842 29.0989 29.083 29.0989 29.0817 29.0989C29.0805 29.0989 29.0793 29.0989 29.0781 29.0989C29.0769 29.0989 29.0757 29.0989 29.0744 29.0989C29.0732 29.0989 29.072 29.0989 29.0708 29.0989C29.0696 29.0989 29.0684 29.0989 29.0671 29.0989C29.0659 29.0989 29.0647 29.0989 29.0635 29.0989C29.0623 29.0989 29.0611 29.0989 29.0599 29.0989C29.0587 29.0989 29.0575 29.0989 29.0562 29.0989C29.055 29.0989 29.0538 29.0989 29.0526 29.0989C29.0514 29.0989 29.0502 29.0989 29.049 29.0989C29.0478 29.0989 29.0466 29.0989 29.0454 29.0989C29.0442 29.0989 29.043 29.0989 29.0418 29.0989C29.0406 29.0989 29.0394 29.0989 29.0382 29.0989C29.037 29.0989 29.0358 29.0989 29.0346 29.0989C29.0334 29.0989 29.0322 29.0989 29.031 29.0989C29.0298 29.0989 29.0286 29.0989 29.0274 29.0989C29.0262 29.0989 29.025 29.0989 29.0238 29.0989C29.0226 29.0989 29.0214 29.0989 29.0202 29.0989C29.019 29.0989 29.0179 29.0989 29.0167 29.0989C29.0155 29.0989 29.0143 29.0989 29.0131 29.0989C29.0119 29.0989 29.0107 29.0989 29.0095 29.0989C29.0083 29.0989 29.0072 29.0989 29.006 29.0989C29.0048 29.0989 29.0036 29.0989 29.0024 29.0989V31.2989ZM26.7177 30.9997C27.4258 31.1877 28.1832 31.2989 29.0024 31.2989V29.0989C28.3865 29.0989 27.8189 29.0158 27.2823 28.8734L26.7177 30.9997Z"/>
<path class="light-fill" d="M14.6994 35.2277C14.6994 35.8352 15.1919 36.3277 15.7994 36.3277C16.4069 36.3277 16.8994 35.8352 16.8994 35.2277L14.6994 35.2277ZM17.4567 25.8794L17.4431 24.7795L17.4567 25.8794ZM27.5807 31.1844C28.1803 31.2821 28.7456 30.8752 28.8432 30.2756C28.9409 29.6759 28.534 29.1107 27.9344 29.013L27.5807 31.1844ZM16.8994 35.2277C16.8994 34.6238 16.6128 34.0573 16.3868 33.6636C16.1435 33.2399 15.8147 32.766 15.5432 32.3565C15.2535 31.9193 14.9985 31.5122 14.8149 31.1227C14.6296 30.7293 14.5533 30.4275 14.5533 30.199L12.3533 30.199C12.3533 30.8821 12.5703 31.5204 12.8248 32.0605C13.0812 32.6044 13.4127 33.1241 13.7095 33.5719C14.0246 34.0473 14.2823 34.4166 14.4789 34.759C14.6927 35.1315 14.6994 35.2543 14.6994 35.2277L16.8994 35.2277ZM14.5533 30.199C14.5533 29.4632 14.7608 28.6383 15.2155 28.0231C15.637 27.4526 16.3155 26.9936 17.4704 26.9793L17.4431 24.7795C15.6 24.8023 14.2768 25.5915 13.4461 26.7156C12.6485 27.795 12.3533 29.1113 12.3533 30.199L14.5533 30.199ZM17.4704 26.9793C19.1214 26.9589 20.4516 27.6807 22.0248 28.6597C23.5371 29.6008 25.3141 30.8153 27.5807 31.1844L27.9344 29.013C26.1945 28.7297 24.8228 27.8097 23.1871 26.7918C21.6123 25.8119 19.7953 24.7503 17.4431 24.7795L17.4704 26.9793Z"/>
<path class="light-fill" d="M22.8243 38.6231C22.7501 39.226 23.1787 39.775 23.7817 39.8492C24.3847 39.9234 24.9336 39.4948 25.0078 38.8918L22.8243 38.6231ZM25.6701 29.2663C25.6888 28.659 25.2117 28.1516 24.6045 28.1329C23.9973 28.1143 23.4899 28.5914 23.4712 29.1986L25.6701 29.2663ZM25.0078 38.8918C25.1171 38.004 25.3599 35.758 25.4587 33.8488L23.2616 33.7351C23.1666 35.5722 22.9303 37.7615 22.8243 38.6231L25.0078 38.8918ZM25.4587 33.8488C25.5554 31.9779 25.6428 30.1545 25.6701 29.2663L23.4712 29.1986C23.4447 30.0597 23.3586 31.8597 23.2616 33.7351L25.4587 33.8488Z"/>
<path class="light-stroke" d="M39.9986 24.6758H42.5" stroke-width="2.2" stroke-linecap="round"/>
<path class="dark-stroke" d="M42.5327 24.6758L45.2923 24.6758" stroke-width="2.2" stroke-linecap="round"/>
<path class="dark-stroke" d="M39.9986 33.2383L45.0667 33.2383" stroke-width="2.2" stroke-linecap="round"/>
<path class="dark-stroke" d="M48.316 33.2383L48.3441 33.2383" stroke-width="2.2" stroke-linecap="round"/>
<path class="light-stroke" d="M35.3613 28.9414H42.3359" stroke-width="2.2" stroke-linecap="round"/>
<path class="dark-stroke" d="M42.1658 28.9414L45.2923 28.9414" stroke-width="2.2" stroke-linecap="round"/>
<path class="light-fill" d="M33.8667 40.9392C33.8208 41.545 34.2747 42.0733 34.8805 42.1192C35.4862 42.165 36.0145 41.7112 36.0604 41.1054L33.8667 40.9392ZM36.5934 32.7047C36.6039 32.0973 36.1201 31.5963 35.5127 31.5857C34.9053 31.5751 34.4043 32.059 34.3937 32.6664L36.5934 32.7047ZM35.288 36.8825L36.3844 36.972L35.288 36.8825ZM34.9635 41.0223C36.0604 41.1054 36.0604 41.1054 36.0604 41.1054C36.0604 41.1053 36.0604 41.1053 36.0604 41.1053C36.0604 41.1052 36.0604 41.1051 36.0604 41.105C36.0605 41.1047 36.0605 41.1043 36.0605 41.1038C36.0606 41.1027 36.0607 41.1011 36.0609 41.0989C36.0612 41.0946 36.0617 41.0881 36.0624 41.0796C36.0637 41.0625 36.0656 41.0372 36.0681 41.0044C36.0731 40.9387 36.0804 40.8427 36.0896 40.7217C36.1081 40.4797 36.1344 40.1375 36.1654 39.7371C36.2274 38.9359 36.3084 37.9027 36.3844 36.972L34.1917 36.7931C34.1154 37.7282 34.0341 38.7649 33.972 39.5672C33.9409 39.9685 33.9146 40.3114 33.896 40.554C33.8868 40.6753 33.8794 40.7716 33.8744 40.8375C33.8719 40.8705 33.87 40.8959 33.8687 40.9131C33.868 40.9217 33.8675 40.9282 33.8672 40.9326C33.867 40.9348 33.8669 40.9364 33.8668 40.9375C33.8668 40.9381 33.8667 40.9385 33.8667 40.9388C33.8667 40.9389 33.8667 40.939 33.8667 40.9391C33.8667 40.9392 33.8667 40.9392 33.8667 40.9392C33.8667 40.9392 33.8667 40.9392 34.9635 41.0223ZM36.3844 36.972C36.4704 35.9188 36.5225 34.8523 36.5531 34.0525C36.5685 33.6517 36.5785 33.3161 36.5847 33.0801C36.5878 32.9621 36.59 32.869 36.5914 32.805C36.5921 32.773 36.5925 32.7482 36.5929 32.7314C36.593 32.7229 36.5932 32.7164 36.5932 32.7119C36.5933 32.7097 36.5933 32.708 36.5933 32.7068C36.5933 32.7062 36.5934 32.7057 36.5934 32.7053C36.5934 32.7052 36.5934 32.705 36.5934 32.7049C36.5934 32.7049 36.5934 32.7048 36.5934 32.7048C36.5934 32.7047 36.5934 32.7047 35.4935 32.6855C34.3937 32.6664 34.3937 32.6664 34.3937 32.6664C34.3937 32.6664 34.3937 32.6664 34.3937 32.6664C34.3937 32.6664 34.3937 32.6665 34.3937 32.6665C34.3937 32.6667 34.3937 32.667 34.3937 32.6674C34.3937 32.6683 34.3937 32.6696 34.3936 32.6715C34.3935 32.6752 34.3934 32.681 34.3933 32.6887C34.393 32.7041 34.3925 32.7272 34.3919 32.7576C34.3906 32.8183 34.3885 32.908 34.3855 33.0223C34.3795 33.2509 34.3697 33.5776 34.3547 33.9683C34.3247 34.7511 34.2741 35.7832 34.1917 36.7931L36.3844 36.972Z"/>
<path class="dark-fill" d="M12.7799 17.7056C14.7621 17.7056 16.3232 16.8125 16.9766 15.3604C17.0856 15.1062 17.1436 14.8739 17.1436 14.627C17.1436 14.0462 16.737 13.6541 16.1199 13.6541C15.6552 13.6541 15.3793 13.8501 15.1542 14.3439C14.6823 15.3967 13.8545 15.8977 12.7509 15.8977C11.0737 15.8977 10.0209 14.5181 10.0209 12.2818C10.0209 10.0745 11.0882 8.68774 12.7436 8.68774C13.7892 8.68774 14.6459 9.22504 15.1252 10.2924C15.3648 10.8006 15.677 11.0184 16.1707 11.0184C16.7516 11.0184 17.1364 10.6481 17.1364 10.0745C17.1364 9.81316 17.0638 9.52999 16.9186 9.25408C16.1997 7.74385 14.6823 6.87256 12.7219 6.87256C9.70864 6.87256 7.78455 8.91283 7.78455 12.2891C7.78455 15.6726 9.67234 17.7056 12.7799 17.7056Z"/>
<path class="dark-fill" d="M20.7885 17.6548C21.7615 17.6548 22.7344 17.1683 23.1701 16.3406H23.2136V16.7399C23.2572 17.3643 23.6565 17.6838 24.2301 17.6838C24.8328 17.6838 25.2612 17.3208 25.2612 16.6165V12.1802C25.2612 10.6118 23.9615 9.58082 21.9648 9.58082C20.3529 9.58082 19.104 10.1544 18.741 11.0838C18.6684 11.2435 18.6321 11.396 18.6321 11.563C18.6321 12.0422 19.0024 12.3762 19.5179 12.3762C19.8592 12.3762 20.1278 12.2455 20.3602 11.9841C20.8321 11.3742 21.2242 11.1637 21.8704 11.1637C22.6691 11.1637 23.1773 11.5848 23.1773 12.3109V12.8264L21.2169 12.9425C19.271 13.0587 18.1819 13.8792 18.1819 15.295C18.1819 16.6963 19.3073 17.6548 20.7885 17.6548ZM21.4856 16.1227C20.774 16.1227 20.2948 15.7597 20.2948 15.1788C20.2948 14.627 20.745 14.2713 21.5364 14.2132L23.1773 14.1115V14.6779C23.1773 15.5201 22.4149 16.1227 21.4856 16.1227Z"/>
<path class="dark-fill" d="M27.6935 17.6838C28.3179 17.6838 28.7536 17.3062 28.7536 16.5802V13.066C28.7536 12.0567 29.3562 11.3597 30.3074 11.3597C31.2585 11.3597 31.7377 11.9406 31.7377 12.9571V16.5802C31.7377 17.3062 32.1734 17.6838 32.7978 17.6838C33.415 17.6838 33.8579 17.3062 33.8579 16.5802V12.5142C33.8579 10.6917 32.8849 9.6026 31.1569 9.6026C29.9589 9.6026 29.1747 10.1326 28.7608 11.0983H28.7173V10.6627C28.7173 9.99468 28.2961 9.58808 27.6572 9.58808C27.0183 9.58808 26.6334 9.99468 26.6334 10.6554V16.5802C26.6334 17.3062 27.0763 17.6838 27.6935 17.6838Z"/>
<path class="dark-fill" d="M39.4269 17.6693C40.1166 17.6693 40.5232 17.2482 40.5232 16.5293V8.05606C40.5232 7.32999 40.1166 6.90886 39.4269 6.90886C38.7371 6.90886 38.3305 7.32999 38.3305 8.05606V16.5293C38.3305 17.2482 38.7371 17.6693 39.4269 17.6693Z"/>
</svg>
