<svg width="50" height="50" viewBox="0 0 50 50" fill="none" xmlns="http://www.w3.org/2000/svg">
<style>
    @media (prefers-color-scheme: dark) {
        :root {
            --color-dark: #10C2D5;
            --color-light: #6DDAD2;
        }
    }
    @media (prefers-color-scheme: light) {
        :root {
            --color-dark: #006A5F;
            --color-light: #4BBEB6;
        }
    }
    .dark-fill {
        fill: var(--color-dark);
    }
    .light-fill {
        fill: var(--color-light);
    }
</style>
<path class="light-fill" fill-rule="evenodd" clip-rule="evenodd" d="M8.91575 22.8999C9.52326 22.8999 10.0157 23.3924 10.0157 23.9999C10.0157 25.6786 9.80612 29.194 9.23169 32.6296C8.94435 34.3482 8.56046 36.0795 8.0527 37.5649C7.55804 39.0121 6.89447 40.3848 5.95924 41.2289C5.50824 41.6359 4.81267 41.6002 4.40565 41.1492C3.99862 40.6982 4.03428 40.0027 4.48528 39.5956C4.98705 39.1428 5.50366 38.2205 5.97096 36.8534C6.42517 35.5245 6.78502 33.9222 7.06181 32.2668C7.61562 28.9546 7.81575 25.5606 7.81575 23.9999C7.81575 23.3924 8.30823 22.8999 8.91575 22.8999Z"/>
<path class="dark-fill" fill-rule="evenodd" clip-rule="evenodd" d="M2.23598 38.4185C2.24647 39.1601 2.74545 39.8893 3.8615 39.8893C4.05095 39.8893 4.30835 39.8055 4.6484 39.4313C5.05694 38.9816 5.75263 38.9483 6.20226 39.3569C6.65189 39.7654 6.6852 40.4611 6.27666 40.9107C5.67196 41.5763 4.86614 42.0893 3.8615 42.0893C1.41592 42.0893 0.061846 40.2633 0.0362044 38.4496C0.0235727 37.5561 0.328223 36.6314 0.996976 35.9225C1.67942 35.1991 2.66677 34.7788 3.86149 34.7788C5.14818 34.7788 6.27815 35.4067 7.24948 36.1316C7.98292 36.6791 8.73879 37.373 9.47996 38.0534C9.71496 38.2691 9.94848 38.4835 10.1793 38.6914C12.1923 40.5044 14.2309 42.0387 16.8357 42.0387C17.5588 42.0387 18.3404 41.9571 18.9558 41.8715C19.2602 41.8292 19.5169 41.7869 19.6964 41.7554C19.786 41.7397 19.856 41.7267 19.9027 41.7179L19.9547 41.7079L19.9667 41.7055L19.9687 41.7051C20.5642 41.585 21.1445 41.9702 21.2647 42.5657C21.3849 43.1612 20.9995 43.7414 20.404 43.8616C20.3583 43.8705 20.4062 43.8612 20.404 43.8616L20.3126 43.8794C20.2568 43.8899 20.1768 43.9047 20.0765 43.9223C19.8762 43.9575 19.5934 44.004 19.2588 44.0505C18.5965 44.1427 17.7027 44.2387 16.8357 44.2387C13.32 44.2387 10.7245 42.1431 8.70705 40.3261C8.43364 40.0799 8.17343 39.8411 7.92301 39.6113C7.20599 38.9534 6.56934 38.3692 5.93357 37.8947C5.08112 37.2584 4.42785 36.9788 3.86149 36.9788C3.20316 36.9788 2.81877 37.1974 2.59727 37.4322C2.36207 37.6815 2.23055 38.0344 2.23598 38.4185Z"/>
<path class="dark-fill" fill-rule="evenodd" clip-rule="evenodd" d="M16.0486 31.0179C15.2587 31.0179 14.5414 31.3179 14.0005 31.812C13.5519 32.2218 12.8562 32.1903 12.4464 31.7418C12.0367 31.2933 12.0681 30.5975 12.5167 30.1878C13.4471 29.3378 14.6884 28.8179 16.0486 28.8179C18.9414 28.8179 21.2864 31.1629 21.2864 34.0557C21.2864 35.9396 20.2912 37.59 18.8031 38.5115C18.2866 38.8314 17.6086 38.6719 17.2888 38.1554C16.9689 37.6389 17.1284 36.9609 17.6449 36.6411C18.5125 36.1038 19.0864 35.1464 19.0864 34.0557C19.0864 32.378 17.7263 31.0179 16.0486 31.0179Z"/>
<path class="dark-fill" fill-rule="evenodd" clip-rule="evenodd" d="M25.0464 23.4077C24.4388 23.4077 23.9464 23.9002 23.9464 24.5077C23.9464 25.1152 24.4388 25.6077 25.0464 25.6077H29.6283C29.6091 26.4975 29.5678 27.726 29.5149 29.0991H29.0024C28.3865 29.0991 27.8189 29.016 27.2822 28.8735C26.6951 28.7176 26.0927 29.0673 25.9368 29.6544C25.7809 30.2416 26.1306 30.844 26.7177 30.9999C27.4258 31.1879 28.1831 31.2991 29.0024 31.2991H29.4241C29.37 32.444 29.2988 33.5821 29.2375 34.4815C29.2011 35.0137 29.1683 35.461 29.1446 35.7751C29.1327 35.9321 29.1232 36.0557 29.1166 36.1399L29.1064 36.2679C29.0575 36.8734 29.5087 37.404 30.1142 37.453C30.7197 37.5019 31.2504 37.05 31.2993 36.4445L31.3098 36.3118C31.3166 36.2257 31.3263 36.1 31.3384 35.9408C31.3624 35.6223 31.3956 35.1696 31.4323 34.6313C31.5057 33.5557 31.5936 32.1333 31.6504 30.7557C31.7322 28.7733 31.8023 26.8744 31.8286 25.6077H36.2691C36.8766 25.6077 37.3691 25.1152 37.3691 24.5077C37.3691 23.9002 36.8766 23.4077 36.2691 23.4077H25.0464Z"/>
<path class="light-fill" fill-rule="evenodd" clip-rule="evenodd" d="M22.0248 28.6596C20.4516 27.6806 19.1215 26.9588 17.4704 26.9792C16.3156 26.9935 15.637 27.4525 15.2155 28.023C14.7608 28.6382 14.5533 29.4631 14.5533 30.1989C14.5533 30.4274 14.6296 30.7292 14.815 31.1226C14.9985 31.5121 15.2536 31.9192 15.5433 32.3564C15.6017 32.4446 15.6629 32.5358 15.7253 32.6288L15.7253 32.6289L15.7253 32.6289C15.9524 32.9678 16.1959 33.3311 16.3868 33.6635C16.6128 34.0572 16.8994 34.6237 16.8994 35.2276C16.8994 35.8351 16.4069 36.3276 15.7994 36.3276C15.1919 36.3276 14.6994 35.8351 14.6994 35.2276C14.6994 35.2332 14.6991 35.2322 14.6966 35.2235C14.6874 35.1913 14.6476 35.0528 14.4789 34.7589C14.3297 34.499 14.1453 34.2236 13.9273 33.8981L13.9271 33.8979C13.8579 33.7946 13.7854 33.6863 13.7095 33.5718C13.5621 33.3493 13.4061 33.1092 13.255 32.8572C13.0976 33.2243 13.0107 33.6285 13.0107 34.0534C13.0107 35.7312 14.3708 37.0913 16.0486 37.0913C16.8149 37.0913 17.5126 36.809 18.0474 36.3412C18.5047 35.9412 19.1996 35.9877 19.5996 36.4449C19.9995 36.9022 19.9531 37.5972 19.4958 37.9971C18.5753 38.8022 17.3677 39.2913 16.0486 39.2913C13.1558 39.2913 10.8107 36.9462 10.8107 34.0534C10.8107 32.6011 11.403 31.2859 12.3563 30.3383C12.3543 30.292 12.3533 30.2455 12.3533 30.1989C12.3533 29.1112 12.6486 27.7949 13.4461 26.7155C14.2768 25.5914 15.6 24.8022 17.4431 24.7794C19.7953 24.7502 21.6123 25.8118 23.1871 26.7917C23.3047 26.8649 23.421 26.9376 23.5361 27.0096C25.022 27.9386 26.3196 28.75 27.9344 29.0129C28.534 29.1106 28.9409 29.6758 28.8433 30.2755C28.7456 30.8751 28.1804 31.282 27.5807 31.1843C26.8814 31.0704 26.2286 30.876 25.6158 30.634C25.5751 31.5461 25.5187 32.6883 25.4587 33.8487C25.3599 35.7579 25.1171 38.0039 25.0079 38.8917C24.9336 39.4947 24.3847 39.9233 23.7817 39.8491C23.1788 39.7749 22.7501 39.2259 22.8243 38.623C22.9304 37.7614 23.1666 35.5721 23.2616 33.7351C23.347 32.0847 23.4239 30.4928 23.4592 29.5477C23.097 29.3325 22.7501 29.1145 22.4162 28.9048C22.2837 28.8215 22.1533 28.7396 22.0248 28.6596Z"/>
<path class="light-fill" fill-rule="evenodd" clip-rule="evenodd" d="M38.8986 24.6757C38.8986 24.0682 39.3911 23.5757 39.9986 23.5757H42.5C43.1075 23.5757 43.6 24.0682 43.6 24.6757C43.6 25.2832 43.1075 25.7757 42.5 25.7757H39.9986C39.3911 25.7757 38.8986 25.2832 38.8986 24.6757Z"/>
<path class="dark-fill" fill-rule="evenodd" clip-rule="evenodd" d="M41.4327 24.6757C41.4327 24.0682 41.9252 23.5757 42.5327 23.5757L45.2924 23.5757C45.8999 23.5757 46.3924 24.0682 46.3924 24.6757C46.3924 25.2832 45.8999 25.7757 45.2924 25.7757L42.5327 25.7757C41.9252 25.7757 41.4327 25.2832 41.4327 24.6757Z"/>
<path class="dark-fill" fill-rule="evenodd" clip-rule="evenodd" d="M38.8986 33.2382C38.8986 32.6307 39.3911 32.1382 39.9986 32.1382L45.0667 32.1382C45.6742 32.1382 46.1667 32.6307 46.1667 33.2382C46.1667 33.8457 45.6742 34.3382 45.0667 34.3382L39.9986 34.3382C39.3911 34.3382 38.8986 33.8457 38.8986 33.2382Z"/>
<path class="light-fill" fill-rule="evenodd" clip-rule="evenodd" d="M47.216 33.2382C47.216 32.6307 47.7085 32.1382 48.316 32.1382L48.3442 32.1382C48.9517 32.1382 49.4442 32.6307 49.4442 33.2382C49.4442 33.8457 48.9517 34.3382 48.3442 34.3382L48.316 34.3382C47.7085 34.3382 47.216 33.8457 47.216 33.2382Z"/>
<path class="light-fill" fill-rule="evenodd" clip-rule="evenodd" d="M34.2613 28.9413C34.2613 28.3338 34.7538 27.8413 35.3613 27.8413H42.336C42.9435 27.8413 43.436 28.3338 43.436 28.9413C43.436 29.5488 42.9435 30.0413 42.336 30.0413H35.3613C34.7538 30.0413 34.2613 29.5488 34.2613 28.9413Z"/>
<path class="dark-fill" fill-rule="evenodd" clip-rule="evenodd" d="M41.0659 28.9413C41.0659 28.3338 41.5583 27.8413 42.1659 27.8413L45.2924 27.8413C45.8999 27.8413 46.3924 28.3338 46.3924 28.9413C46.3924 29.5488 45.8999 30.0413 45.2924 30.0413L42.1659 30.0413C41.5583 30.0413 41.0659 29.5488 41.0659 28.9413Z"/>
<path class="light-fill" fill-rule="evenodd" clip-rule="evenodd" d="M35.5127 31.5856C36.1201 31.5962 36.604 32.0972 36.5934 32.7046L36.5914 32.8049C36.59 32.8689 36.5879 32.962 36.5848 33.08C36.5786 33.316 36.5685 33.6517 36.5532 34.0524C36.5225 34.8522 36.4704 35.9187 36.3844 36.9719C36.3085 37.9026 36.2275 38.9359 36.1654 39.737C36.1344 40.1374 36.1082 40.4796 36.0897 40.7216L36.0605 41.1049C36.0605 41.1049 34.7234 41.0039 33.8667 40.9391C33.8782 40.7887 33.8961 40.5539 33.8961 40.5539C33.9146 40.3113 33.9409 39.9684 33.972 39.5671C34.0341 38.7648 34.1154 37.7281 34.1917 36.793C34.2741 35.7831 34.3248 34.751 34.3548 33.9682C34.3697 33.5776 34.3795 33.2508 34.3855 33.0222C34.3885 32.9079 34.3906 32.8182 34.3919 32.7575L34.3933 32.6886L34.3937 32.6663C34.4043 32.0589 34.9053 31.5751 35.5127 31.5856ZM33.8667 40.9391C33.8208 41.5449 34.2747 42.0732 34.8805 42.1191C35.4863 42.165 36.0146 41.7107 36.0605 41.1049C36.0605 41.1049 34.7234 41.0039 33.8667 40.9391Z"/>
<path class="dark-fill" d="M12.7799 17.7056C14.7621 17.7056 16.3232 16.8125 16.9766 15.3604C17.0856 15.1062 17.1436 14.8739 17.1436 14.627C17.1436 14.0462 16.737 13.6541 16.1199 13.6541C15.6552 13.6541 15.3793 13.8501 15.1542 14.3439C14.6823 15.3967 13.8545 15.8977 12.7509 15.8977C11.0737 15.8977 10.0209 14.5181 10.0209 12.2818C10.0209 10.0745 11.0882 8.68774 12.7436 8.68774C13.7892 8.68774 14.6459 9.22504 15.1252 10.2924C15.3648 10.8006 15.677 11.0184 16.1707 11.0184C16.7516 11.0184 17.1364 10.6481 17.1364 10.0745C17.1364 9.81316 17.0638 9.52999 16.9186 9.25408C16.1997 7.74385 14.6823 6.87256 12.7219 6.87256C9.70864 6.87256 7.78455 8.91283 7.78455 12.2891C7.78455 15.6726 9.67234 17.7056 12.7799 17.7056Z"/>
<path class="dark-fill" d="M20.7885 17.6548C21.7615 17.6548 22.7344 17.1683 23.1701 16.3406H23.2136V16.7399C23.2572 17.3643 23.6565 17.6838 24.2301 17.6838C24.8328 17.6838 25.2612 17.3208 25.2612 16.6165V12.1802C25.2612 10.6118 23.9615 9.58082 21.9648 9.58082C20.3529 9.58082 19.104 10.1544 18.741 11.0838C18.6684 11.2435 18.6321 11.396 18.6321 11.563C18.6321 12.0422 19.0024 12.3762 19.5179 12.3762C19.8592 12.3762 20.1278 12.2455 20.3602 11.9841C20.8321 11.3742 21.2242 11.1637 21.8704 11.1637C22.6691 11.1637 23.1773 11.5848 23.1773 12.3109V12.8264L21.2169 12.9425C19.271 13.0587 18.1819 13.8792 18.1819 15.295C18.1819 16.6963 19.3073 17.6548 20.7885 17.6548ZM21.4856 16.1227C20.774 16.1227 20.2948 15.7597 20.2948 15.1788C20.2948 14.627 20.745 14.2713 21.5364 14.2132L23.1773 14.1115V14.6779C23.1773 15.5201 22.4149 16.1227 21.4856 16.1227Z"/>
<path class="dark-fill" d="M27.6935 17.6838C28.3179 17.6838 28.7536 17.3062 28.7536 16.5802V13.066C28.7536 12.0567 29.3562 11.3597 30.3074 11.3597C31.2585 11.3597 31.7377 11.9406 31.7377 12.9571V16.5802C31.7377 17.3062 32.1734 17.6838 32.7978 17.6838C33.415 17.6838 33.8579 17.3062 33.8579 16.5802V12.5142C33.8579 10.6917 32.8849 9.6026 31.1569 9.6026C29.9589 9.6026 29.1747 10.1326 28.7608 11.0983H28.7173V10.6627C28.7173 9.99468 28.2961 9.58808 27.6572 9.58808C27.0183 9.58808 26.6334 9.99468 26.6334 10.6554V16.5802C26.6334 17.3062 27.0763 17.6838 27.6935 17.6838Z"/>
<path class="dark-fill" d="M39.4269 17.6693C40.1166 17.6693 40.5232 17.2482 40.5232 16.5293V8.05606C40.5232 7.32999 40.1166 6.90886 39.4269 6.90886C38.7371 6.90886 38.3305 7.32999 38.3305 8.05606V16.5293C38.3305 17.2482 38.7371 17.6693 39.4269 17.6693Z"/>
</svg>
