<svg width="24" height="24" viewBox="0 0 24 24" fill="none" xmlns="http://www.w3.org/2000/svg">
<path fill-rule="evenodd" clip-rule="evenodd" d="M11.75 2C6.34915 2 1.9747 6.37444 1.9747 11.7753C1.9747 16.1009 4.77288 19.7544 8.65856 21.0496C9.14732 21.1351 9.33061 20.8419 9.33061 20.5853C9.33061 20.3531 9.31839 19.5833 9.31839 18.7646C6.86235 19.2167 6.22695 18.1659 6.03145 17.616C5.92148 17.335 5.44493 16.4674 5.02948 16.2353C4.68735 16.052 4.19858 15.5999 5.01726 15.5877C5.78707 15.5754 6.33693 16.2964 6.52021 16.5896C7.39999 18.0681 8.80519 17.6527 9.36727 17.3961C9.4528 16.7607 9.7094 16.333 9.99044 16.0886C7.81544 15.8443 5.54268 15.0011 5.54268 11.2621C5.54268 10.199 5.92148 9.31925 6.54465 8.63498C6.4469 8.3906 6.10476 7.38863 6.6424 6.04453C6.6424 6.04453 7.46108 5.78793 9.33061 7.04649C10.1126 6.82655 10.9435 6.71658 11.7744 6.71658C12.6053 6.71658 13.4362 6.82655 14.2183 7.04649C16.0878 5.77571 16.9065 6.04453 16.9065 6.04453C17.4441 7.38863 17.102 8.3906 17.0042 8.63498C17.6274 9.31925 18.0062 10.1868 18.0062 11.2621C18.0062 15.0134 15.7212 15.8443 13.5462 16.0886C13.9006 16.3941 14.206 16.9806 14.206 17.8971C14.206 19.2045 14.1938 20.2554 14.1938 20.5853C14.1938 20.8419 14.3771 21.1474 14.8659 21.0496C18.7271 19.7544 21.5253 16.0886 21.5253 11.7753C21.5253 6.37444 17.1508 2 11.75 2Z" fill="black"/>
</svg>
