<svg width="376" height="234" viewBox="0 0 376 234" fill="none" xmlns="http://www.w3.org/2000/svg">
<path d="M142.01 56.7137C149.919 56.7137 156.485 52.9453 158.969 47.0927C159.397 46.0935 159.625 45.0657 159.625 44.0665C159.625 41.2972 157.684 39.4416 154.715 39.4416C152.517 39.4416 151.232 40.3551 150.147 42.6105C148.377 46.4932 145.608 48.3203 141.811 48.3203C136.044 48.3203 132.447 43.4384 132.447 35.359C132.447 27.3653 136.072 22.4834 141.782 22.4834C145.408 22.4834 148.177 24.3391 150.033 28.1647C151.175 30.4486 152.602 31.3907 154.915 31.3907C157.655 31.3907 159.482 29.6492 159.482 26.9656C159.482 25.7095 159.111 24.3962 158.426 23.1401C155.343 17.2875 149.462 14.09 141.668 14.09C129.506 14.09 121.769 21.941 121.769 35.3876C121.769 48.8627 129.335 56.7137 142.01 56.7137ZM173.757 56.4568C177.497 56.4568 181.294 54.7153 182.978 51.5749H183.178V52.2886C183.464 55.2577 185.376 56.6566 188.06 56.6566C190.944 56.6566 193.028 55.0293 193.028 51.5749V34.6739C193.028 28.4216 187.518 24.1678 179.21 24.1678C172.073 24.1678 166.877 26.5088 165.563 30.363C165.335 30.9625 165.249 31.4764 165.249 32.1901C165.249 34.3598 166.962 35.8729 169.389 35.8729C170.931 35.8729 172.215 35.302 173.386 34.1314C175.327 32.0188 176.526 31.3907 178.696 31.3907C181.351 31.3907 183.121 32.7611 183.121 35.2449V37.0149L175.841 37.4431C167.79 37.9285 163.308 41.1831 163.308 47.0071C163.308 52.6312 167.962 56.4568 173.757 56.4568ZM177.354 49.4908C174.928 49.4908 173.3 48.2918 173.3 46.3219C173.3 44.4947 174.813 43.2671 177.468 43.0673L183.121 42.6962V44.8373C183.121 47.6066 180.437 49.4908 177.354 49.4908ZM202.963 56.6566C205.903 56.6566 208.016 54.9437 208.016 51.4036V38.4138C208.016 34.9879 210.014 32.5612 213.24 32.5612C216.552 32.5612 218.236 34.6739 218.236 38.214V51.4036C218.236 54.9437 220.32 56.6566 223.29 56.6566C226.259 56.6566 228.343 54.9437 228.343 51.4036V36.0442C228.343 28.65 224.489 24.3106 217.551 24.3106C212.784 24.3106 209.757 26.4232 208.13 30.5343H207.93V29.3638C207.93 26.1377 205.903 24.2535 202.791 24.2535C199.68 24.2535 197.881 26.1377 197.881 29.3352V51.4036C197.881 54.9437 199.994 56.6566 202.963 56.6566ZM250.411 56.6281C253.723 56.6281 255.636 54.6582 255.636 51.1752V19.6285C255.636 16.1455 253.723 14.1757 250.411 14.1757C247.099 14.1757 245.158 16.1455 245.158 19.6285V51.1752C245.158 54.6582 247.099 56.6281 250.411 56.6281Z" fill="#006A5F"/>
<path d="M71.6884 83.1045C71.6884 79.8848 69.0783 77.2747 65.8586 77.2747C62.6388 77.2747 60.0287 79.8848 60.0287 83.1045H71.6884ZM150.631 228.184C153.787 227.547 155.829 224.472 155.192 221.316C154.555 218.16 151.48 216.118 148.324 216.755L150.631 228.184ZM28.36 203.33C18.671 203.33 14.0628 196.757 13.9689 190.119C13.921 186.729 15.0802 183.505 17.2846 181.168C19.4165 178.908 22.9072 177.073 28.3599 177.073V165.414C20.0644 165.414 13.3781 168.318 8.80334 173.167C4.30116 177.94 2.22436 184.195 2.31045 190.284C2.48462 202.604 11.6247 214.989 28.36 214.989V203.33ZM28.3599 177.073C33.3252 177.073 38.6771 179.517 45.1276 184.331C51.6064 189.167 58.1367 195.542 65.8702 202.507C80.8334 215.983 99.4996 230.936 124.618 230.936V219.276C104.327 219.276 88.6127 207.298 73.6732 193.843C66.4553 187.342 59.1539 180.251 52.1017 174.987C45.0212 169.703 37.1428 165.414 28.3599 165.414V177.073ZM124.618 230.936C130.898 230.936 137.41 230.238 142.275 229.562C144.725 229.221 146.795 228.88 148.26 228.624C148.992 228.495 149.575 228.387 149.979 228.311C150.182 228.272 150.339 228.242 150.449 228.22C150.504 228.209 150.547 228.201 150.577 228.195C150.593 228.192 150.605 228.189 150.614 228.188C150.618 228.187 150.622 228.186 150.625 228.185C150.626 228.185 150.627 228.185 150.629 228.185C150.629 228.184 150.63 228.184 150.63 228.184C150.631 228.184 150.631 228.184 149.478 222.469C148.324 216.755 148.325 216.755 148.325 216.755C148.325 216.755 148.325 216.755 148.325 216.755C148.326 216.755 148.326 216.755 148.326 216.755C148.325 216.755 148.324 216.755 148.322 216.755C148.319 216.756 148.312 216.757 148.302 216.759C148.283 216.763 148.251 216.769 148.207 216.778C148.12 216.795 147.985 216.821 147.807 216.855C147.451 216.923 146.921 217.021 146.245 217.139C144.891 217.377 142.959 217.695 140.669 218.014C136.053 218.655 130.135 219.276 124.618 219.276V230.936ZM60.0287 83.1045C60.0287 96.5148 58.0704 127.635 52.4793 155.276C49.6753 169.139 46.0358 181.717 41.4885 190.691C36.716 200.109 32.1379 203.33 28.36 203.33V214.989C39.361 214.989 46.8596 205.886 51.8891 195.961C57.1438 185.591 61.0317 171.805 63.9075 157.588C69.6763 129.068 71.6884 97.1611 71.6884 83.1045H60.0287Z" fill="#6DDAD2"/>
<path d="M150.631 228.178C153.787 227.541 155.829 224.466 155.192 221.31C154.555 218.154 151.48 216.112 148.324 216.749L150.631 228.178ZM44.5531 207.002C46.7183 204.619 46.5418 200.932 44.1588 198.767C41.7758 196.602 38.0888 196.779 35.9236 199.161L44.5531 207.002ZM28.36 203.323C18.671 203.323 14.0628 196.751 13.9689 190.113C13.921 186.723 15.0802 183.499 17.2846 181.162C19.4165 178.902 22.9072 177.067 28.3599 177.067V165.407C20.0644 165.407 13.3781 168.312 8.80334 173.161C4.30116 177.934 2.22436 184.189 2.31045 190.278C2.48462 202.598 11.6247 214.983 28.36 214.983V203.323ZM28.3599 177.067C33.3252 177.067 38.6771 179.511 45.1276 184.325C51.6064 189.161 58.1367 195.536 65.8702 202.501C80.8334 215.977 99.4996 230.93 124.618 230.93V219.27C104.327 219.27 88.6127 207.292 73.6732 193.837C66.4553 187.336 59.1539 180.245 52.1017 174.981C45.0212 169.697 37.1428 165.407 28.3599 165.407V177.067ZM124.618 230.93C130.898 230.93 137.41 230.232 142.275 229.556C144.725 229.215 146.795 228.874 148.26 228.617C148.992 228.489 149.575 228.381 149.979 228.304C150.182 228.266 150.339 228.236 150.449 228.214C150.504 228.203 150.547 228.195 150.577 228.189C150.593 228.186 150.605 228.183 150.614 228.181C150.618 228.181 150.622 228.18 150.625 228.179C150.626 228.179 150.627 228.179 150.629 228.178C150.629 228.178 150.63 228.178 150.63 228.178C150.631 228.178 150.631 228.178 149.478 222.463C148.324 216.749 148.325 216.749 148.325 216.749C148.325 216.749 148.325 216.749 148.325 216.749C148.326 216.748 148.326 216.748 148.326 216.748C148.325 216.749 148.324 216.749 148.322 216.749C148.319 216.75 148.312 216.751 148.302 216.753C148.283 216.757 148.251 216.763 148.207 216.772C148.12 216.789 147.985 216.815 147.807 216.849C147.451 216.916 146.921 217.015 146.245 217.133C144.891 217.371 142.959 217.689 140.669 218.007C136.053 218.649 130.135 219.27 124.618 219.27V230.93ZM35.9236 199.161C33.1203 202.247 30.6294 203.323 28.36 203.323V214.983C34.9498 214.983 40.3472 211.631 44.5531 207.002L35.9236 199.161Z" fill="#006A5F"/>
<circle cx="118.778" cy="157.707" r="30.6997" stroke="#006A5F" stroke-width="11.6597" stroke-linecap="round"/>
<path d="M138.98 180.823C133.582 185.545 126.514 188.406 118.778 188.406C101.823 188.406 88.0782 174.661 88.0782 157.706C88.0782 148.643 92.0054 140.498 98.251 134.878" stroke="#6DDAD2" stroke-width="11.6597" stroke-linecap="round"/>
<path d="M185.534 81.0452C182.314 81.0452 179.704 83.6553 179.704 86.875C179.704 90.0947 182.314 92.7048 185.534 92.7048V81.0452ZM268.798 92.7048C272.018 92.7048 274.628 90.0947 274.628 86.875C274.628 83.6553 272.018 81.0452 268.798 81.0452V92.7048ZM217.98 174.314C217.721 177.523 220.112 180.335 223.321 180.595C226.531 180.854 229.343 178.463 229.602 175.254L217.98 174.314ZM223.791 174.784C229.602 175.254 229.602 175.253 229.602 175.253C229.602 175.253 229.602 175.253 229.602 175.252C229.602 175.251 229.602 175.25 229.602 175.249C229.603 175.246 229.603 175.242 229.604 175.236C229.604 175.225 229.606 175.209 229.607 175.187C229.611 175.145 229.616 175.082 229.623 174.999C229.636 174.833 229.655 174.588 229.68 174.269C229.73 173.633 229.802 172.702 229.891 171.523C230.069 169.166 230.315 165.812 230.587 161.825C231.131 153.856 231.781 143.326 232.202 133.134L220.552 132.653C220.138 142.699 219.495 153.115 218.955 161.031C218.685 164.986 218.441 168.311 218.265 170.645C218.176 171.812 218.105 172.732 218.056 173.358C218.032 173.672 218.013 173.912 218 174.073C217.993 174.153 217.988 174.214 217.985 174.255C217.984 174.275 217.982 174.29 217.982 174.3C217.981 174.305 217.981 174.308 217.981 174.311C217.981 174.312 217.98 174.313 217.98 174.313C217.98 174.314 217.98 174.314 217.98 174.314C217.98 174.314 217.98 174.314 223.791 174.784ZM185.534 92.7048H227.765V81.0452H185.534V92.7048ZM227.765 92.7048H268.798V81.0452H227.765V92.7048ZM232.202 133.134C233.033 112.973 233.697 94.0831 233.594 86.7929L221.936 86.9571C222.033 93.8437 221.39 112.338 220.552 132.653L232.202 133.134Z" fill="#006A5F"/>
<path d="M111.1 166.41C111.1 169.63 113.71 172.24 116.93 172.24C120.149 172.24 122.759 169.63 122.759 166.41L111.1 166.41ZM129.226 97.0536L129.153 91.2242L129.226 97.0536ZM225.668 134.931C228.887 134.931 231.498 132.321 231.498 129.101C231.498 125.881 228.887 123.271 225.668 123.271V134.931ZM129.298 102.883C143.633 102.705 154.683 109.644 167.808 117.866C180.599 125.879 195.16 134.931 214.885 134.931V123.271C198.894 123.271 186.947 116.097 173.998 107.985C161.383 100.082 147.463 90.9972 129.153 91.2242L129.298 102.883ZM214.885 134.931C214.894 134.931 214.903 134.931 214.912 134.931C214.921 134.931 214.929 134.931 214.938 134.931C214.947 134.931 214.956 134.931 214.965 134.931C214.973 134.931 214.982 134.931 214.991 134.931C215 134.931 215.009 134.931 215.018 134.931C215.026 134.931 215.035 134.931 215.044 134.931C215.053 134.931 215.062 134.931 215.071 134.931C215.08 134.931 215.088 134.931 215.097 134.931C215.106 134.931 215.115 134.931 215.124 134.931C215.133 134.931 215.142 134.931 215.151 134.931C215.16 134.931 215.168 134.931 215.177 134.931C215.186 134.931 215.195 134.931 215.204 134.931C215.213 134.931 215.222 134.931 215.231 134.931C215.24 134.931 215.249 134.931 215.258 134.931C215.267 134.931 215.276 134.931 215.285 134.931C215.294 134.931 215.303 134.931 215.312 134.931C215.321 134.931 215.33 134.931 215.339 134.931C215.348 134.931 215.357 134.931 215.366 134.931C215.375 134.931 215.384 134.931 215.393 134.931C215.402 134.931 215.411 134.931 215.42 134.931C215.429 134.931 215.438 134.931 215.447 134.931C215.456 134.931 215.465 134.931 215.474 134.931C215.483 134.931 215.492 134.931 215.501 134.931C215.51 134.931 215.519 134.931 215.528 134.931C215.537 134.931 215.546 134.931 215.555 134.931C215.564 134.931 215.574 134.931 215.583 134.931C215.592 134.931 215.601 134.931 215.61 134.931C215.619 134.931 215.628 134.931 215.637 134.931C215.646 134.931 215.655 134.931 215.665 134.931C215.674 134.931 215.683 134.931 215.692 134.931C215.701 134.931 215.71 134.931 215.719 134.931C215.729 134.931 215.738 134.931 215.747 134.931C215.756 134.931 215.765 134.931 215.774 134.931C215.783 134.931 215.793 134.931 215.802 134.931C215.811 134.931 215.82 134.931 215.829 134.931C215.839 134.931 215.848 134.931 215.857 134.931C215.866 134.931 215.875 134.931 215.884 134.931C215.894 134.931 215.903 134.931 215.912 134.931C215.921 134.931 215.931 134.931 215.94 134.931C215.949 134.931 215.958 134.931 215.967 134.931C215.977 134.931 215.986 134.931 215.995 134.931C216.004 134.931 216.014 134.931 216.023 134.931C216.032 134.931 216.041 134.931 216.051 134.931C216.06 134.931 216.069 134.931 216.078 134.931C216.088 134.931 216.097 134.931 216.106 134.931C216.115 134.931 216.125 134.931 216.134 134.931C216.143 134.931 216.153 134.931 216.162 134.931C216.171 134.931 216.18 134.931 216.19 134.931C216.199 134.931 216.208 134.931 216.218 134.931C216.227 134.931 216.236 134.931 216.245 134.931C216.255 134.931 216.264 134.931 216.273 134.931C216.283 134.931 216.292 134.931 216.301 134.931C216.311 134.931 216.32 134.931 216.329 134.931C216.339 134.931 216.348 134.931 216.357 134.931C216.367 134.931 216.376 134.931 216.385 134.931C216.395 134.931 216.404 134.931 216.413 134.931C216.423 134.931 216.432 134.931 216.442 134.931C216.451 134.931 216.46 134.931 216.47 134.931C216.479 134.931 216.488 134.931 216.498 134.931C216.507 134.931 216.516 134.931 216.526 134.931C216.535 134.931 216.545 134.931 216.554 134.931C216.563 134.931 216.573 134.931 216.582 134.931C216.592 134.931 216.601 134.931 216.61 134.931C216.62 134.931 216.629 134.931 216.639 134.931C216.648 134.931 216.657 134.931 216.667 134.931C216.676 134.931 216.686 134.931 216.695 134.931C216.704 134.931 216.714 134.931 216.723 134.931C216.733 134.931 216.742 134.931 216.752 134.931C216.761 134.931 216.77 134.931 216.78 134.931C216.789 134.931 216.799 134.931 216.808 134.931C216.818 134.931 216.827 134.931 216.836 134.931C216.846 134.931 216.855 134.931 216.865 134.931C216.874 134.931 216.884 134.931 216.893 134.931C216.903 134.931 216.912 134.931 216.922 134.931C216.931 134.931 216.94 134.931 216.95 134.931C216.959 134.931 216.969 134.931 216.978 134.931C216.988 134.931 216.997 134.931 217.007 134.931C217.016 134.931 217.026 134.931 217.035 134.931C217.045 134.931 217.054 134.931 217.064 134.931C217.073 134.931 217.083 134.931 217.092 134.931C217.102 134.931 217.111 134.931 217.121 134.931C217.13 134.931 217.14 134.931 217.149 134.931C217.159 134.931 217.168 134.931 217.178 134.931C217.187 134.931 217.197 134.931 217.206 134.931C217.216 134.931 217.225 134.931 217.235 134.931C217.244 134.931 217.254 134.931 217.263 134.931C217.273 134.931 217.282 134.931 217.292 134.931C217.301 134.931 217.311 134.931 217.32 134.931C217.33 134.931 217.339 134.931 217.349 134.931C217.358 134.931 217.368 134.931 217.377 134.931C217.387 134.931 217.396 134.931 217.406 134.931C217.415 134.931 217.425 134.931 217.434 134.931C217.444 134.931 217.453 134.931 217.463 134.931C217.472 134.931 217.482 134.931 217.492 134.931C217.501 134.931 217.511 134.931 217.52 134.931C217.53 134.931 217.539 134.931 217.549 134.931C217.558 134.931 217.568 134.931 217.577 134.931C217.587 134.931 217.596 134.931 217.606 134.931C217.615 134.931 217.625 134.931 217.635 134.931C217.644 134.931 217.654 134.931 217.663 134.931C217.673 134.931 217.682 134.931 217.692 134.931C217.701 134.931 217.711 134.931 217.72 134.931C217.73 134.931 217.74 134.931 217.749 134.931C217.759 134.931 217.768 134.931 217.778 134.931C217.787 134.931 217.797 134.931 217.806 134.931C217.816 134.931 217.825 134.931 217.835 134.931C217.845 134.931 217.854 134.931 217.864 134.931C217.873 134.931 217.883 134.931 217.892 134.931C217.902 134.931 217.911 134.931 217.921 134.931C217.931 134.931 217.94 134.931 217.95 134.931C217.959 134.931 217.969 134.931 217.978 134.931C217.988 134.931 217.997 134.931 218.007 134.931C218.017 134.931 218.026 134.931 218.036 134.931C218.045 134.931 218.055 134.931 218.064 134.931C218.074 134.931 218.083 134.931 218.093 134.931C218.103 134.931 218.112 134.931 218.122 134.931C218.131 134.931 218.141 134.931 218.15 134.931C218.16 134.931 218.169 134.931 218.179 134.931C218.189 134.931 218.198 134.931 218.208 134.931C218.217 134.931 218.227 134.931 218.236 134.931C218.246 134.931 218.255 134.931 218.265 134.931C218.275 134.931 218.284 134.931 218.294 134.931C218.303 134.931 218.313 134.931 218.322 134.931C218.332 134.931 218.341 134.931 218.351 134.931C218.36 134.931 218.37 134.931 218.38 134.931C218.389 134.931 218.399 134.931 218.408 134.931C218.418 134.931 218.427 134.931 218.437 134.931C218.446 134.931 218.456 134.931 218.465 134.931C218.475 134.931 218.485 134.931 218.494 134.931C218.504 134.931 218.513 134.931 218.523 134.931C218.532 134.931 218.542 134.931 218.551 134.931C218.561 134.931 218.57 134.931 218.58 134.931C218.589 134.931 218.599 134.931 218.609 134.931C218.618 134.931 218.628 134.931 218.637 134.931C218.647 134.931 218.656 134.931 218.666 134.931C218.675 134.931 218.685 134.931 218.694 134.931C218.704 134.931 218.713 134.931 218.723 134.931C218.732 134.931 218.742 134.931 218.751 134.931C218.761 134.931 218.77 134.931 218.78 134.931C218.789 134.931 218.799 134.931 218.809 134.931C218.818 134.931 218.828 134.931 218.837 134.931C218.847 134.931 218.856 134.931 218.866 134.931C218.875 134.931 218.885 134.931 218.894 134.931C218.904 134.931 218.913 134.931 218.923 134.931C218.932 134.931 218.942 134.931 218.951 134.931C218.961 134.931 218.97 134.931 218.98 134.931C218.989 134.931 218.999 134.931 219.008 134.931C219.018 134.931 219.027 134.931 219.036 134.931C219.046 134.931 219.055 134.931 219.065 134.931C219.074 134.931 219.084 134.931 219.093 134.931C219.103 134.931 219.112 134.931 219.122 134.931C219.131 134.931 219.141 134.931 219.15 134.931C219.16 134.931 219.169 134.931 219.179 134.931C219.188 134.931 219.198 134.931 219.207 134.931C219.216 134.931 219.226 134.931 219.235 134.931C219.245 134.931 219.254 134.931 219.264 134.931C219.273 134.931 219.283 134.931 219.292 134.931C219.301 134.931 219.311 134.931 219.32 134.931C219.33 134.931 219.339 134.931 219.349 134.931C219.358 134.931 219.367 134.931 219.377 134.931C219.386 134.931 219.396 134.931 219.405 134.931C219.415 134.931 219.424 134.931 219.433 134.931C219.443 134.931 219.452 134.931 219.462 134.931C219.471 134.931 219.48 134.931 219.49 134.931C219.499 134.931 219.509 134.931 219.518 134.931C219.527 134.931 219.537 134.931 219.546 134.931C219.556 134.931 219.565 134.931 219.574 134.931C219.584 134.931 219.593 134.931 219.603 134.931C219.612 134.931 219.621 134.931 219.631 134.931C219.64 134.931 219.649 134.931 219.659 134.931C219.668 134.931 219.678 134.931 219.687 134.931C219.696 134.931 219.706 134.931 219.715 134.931C219.724 134.931 219.734 134.931 219.743 134.931C219.752 134.931 219.762 134.931 219.771 134.931C219.78 134.931 219.79 134.931 219.799 134.931C219.808 134.931 219.818 134.931 219.827 134.931C219.836 134.931 219.846 134.931 219.855 134.931C219.864 134.931 219.874 134.931 219.883 134.931C219.892 134.931 219.901 134.931 219.911 134.931C219.92 134.931 219.929 134.931 219.939 134.931C219.948 134.931 219.957 134.931 219.967 134.931C219.976 134.931 219.985 134.931 219.994 134.931C220.004 134.931 220.013 134.931 220.022 134.931C220.031 134.931 220.041 134.931 220.05 134.931C220.059 134.931 220.068 134.931 220.078 134.931C220.087 134.931 220.096 134.931 220.105 134.931C220.115 134.931 220.124 134.931 220.133 134.931C220.142 134.931 220.152 134.931 220.161 134.931C220.17 134.931 220.179 134.931 220.188 134.931C220.198 134.931 220.207 134.931 220.216 134.931C220.225 134.931 220.235 134.931 220.244 134.931C220.253 134.931 220.262 134.931 220.271 134.931C220.28 134.931 220.29 134.931 220.299 134.931C220.308 134.931 220.317 134.931 220.326 134.931C220.336 134.931 220.345 134.931 220.354 134.931C220.363 134.931 220.372 134.931 220.381 134.931C220.39 134.931 220.4 134.931 220.409 134.931C220.418 134.931 220.427 134.931 220.436 134.931C220.445 134.931 220.454 134.931 220.463 134.931C220.473 134.931 220.482 134.931 220.491 134.931C220.5 134.931 220.509 134.931 220.518 134.931C220.527 134.931 220.536 134.931 220.545 134.931C220.554 134.931 220.564 134.931 220.573 134.931C220.582 134.931 220.591 134.931 220.6 134.931C220.609 134.931 220.618 134.931 220.627 134.931C220.636 134.931 220.645 134.931 220.654 134.931C220.663 134.931 220.672 134.931 220.681 134.931C220.69 134.931 220.699 134.931 220.708 134.931C220.717 134.931 220.726 134.931 220.735 134.931C220.744 134.931 220.753 134.931 220.762 134.931C220.771 134.931 220.78 134.931 220.789 134.931C220.798 134.931 220.807 134.931 220.816 134.931C220.825 134.931 220.834 134.931 220.843 134.931C220.852 134.931 220.861 134.931 220.87 134.931C220.879 134.931 220.888 134.931 220.897 134.931C220.906 134.931 220.915 134.931 220.924 134.931C220.933 134.931 220.942 134.931 220.95 134.931C220.959 134.931 220.968 134.931 220.977 134.931C220.986 134.931 220.995 134.931 221.004 134.931C221.013 134.931 221.022 134.931 221.031 134.931C221.039 134.931 221.048 134.931 221.057 134.931C221.066 134.931 221.075 134.931 221.084 134.931C221.093 134.931 221.101 134.931 221.11 134.931C221.119 134.931 221.128 134.931 221.137 134.931C221.146 134.931 221.154 134.931 221.163 134.931C221.172 134.931 221.181 134.931 221.19 134.931C221.198 134.931 221.207 134.931 221.216 134.931C221.225 134.931 221.233 134.931 221.242 134.931C221.251 134.931 221.26 134.931 221.269 134.931C221.277 134.931 221.286 134.931 221.295 134.931C221.304 134.931 221.312 134.931 221.321 134.931C221.33 134.931 221.338 134.931 221.347 134.931C221.356 134.931 221.365 134.931 221.373 134.931C221.382 134.931 221.391 134.931 221.399 134.931C221.408 134.931 221.417 134.931 221.425 134.931C221.434 134.931 221.443 134.931 221.451 134.931C221.46 134.931 221.469 134.931 221.477 134.931C221.486 134.931 221.495 134.931 221.503 134.931C221.512 134.931 221.52 134.931 221.529 134.931C221.538 134.931 221.546 134.931 221.555 134.931C221.563 134.931 221.572 134.931 221.581 134.931C221.589 134.931 221.598 134.931 221.606 134.931C221.615 134.931 221.623 134.931 221.632 134.931C221.641 134.931 221.649 134.931 221.658 134.931C221.666 134.931 221.675 134.931 221.683 134.931C221.692 134.931 221.7 134.931 221.709 134.931C221.717 134.931 221.726 134.931 221.734 134.931C221.743 134.931 221.751 134.931 221.76 134.931C221.768 134.931 221.777 134.931 221.785 134.931C221.793 134.931 221.802 134.931 221.81 134.931C221.819 134.931 221.827 134.931 221.836 134.931C221.844 134.931 221.852 134.931 221.861 134.931C221.869 134.931 221.878 134.931 221.886 134.931C221.894 134.931 221.903 134.931 221.911 134.931C221.92 134.931 221.928 134.931 221.936 134.931C221.945 134.931 221.953 134.931 221.961 134.931C221.97 134.931 221.978 134.931 221.986 134.931C221.995 134.931 222.003 134.931 222.011 134.931C222.02 134.931 222.028 134.931 222.036 134.931C222.044 134.931 222.053 134.931 222.061 134.931C222.069 134.931 222.077 134.931 222.086 134.931C222.094 134.931 222.102 134.931 222.11 134.931C222.119 134.931 222.127 134.931 222.135 134.931C222.143 134.931 222.151 134.931 222.16 134.931C222.168 134.931 222.176 134.931 222.184 134.931C222.192 134.931 222.201 134.931 222.209 134.931C222.217 134.931 222.225 134.931 222.233 134.931C222.241 134.931 222.249 134.931 222.258 134.931C222.266 134.931 222.274 134.931 222.282 134.931C222.29 134.931 222.298 134.931 222.306 134.931C222.314 134.931 222.322 134.931 222.33 134.931C222.338 134.931 222.347 134.931 222.355 134.931C222.363 134.931 222.371 134.931 222.379 134.931C222.387 134.931 222.395 134.931 222.403 134.931C222.411 134.931 222.419 134.931 222.427 134.931C222.435 134.931 222.443 134.931 222.451 134.931C222.459 134.931 222.467 134.931 222.475 134.931C222.483 134.931 222.49 134.931 222.498 134.931C222.506 134.931 222.514 134.931 222.522 134.931C222.53 134.931 222.538 134.931 222.546 134.931C222.554 134.931 222.562 134.931 222.569 134.931C222.577 134.931 222.585 134.931 222.593 134.931C222.601 134.931 222.609 134.931 222.617 134.931C222.624 134.931 222.632 134.931 222.64 134.931C222.648 134.931 222.656 134.931 222.663 134.931C222.671 134.931 222.679 134.931 222.687 134.931C222.695 134.931 222.702 134.931 222.71 134.931C222.718 134.931 222.726 134.931 222.733 134.931C222.741 134.931 222.749 134.931 222.756 134.931C222.764 134.931 222.772 134.931 222.779 134.931C222.787 134.931 222.795 134.931 222.802 134.931C222.81 134.931 222.818 134.931 222.825 134.931C222.833 134.931 222.841 134.931 222.848 134.931C222.856 134.931 222.864 134.931 222.871 134.931C222.879 134.931 222.886 134.931 222.894 134.931C222.901 134.931 222.909 134.931 222.917 134.931C222.924 134.931 222.932 134.931 222.939 134.931C222.947 134.931 222.954 134.931 222.962 134.931C222.969 134.931 222.977 134.931 222.984 134.931C222.992 134.931 222.999 134.931 223.007 134.931C223.014 134.931 223.022 134.931 223.029 134.931C223.037 134.931 223.044 134.931 223.051 134.931C223.059 134.931 223.066 134.931 223.074 134.931C223.081 134.931 223.088 134.931 223.096 134.931C223.103 134.931 223.111 134.931 223.118 134.931C223.125 134.931 223.133 134.931 223.14 134.931C223.147 134.931 223.155 134.931 223.162 134.931C223.169 134.931 223.176 134.931 223.184 134.931C223.191 134.931 223.198 134.931 223.206 134.931C223.213 134.931 223.22 134.931 223.227 134.931C223.234 134.931 223.242 134.931 223.249 134.931C223.256 134.931 223.263 134.931 223.271 134.931C223.278 134.931 223.285 134.931 223.292 134.931C223.299 134.931 223.306 134.931 223.314 134.931C223.321 134.931 223.328 134.931 223.335 134.931C223.342 134.931 223.349 134.931 223.356 134.931C223.363 134.931 223.37 134.931 223.377 134.931C223.385 134.931 223.392 134.931 223.399 134.931C223.406 134.931 223.413 134.931 223.42 134.931C223.427 134.931 223.434 134.931 223.441 134.931C223.448 134.931 223.455 134.931 223.462 134.931C223.469 134.931 223.476 134.931 223.483 134.931C223.489 134.931 223.496 134.931 223.503 134.931C223.51 134.931 223.517 134.931 223.524 134.931C223.531 134.931 223.538 134.931 223.545 134.931C223.552 134.931 223.558 134.931 223.565 134.931C223.572 134.931 223.579 134.931 223.586 134.931C223.593 134.931 223.599 134.931 223.606 134.931C223.613 134.931 223.62 134.931 223.626 134.931C223.633 134.931 223.64 134.931 223.647 134.931C223.653 134.931 223.66 134.931 223.667 134.931C223.674 134.931 223.68 134.931 223.687 134.931C223.694 134.931 223.7 134.931 223.707 134.931C223.714 134.931 223.72 134.931 223.727 134.931C223.734 134.931 223.74 134.931 223.747 134.931C223.753 134.931 223.76 134.931 223.767 134.931C223.773 134.931 223.78 134.931 223.786 134.931C223.793 134.931 223.799 134.931 223.806 134.931C223.812 134.931 223.819 134.931 223.825 134.931C223.832 134.931 223.838 134.931 223.845 134.931C223.851 134.931 223.858 134.931 223.864 134.931C223.871 134.931 223.877 134.931 223.884 134.931C223.89 134.931 223.896 134.931 223.903 134.931C223.909 134.931 223.915 134.931 223.922 134.931C223.928 134.931 223.935 134.931 223.941 134.931C223.947 134.931 223.954 134.931 223.96 134.931C223.966 134.931 223.972 134.931 223.979 134.931C223.985 134.931 223.991 134.931 223.998 134.931C224.004 134.931 224.01 134.931 224.016 134.931C224.022 134.931 224.029 134.931 224.035 134.931C224.041 134.931 224.047 134.931 224.053 134.931C224.06 134.931 224.066 134.931 224.072 134.931C224.078 134.931 224.084 134.931 224.09 134.931C224.096 134.931 224.102 134.931 224.108 134.931C224.115 134.931 224.121 134.931 224.127 134.931C224.133 134.931 224.139 134.931 224.145 134.931C224.151 134.931 224.157 134.931 224.163 134.931C224.169 134.931 224.175 134.931 224.181 134.931C224.187 134.931 224.193 134.931 224.199 134.931C224.204 134.931 224.21 134.931 224.216 134.931C224.222 134.931 224.228 134.931 224.234 134.931C224.24 134.931 224.246 134.931 224.252 134.931C224.257 134.931 224.263 134.931 224.269 134.931C224.275 134.931 224.281 134.931 224.286 134.931C224.292 134.931 224.298 134.931 224.304 134.931C224.309 134.931 224.315 134.931 224.321 134.931C224.327 134.931 224.332 134.931 224.338 134.931C224.344 134.931 224.349 134.931 224.355 134.931C224.361 134.931 224.366 134.931 224.372 134.931C224.378 134.931 224.383 134.931 224.389 134.931C224.394 134.931 224.4 134.931 224.406 134.931C224.411 134.931 224.417 134.931 224.422 134.931C224.428 134.931 224.433 134.931 224.439 134.931C224.444 134.931 224.45 134.931 224.455 134.931C224.461 134.931 224.466 134.931 224.472 134.931C224.477 134.931 224.483 134.931 224.488 134.931C224.493 134.931 224.499 134.931 224.504 134.931C224.51 134.931 224.515 134.931 224.52 134.931C224.526 134.931 224.531 134.931 224.536 134.931C224.542 134.931 224.547 134.931 224.552 134.931C224.557 134.931 224.563 134.931 224.568 134.931C224.573 134.931 224.578 134.931 224.584 134.931C224.589 134.931 224.594 134.931 224.599 134.931C224.604 134.931 224.61 134.931 224.615 134.931C224.62 134.931 224.625 134.931 224.63 134.931C224.635 134.931 224.64 134.931 224.645 134.931C224.651 134.931 224.656 134.931 224.661 134.931C224.666 134.931 224.671 134.931 224.676 134.931C224.681 134.931 224.686 134.931 224.691 134.931C224.696 134.931 224.701 134.931 224.706 134.931C224.711 134.931 224.716 134.931 224.721 134.931C224.726 134.931 224.73 134.931 224.735 134.931C224.74 134.931 224.745 134.931 224.75 134.931C224.755 134.931 224.76 134.931 224.764 134.931C224.769 134.931 224.774 134.931 224.779 134.931C224.784 134.931 224.788 134.931 224.793 134.931C224.798 134.931 224.803 134.931 224.807 134.931C224.812 134.931 224.817 134.931 224.822 134.931C224.826 134.931 224.831 134.931 224.836 134.931C224.84 134.931 224.845 134.931 224.849 134.931C224.854 134.931 224.859 134.931 224.863 134.931C224.868 134.931 224.872 134.931 224.877 134.931C224.882 134.931 224.886 134.931 224.891 134.931C224.895 134.931 224.9 134.931 224.904 134.931C224.909 134.931 224.913 134.931 224.917 134.931C224.922 134.931 224.926 134.931 224.931 134.931C224.935 134.931 224.94 134.931 224.944 134.931C224.948 134.931 224.953 134.931 224.957 134.931C224.961 134.931 224.966 134.931 224.97 134.931C224.974 134.931 224.979 134.931 224.983 134.931C224.987 134.931 224.991 134.931 224.996 134.931C225 134.931 225.004 134.931 225.008 134.931C225.012 134.931 225.017 134.931 225.021 134.931C225.025 134.931 225.029 134.931 225.033 134.931C225.037 134.931 225.041 134.931 225.045 134.931C225.05 134.931 225.054 134.931 225.058 134.931C225.062 134.931 225.066 134.931 225.07 134.931C225.074 134.931 225.078 134.931 225.082 134.931C225.086 134.931 225.09 134.931 225.094 134.931C225.098 134.931 225.101 134.931 225.105 134.931C225.109 134.931 225.113 134.931 225.117 134.931C225.121 134.931 225.125 134.931 225.129 134.931C225.132 134.931 225.136 134.931 225.14 134.931C225.144 134.931 225.148 134.931 225.151 134.931C225.155 134.931 225.159 134.931 225.163 134.931C225.166 134.931 225.17 134.931 225.174 134.931C225.177 134.931 225.181 134.931 225.185 134.931C225.188 134.931 225.192 134.931 225.196 134.931C225.199 134.931 225.203 134.931 225.206 134.931C225.21 134.931 225.213 134.931 225.217 134.931C225.22 134.931 225.224 134.931 225.227 134.931C225.231 134.931 225.234 134.931 225.238 134.931C225.241 134.931 225.245 134.931 225.248 134.931C225.252 134.931 225.255 134.931 225.258 134.931C225.262 134.931 225.265 134.931 225.268 134.931C225.272 134.931 225.275 134.931 225.278 134.931C225.282 134.931 225.285 134.931 225.288 134.931C225.292 134.931 225.295 134.931 225.298 134.931C225.301 134.931 225.304 134.931 225.308 134.931C225.311 134.931 225.314 134.931 225.317 134.931C225.32 134.931 225.323 134.931 225.326 134.931C225.33 134.931 225.333 134.931 225.336 134.931C225.339 134.931 225.342 134.931 225.345 134.931C225.348 134.931 225.351 134.931 225.354 134.931C225.357 134.931 225.36 134.931 225.363 134.931C225.366 134.931 225.369 134.931 225.371 134.931C225.374 134.931 225.377 134.931 225.38 134.931C225.383 134.931 225.386 134.931 225.389 134.931C225.392 134.931 225.394 134.931 225.397 134.931C225.4 134.931 225.403 134.931 225.405 134.931C225.408 134.931 225.411 134.931 225.414 134.931C225.416 134.931 225.419 134.931 225.422 134.931C225.424 134.931 225.427 134.931 225.43 134.931C225.432 134.931 225.435 134.931 225.437 134.931C225.44 134.931 225.442 134.931 225.445 134.931C225.448 134.931 225.45 134.931 225.453 134.931C225.455 134.931 225.458 134.931 225.46 134.931C225.462 134.931 225.465 134.931 225.467 134.931C225.47 134.931 225.472 134.931 225.474 134.931C225.477 134.931 225.479 134.931 225.482 134.931C225.484 134.931 225.486 134.931 225.488 134.931C225.491 134.931 225.493 134.931 225.495 134.931C225.498 134.931 225.5 134.931 225.502 134.931C225.504 134.931 225.506 134.931 225.509 134.931C225.511 134.931 225.513 134.931 225.515 134.931C225.517 134.931 225.519 134.931 225.521 134.931C225.523 134.931 225.525 134.931 225.527 134.931C225.529 134.931 225.532 134.931 225.533 134.931C225.535 134.931 225.537 134.931 225.539 134.931C225.541 134.931 225.543 134.931 225.545 134.931C225.547 134.931 225.549 134.931 225.551 134.931C225.553 134.931 225.555 134.931 225.556 134.931C225.558 134.931 225.56 134.931 225.562 134.931C225.564 134.931 225.565 134.931 225.567 134.931C225.569 134.931 225.571 134.931 225.572 134.931C225.574 134.931 225.576 134.931 225.577 134.931C225.579 134.931 225.581 134.931 225.582 134.931C225.584 134.931 225.585 134.931 225.587 134.931C225.588 134.931 225.59 134.931 225.591 134.931C225.593 134.931 225.595 134.931 225.596 134.931C225.597 134.931 225.599 134.931 225.6 134.931C225.602 134.931 225.603 134.931 225.605 134.931C225.606 134.931 225.607 134.931 225.609 134.931C225.61 134.931 225.611 134.931 225.613 134.931C225.614 134.931 225.615 134.931 225.616 134.931C225.618 134.931 225.619 134.931 225.62 134.931C225.621 134.931 225.623 134.931 225.624 134.931C225.625 134.931 225.626 134.931 225.627 134.931C225.628 134.931 225.629 134.931 225.63 134.931C225.631 134.931 225.632 134.931 225.634 134.931C225.635 134.931 225.636 134.931 225.637 134.931C225.638 134.931 225.638 134.931 225.639 134.931C225.64 134.931 225.641 134.931 225.642 134.931C225.643 134.931 225.644 134.931 225.645 134.931C225.646 134.931 225.646 134.931 225.647 134.931C225.648 134.931 225.649 134.931 225.65 134.931C225.65 134.931 225.651 134.931 225.652 134.931C225.652 134.931 225.653 134.931 225.654 134.931C225.654 134.931 225.655 134.931 225.656 134.931C225.656 134.931 225.657 134.931 225.657 134.931C225.658 134.931 225.659 134.931 225.659 134.931C225.66 134.931 225.66 134.931 225.661 134.931C225.661 134.931 225.662 134.931 225.662 134.931C225.662 134.931 225.663 134.931 225.663 134.931C225.664 134.931 225.664 134.931 225.664 134.931C225.665 134.931 225.665 134.931 225.665 134.931C225.665 134.931 225.666 134.931 225.666 134.931C225.666 134.931 225.666 134.931 225.667 134.931C225.667 134.931 225.667 134.931 225.667 134.931C225.667 134.931 225.667 134.931 225.667 134.931C225.668 134.931 225.668 134.931 225.668 134.931C225.668 134.931 225.668 134.931 225.668 129.101C225.668 123.271 225.668 123.271 225.668 123.271C225.668 123.271 225.668 123.271 225.667 123.271C225.667 123.271 225.667 123.271 225.667 123.271C225.667 123.271 225.667 123.271 225.667 123.271C225.666 123.271 225.666 123.271 225.666 123.271C225.666 123.271 225.665 123.271 225.665 123.271C225.665 123.271 225.665 123.271 225.664 123.271C225.664 123.271 225.664 123.271 225.663 123.271C225.663 123.271 225.662 123.271 225.662 123.271C225.662 123.271 225.661 123.271 225.661 123.271C225.66 123.271 225.66 123.271 225.659 123.271C225.659 123.271 225.658 123.271 225.657 123.271C225.657 123.271 225.656 123.271 225.656 123.271C225.655 123.271 225.654 123.271 225.654 123.271C225.653 123.271 225.652 123.271 225.652 123.271C225.651 123.271 225.65 123.271 225.65 123.271C225.649 123.271 225.648 123.271 225.647 123.271C225.646 123.271 225.646 123.271 225.645 123.271C225.644 123.271 225.643 123.271 225.642 123.271C225.641 123.271 225.64 123.271 225.639 123.271C225.638 123.271 225.638 123.271 225.637 123.271C225.636 123.271 225.635 123.271 225.634 123.271C225.632 123.271 225.631 123.271 225.63 123.271C225.629 123.271 225.628 123.271 225.627 123.271C225.626 123.271 225.625 123.271 225.624 123.271C225.623 123.271 225.621 123.271 225.62 123.271C225.619 123.271 225.618 123.271 225.616 123.271C225.615 123.271 225.614 123.271 225.613 123.271C225.611 123.271 225.61 123.271 225.609 123.271C225.607 123.271 225.606 123.271 225.605 123.271C225.603 123.271 225.602 123.271 225.6 123.271C225.599 123.271 225.597 123.271 225.596 123.271C225.595 123.271 225.593 123.271 225.591 123.271C225.59 123.271 225.588 123.271 225.587 123.271C225.585 123.271 225.584 123.271 225.582 123.271C225.581 123.271 225.579 123.271 225.577 123.271C225.576 123.271 225.574 123.271 225.572 123.271C225.571 123.271 225.569 123.271 225.567 123.271C225.565 123.271 225.564 123.271 225.562 123.271C225.56 123.271 225.558 123.271 225.556 123.271C225.555 123.271 225.553 123.271 225.551 123.271C225.549 123.271 225.547 123.271 225.545 123.271C225.543 123.271 225.541 123.271 225.539 123.271C225.537 123.271 225.535 123.271 225.533 123.271C225.532 123.271 225.529 123.271 225.527 123.271C225.525 123.271 225.523 123.271 225.521 123.271C225.519 123.271 225.517 123.271 225.515 123.271C225.513 123.271 225.511 123.271 225.509 123.271C225.506 123.271 225.504 123.271 225.502 123.271C225.5 123.271 225.498 123.271 225.495 123.271C225.493 123.271 225.491 123.271 225.488 123.271C225.486 123.271 225.484 123.271 225.482 123.271C225.479 123.271 225.477 123.271 225.474 123.271C225.472 123.271 225.47 123.271 225.467 123.271C225.465 123.271 225.462 123.271 225.46 123.271C225.458 123.271 225.455 123.271 225.453 123.271C225.45 123.271 225.448 123.271 225.445 123.271C225.442 123.271 225.44 123.271 225.437 123.271C225.435 123.271 225.432 123.271 225.43 123.271C225.427 123.271 225.424 123.271 225.422 123.271C225.419 123.271 225.416 123.271 225.414 123.271C225.411 123.271 225.408 123.271 225.405 123.271C225.403 123.271 225.4 123.271 225.397 123.271C225.394 123.271 225.392 123.271 225.389 123.271C225.386 123.271 225.383 123.271 225.38 123.271C225.377 123.271 225.374 123.271 225.371 123.271C225.369 123.271 225.366 123.271 225.363 123.271C225.36 123.271 225.357 123.271 225.354 123.271C225.351 123.271 225.348 123.271 225.345 123.271C225.342 123.271 225.339 123.271 225.336 123.271C225.333 123.271 225.33 123.271 225.326 123.271C225.323 123.271 225.32 123.271 225.317 123.271C225.314 123.271 225.311 123.271 225.308 123.271C225.304 123.271 225.301 123.271 225.298 123.271C225.295 123.271 225.292 123.271 225.288 123.271C225.285 123.271 225.282 123.271 225.278 123.271C225.275 123.271 225.272 123.271 225.268 123.271C225.265 123.271 225.262 123.271 225.258 123.271C225.255 123.271 225.252 123.271 225.248 123.271C225.245 123.271 225.241 123.271 225.238 123.271C225.234 123.271 225.231 123.271 225.227 123.271C225.224 123.271 225.22 123.271 225.217 123.271C225.213 123.271 225.21 123.271 225.206 123.271C225.203 123.271 225.199 123.271 225.196 123.271C225.192 123.271 225.188 123.271 225.185 123.271C225.181 123.271 225.177 123.271 225.174 123.271C225.17 123.271 225.166 123.271 225.163 123.271C225.159 123.271 225.155 123.271 225.151 123.271C225.148 123.271 225.144 123.271 225.14 123.271C225.136 123.271 225.132 123.271 225.129 123.271C225.125 123.271 225.121 123.271 225.117 123.271C225.113 123.271 225.109 123.271 225.105 123.271C225.101 123.271 225.098 123.271 225.094 123.271C225.09 123.271 225.086 123.271 225.082 123.271C225.078 123.271 225.074 123.271 225.07 123.271C225.066 123.271 225.062 123.271 225.058 123.271C225.054 123.271 225.05 123.271 225.045 123.271C225.041 123.271 225.037 123.271 225.033 123.271C225.029 123.271 225.025 123.271 225.021 123.271C225.017 123.271 225.012 123.271 225.008 123.271C225.004 123.271 225 123.271 224.996 123.271C224.991 123.271 224.987 123.271 224.983 123.271C224.979 123.271 224.974 123.271 224.97 123.271C224.966 123.271 224.961 123.271 224.957 123.271C224.953 123.271 224.948 123.271 224.944 123.271C224.94 123.271 224.935 123.271 224.931 123.271C224.926 123.271 224.922 123.271 224.917 123.271C224.913 123.271 224.909 123.271 224.904 123.271C224.9 123.271 224.895 123.271 224.891 123.271C224.886 123.271 224.882 123.271 224.877 123.271C224.872 123.271 224.868 123.271 224.863 123.271C224.859 123.271 224.854 123.271 224.849 123.271C224.845 123.271 224.84 123.271 224.836 123.271C224.831 123.271 224.826 123.271 224.822 123.271C224.817 123.271 224.812 123.271 224.807 123.271C224.803 123.271 224.798 123.271 224.793 123.271C224.788 123.271 224.784 123.271 224.779 123.271C224.774 123.271 224.769 123.271 224.764 123.271C224.76 123.271 224.755 123.271 224.75 123.271C224.745 123.271 224.74 123.271 224.735 123.271C224.73 123.271 224.726 123.271 224.721 123.271C224.716 123.271 224.711 123.271 224.706 123.271C224.701 123.271 224.696 123.271 224.691 123.271C224.686 123.271 224.681 123.271 224.676 123.271C224.671 123.271 224.666 123.271 224.661 123.271C224.656 123.271 224.651 123.271 224.645 123.271C224.64 123.271 224.635 123.271 224.63 123.271C224.625 123.271 224.62 123.271 224.615 123.271C224.61 123.271 224.604 123.271 224.599 123.271C224.594 123.271 224.589 123.271 224.584 123.271C224.578 123.271 224.573 123.271 224.568 123.271C224.563 123.271 224.557 123.271 224.552 123.271C224.547 123.271 224.542 123.271 224.536 123.271C224.531 123.271 224.526 123.271 224.52 123.271C224.515 123.271 224.51 123.271 224.504 123.271C224.499 123.271 224.493 123.271 224.488 123.271C224.483 123.271 224.477 123.271 224.472 123.271C224.466 123.271 224.461 123.271 224.455 123.271C224.45 123.271 224.444 123.271 224.439 123.271C224.433 123.271 224.428 123.271 224.422 123.271C224.417 123.271 224.411 123.271 224.406 123.271C224.4 123.271 224.394 123.271 224.389 123.271C224.383 123.271 224.378 123.271 224.372 123.271C224.366 123.271 224.361 123.271 224.355 123.271C224.349 123.271 224.344 123.271 224.338 123.271C224.332 123.271 224.327 123.271 224.321 123.271C224.315 123.271 224.309 123.271 224.304 123.271C224.298 123.271 224.292 123.271 224.286 123.271C224.281 123.271 224.275 123.271 224.269 123.271C224.263 123.271 224.257 123.271 224.252 123.271C224.246 123.271 224.24 123.271 224.234 123.271C224.228 123.271 224.222 123.271 224.216 123.271C224.21 123.271 224.204 123.271 224.199 123.271C224.193 123.271 224.187 123.271 224.181 123.271C224.175 123.271 224.169 123.271 224.163 123.271C224.157 123.271 224.151 123.271 224.145 123.271C224.139 123.271 224.133 123.271 224.127 123.271C224.121 123.271 224.115 123.271 224.108 123.271C224.102 123.271 224.096 123.271 224.09 123.271C224.084 123.271 224.078 123.271 224.072 123.271C224.066 123.271 224.06 123.271 224.053 123.271C224.047 123.271 224.041 123.271 224.035 123.271C224.029 123.271 224.022 123.271 224.016 123.271C224.01 123.271 224.004 123.271 223.998 123.271C223.991 123.271 223.985 123.271 223.979 123.271C223.972 123.271 223.966 123.271 223.96 123.271C223.954 123.271 223.947 123.271 223.941 123.271C223.935 123.271 223.928 123.271 223.922 123.271C223.915 123.271 223.909 123.271 223.903 123.271C223.896 123.271 223.89 123.271 223.884 123.271C223.877 123.271 223.871 123.271 223.864 123.271C223.858 123.271 223.851 123.271 223.845 123.271C223.838 123.271 223.832 123.271 223.825 123.271C223.819 123.271 223.812 123.271 223.806 123.271C223.799 123.271 223.793 123.271 223.786 123.271C223.78 123.271 223.773 123.271 223.767 123.271C223.76 123.271 223.753 123.271 223.747 123.271C223.74 123.271 223.734 123.271 223.727 123.271C223.72 123.271 223.714 123.271 223.707 123.271C223.7 123.271 223.694 123.271 223.687 123.271C223.68 123.271 223.674 123.271 223.667 123.271C223.66 123.271 223.653 123.271 223.647 123.271C223.64 123.271 223.633 123.271 223.626 123.271C223.62 123.271 223.613 123.271 223.606 123.271C223.599 123.271 223.593 123.271 223.586 123.271C223.579 123.271 223.572 123.271 223.565 123.271C223.558 123.271 223.552 123.271 223.545 123.271C223.538 123.271 223.531 123.271 223.524 123.271C223.517 123.271 223.51 123.271 223.503 123.271C223.496 123.271 223.489 123.271 223.483 123.271C223.476 123.271 223.469 123.271 223.462 123.271C223.455 123.271 223.448 123.271 223.441 123.271C223.434 123.271 223.427 123.271 223.42 123.271C223.413 123.271 223.406 123.271 223.399 123.271C223.392 123.271 223.385 123.271 223.377 123.271C223.37 123.271 223.363 123.271 223.356 123.271C223.349 123.271 223.342 123.271 223.335 123.271C223.328 123.271 223.321 123.271 223.314 123.271C223.306 123.271 223.299 123.271 223.292 123.271C223.285 123.271 223.278 123.271 223.271 123.271C223.263 123.271 223.256 123.271 223.249 123.271C223.242 123.271 223.234 123.271 223.227 123.271C223.22 123.271 223.213 123.271 223.206 123.271C223.198 123.271 223.191 123.271 223.184 123.271C223.176 123.271 223.169 123.271 223.162 123.271C223.155 123.271 223.147 123.271 223.14 123.271C223.133 123.271 223.125 123.271 223.118 123.271C223.111 123.271 223.103 123.271 223.096 123.271C223.088 123.271 223.081 123.271 223.074 123.271C223.066 123.271 223.059 123.271 223.051 123.271C223.044 123.271 223.037 123.271 223.029 123.271C223.022 123.271 223.014 123.271 223.007 123.271C222.999 123.271 222.992 123.271 222.984 123.271C222.977 123.271 222.969 123.271 222.962 123.271C222.954 123.271 222.947 123.271 222.939 123.271C222.932 123.271 222.924 123.271 222.917 123.271C222.909 123.271 222.901 123.271 222.894 123.271C222.886 123.271 222.879 123.271 222.871 123.271C222.864 123.271 222.856 123.271 222.848 123.271C222.841 123.271 222.833 123.271 222.825 123.271C222.818 123.271 222.81 123.271 222.802 123.271C222.795 123.271 222.787 123.271 222.779 123.271C222.772 123.271 222.764 123.271 222.756 123.271C222.749 123.271 222.741 123.271 222.733 123.271C222.726 123.271 222.718 123.271 222.71 123.271C222.702 123.271 222.695 123.271 222.687 123.271C222.679 123.271 222.671 123.271 222.663 123.271C222.656 123.271 222.648 123.271 222.64 123.271C222.632 123.271 222.624 123.271 222.617 123.271C222.609 123.271 222.601 123.271 222.593 123.271C222.585 123.271 222.577 123.271 222.569 123.271C222.562 123.271 222.554 123.271 222.546 123.271C222.538 123.271 222.53 123.271 222.522 123.271C222.514 123.271 222.506 123.271 222.498 123.271C222.49 123.271 222.483 123.271 222.475 123.271C222.467 123.271 222.459 123.271 222.451 123.271C222.443 123.271 222.435 123.271 222.427 123.271C222.419 123.271 222.411 123.271 222.403 123.271C222.395 123.271 222.387 123.271 222.379 123.271C222.371 123.271 222.363 123.271 222.355 123.271C222.347 123.271 222.338 123.271 222.33 123.271C222.322 123.271 222.314 123.271 222.306 123.271C222.298 123.271 222.29 123.271 222.282 123.271C222.274 123.271 222.266 123.271 222.258 123.271C222.249 123.271 222.241 123.271 222.233 123.271C222.225 123.271 222.217 123.271 222.209 123.271C222.201 123.271 222.192 123.271 222.184 123.271C222.176 123.271 222.168 123.271 222.16 123.271C222.151 123.271 222.143 123.271 222.135 123.271C222.127 123.271 222.119 123.271 222.11 123.271C222.102 123.271 222.094 123.271 222.086 123.271C222.077 123.271 222.069 123.271 222.061 123.271C222.053 123.271 222.044 123.271 222.036 123.271C222.028 123.271 222.02 123.271 222.011 123.271C222.003 123.271 221.995 123.271 221.986 123.271C221.978 123.271 221.97 123.271 221.961 123.271C221.953 123.271 221.945 123.271 221.936 123.271C221.928 123.271 221.92 123.271 221.911 123.271C221.903 123.271 221.894 123.271 221.886 123.271C221.878 123.271 221.869 123.271 221.861 123.271C221.852 123.271 221.844 123.271 221.836 123.271C221.827 123.271 221.819 123.271 221.81 123.271C221.802 123.271 221.793 123.271 221.785 123.271C221.777 123.271 221.768 123.271 221.76 123.271C221.751 123.271 221.743 123.271 221.734 123.271C221.726 123.271 221.717 123.271 221.709 123.271C221.7 123.271 221.692 123.271 221.683 123.271C221.675 123.271 221.666 123.271 221.658 123.271C221.649 123.271 221.641 123.271 221.632 123.271C221.623 123.271 221.615 123.271 221.606 123.271C221.598 123.271 221.589 123.271 221.581 123.271C221.572 123.271 221.563 123.271 221.555 123.271C221.546 123.271 221.538 123.271 221.529 123.271C221.52 123.271 221.512 123.271 221.503 123.271C221.495 123.271 221.486 123.271 221.477 123.271C221.469 123.271 221.46 123.271 221.451 123.271C221.443 123.271 221.434 123.271 221.425 123.271C221.417 123.271 221.408 123.271 221.399 123.271C221.391 123.271 221.382 123.271 221.373 123.271C221.365 123.271 221.356 123.271 221.347 123.271C221.338 123.271 221.33 123.271 221.321 123.271C221.312 123.271 221.304 123.271 221.295 123.271C221.286 123.271 221.277 123.271 221.269 123.271C221.26 123.271 221.251 123.271 221.242 123.271C221.233 123.271 221.225 123.271 221.216 123.271C221.207 123.271 221.198 123.271 221.19 123.271C221.181 123.271 221.172 123.271 221.163 123.271C221.154 123.271 221.146 123.271 221.137 123.271C221.128 123.271 221.119 123.271 221.11 123.271C221.101 123.271 221.093 123.271 221.084 123.271C221.075 123.271 221.066 123.271 221.057 123.271C221.048 123.271 221.039 123.271 221.031 123.271C221.022 123.271 221.013 123.271 221.004 123.271C220.995 123.271 220.986 123.271 220.977 123.271C220.968 123.271 220.959 123.271 220.95 123.271C220.942 123.271 220.933 123.271 220.924 123.271C220.915 123.271 220.906 123.271 220.897 123.271C220.888 123.271 220.879 123.271 220.87 123.271C220.861 123.271 220.852 123.271 220.843 123.271C220.834 123.271 220.825 123.271 220.816 123.271C220.807 123.271 220.798 123.271 220.789 123.271C220.78 123.271 220.771 123.271 220.762 123.271C220.753 123.271 220.744 123.271 220.735 123.271C220.726 123.271 220.717 123.271 220.708 123.271C220.699 123.271 220.69 123.271 220.681 123.271C220.672 123.271 220.663 123.271 220.654 123.271C220.645 123.271 220.636 123.271 220.627 123.271C220.618 123.271 220.609 123.271 220.6 123.271C220.591 123.271 220.582 123.271 220.573 123.271C220.564 123.271 220.554 123.271 220.545 123.271C220.536 123.271 220.527 123.271 220.518 123.271C220.509 123.271 220.5 123.271 220.491 123.271C220.482 123.271 220.473 123.271 220.463 123.271C220.454 123.271 220.445 123.271 220.436 123.271C220.427 123.271 220.418 123.271 220.409 123.271C220.4 123.271 220.39 123.271 220.381 123.271C220.372 123.271 220.363 123.271 220.354 123.271C220.345 123.271 220.336 123.271 220.326 123.271C220.317 123.271 220.308 123.271 220.299 123.271C220.29 123.271 220.28 123.271 220.271 123.271C220.262 123.271 220.253 123.271 220.244 123.271C220.235 123.271 220.225 123.271 220.216 123.271C220.207 123.271 220.198 123.271 220.188 123.271C220.179 123.271 220.17 123.271 220.161 123.271C220.152 123.271 220.142 123.271 220.133 123.271C220.124 123.271 220.115 123.271 220.105 123.271C220.096 123.271 220.087 123.271 220.078 123.271C220.068 123.271 220.059 123.271 220.05 123.271C220.041 123.271 220.031 123.271 220.022 123.271C220.013 123.271 220.004 123.271 219.994 123.271C219.985 123.271 219.976 123.271 219.967 123.271C219.957 123.271 219.948 123.271 219.939 123.271C219.929 123.271 219.92 123.271 219.911 123.271C219.901 123.271 219.892 123.271 219.883 123.271C219.874 123.271 219.864 123.271 219.855 123.271C219.846 123.271 219.836 123.271 219.827 123.271C219.818 123.271 219.808 123.271 219.799 123.271C219.79 123.271 219.78 123.271 219.771 123.271C219.762 123.271 219.752 123.271 219.743 123.271C219.734 123.271 219.724 123.271 219.715 123.271C219.706 123.271 219.696 123.271 219.687 123.271C219.678 123.271 219.668 123.271 219.659 123.271C219.649 123.271 219.64 123.271 219.631 123.271C219.621 123.271 219.612 123.271 219.603 123.271C219.593 123.271 219.584 123.271 219.574 123.271C219.565 123.271 219.556 123.271 219.546 123.271C219.537 123.271 219.527 123.271 219.518 123.271C219.509 123.271 219.499 123.271 219.49 123.271C219.48 123.271 219.471 123.271 219.462 123.271C219.452 123.271 219.443 123.271 219.433 123.271C219.424 123.271 219.415 123.271 219.405 123.271C219.396 123.271 219.386 123.271 219.377 123.271C219.367 123.271 219.358 123.271 219.349 123.271C219.339 123.271 219.33 123.271 219.32 123.271C219.311 123.271 219.301 123.271 219.292 123.271C219.283 123.271 219.273 123.271 219.264 123.271C219.254 123.271 219.245 123.271 219.235 123.271C219.226 123.271 219.216 123.271 219.207 123.271C219.198 123.271 219.188 123.271 219.179 123.271C219.169 123.271 219.16 123.271 219.15 123.271C219.141 123.271 219.131 123.271 219.122 123.271C219.112 123.271 219.103 123.271 219.093 123.271C219.084 123.271 219.074 123.271 219.065 123.271C219.055 123.271 219.046 123.271 219.036 123.271C219.027 123.271 219.018 123.271 219.008 123.271C218.999 123.271 218.989 123.271 218.98 123.271C218.97 123.271 218.961 123.271 218.951 123.271C218.942 123.271 218.932 123.271 218.923 123.271C218.913 123.271 218.904 123.271 218.894 123.271C218.885 123.271 218.875 123.271 218.866 123.271C218.856 123.271 218.847 123.271 218.837 123.271C218.828 123.271 218.818 123.271 218.809 123.271C218.799 123.271 218.789 123.271 218.78 123.271C218.77 123.271 218.761 123.271 218.751 123.271C218.742 123.271 218.732 123.271 218.723 123.271C218.713 123.271 218.704 123.271 218.694 123.271C218.685 123.271 218.675 123.271 218.666 123.271C218.656 123.271 218.647 123.271 218.637 123.271C218.628 123.271 218.618 123.271 218.609 123.271C218.599 123.271 218.589 123.271 218.58 123.271C218.57 123.271 218.561 123.271 218.551 123.271C218.542 123.271 218.532 123.271 218.523 123.271C218.513 123.271 218.504 123.271 218.494 123.271C218.485 123.271 218.475 123.271 218.465 123.271C218.456 123.271 218.446 123.271 218.437 123.271C218.427 123.271 218.418 123.271 218.408 123.271C218.399 123.271 218.389 123.271 218.38 123.271C218.37 123.271 218.36 123.271 218.351 123.271C218.341 123.271 218.332 123.271 218.322 123.271C218.313 123.271 218.303 123.271 218.294 123.271C218.284 123.271 218.275 123.271 218.265 123.271C218.255 123.271 218.246 123.271 218.236 123.271C218.227 123.271 218.217 123.271 218.208 123.271C218.198 123.271 218.189 123.271 218.179 123.271C218.169 123.271 218.16 123.271 218.15 123.271C218.141 123.271 218.131 123.271 218.122 123.271C218.112 123.271 218.103 123.271 218.093 123.271C218.083 123.271 218.074 123.271 218.064 123.271C218.055 123.271 218.045 123.271 218.036 123.271C218.026 123.271 218.017 123.271 218.007 123.271C217.997 123.271 217.988 123.271 217.978 123.271C217.969 123.271 217.959 123.271 217.95 123.271C217.94 123.271 217.931 123.271 217.921 123.271C217.911 123.271 217.902 123.271 217.892 123.271C217.883 123.271 217.873 123.271 217.864 123.271C217.854 123.271 217.845 123.271 217.835 123.271C217.825 123.271 217.816 123.271 217.806 123.271C217.797 123.271 217.787 123.271 217.778 123.271C217.768 123.271 217.759 123.271 217.749 123.271C217.74 123.271 217.73 123.271 217.72 123.271C217.711 123.271 217.701 123.271 217.692 123.271C217.682 123.271 217.673 123.271 217.663 123.271C217.654 123.271 217.644 123.271 217.635 123.271C217.625 123.271 217.615 123.271 217.606 123.271C217.596 123.271 217.587 123.271 217.577 123.271C217.568 123.271 217.558 123.271 217.549 123.271C217.539 123.271 217.53 123.271 217.52 123.271C217.511 123.271 217.501 123.271 217.492 123.271C217.482 123.271 217.472 123.271 217.463 123.271C217.453 123.271 217.444 123.271 217.434 123.271C217.425 123.271 217.415 123.271 217.406 123.271C217.396 123.271 217.387 123.271 217.377 123.271C217.368 123.271 217.358 123.271 217.349 123.271C217.339 123.271 217.33 123.271 217.32 123.271C217.311 123.271 217.301 123.271 217.292 123.271C217.282 123.271 217.273 123.271 217.263 123.271C217.254 123.271 217.244 123.271 217.235 123.271C217.225 123.271 217.216 123.271 217.206 123.271C217.197 123.271 217.187 123.271 217.178 123.271C217.168 123.271 217.159 123.271 217.149 123.271C217.14 123.271 217.13 123.271 217.121 123.271C217.111 123.271 217.102 123.271 217.092 123.271C217.083 123.271 217.073 123.271 217.064 123.271C217.054 123.271 217.045 123.271 217.035 123.271C217.026 123.271 217.016 123.271 217.007 123.271C216.997 123.271 216.988 123.271 216.978 123.271C216.969 123.271 216.959 123.271 216.95 123.271C216.94 123.271 216.931 123.271 216.922 123.271C216.912 123.271 216.903 123.271 216.893 123.271C216.884 123.271 216.874 123.271 216.865 123.271C216.855 123.271 216.846 123.271 216.836 123.271C216.827 123.271 216.818 123.271 216.808 123.271C216.799 123.271 216.789 123.271 216.78 123.271C216.77 123.271 216.761 123.271 216.752 123.271C216.742 123.271 216.733 123.271 216.723 123.271C216.714 123.271 216.704 123.271 216.695 123.271C216.686 123.271 216.676 123.271 216.667 123.271C216.657 123.271 216.648 123.271 216.639 123.271C216.629 123.271 216.62 123.271 216.61 123.271C216.601 123.271 216.592 123.271 216.582 123.271C216.573 123.271 216.563 123.271 216.554 123.271C216.545 123.271 216.535 123.271 216.526 123.271C216.516 123.271 216.507 123.271 216.498 123.271C216.488 123.271 216.479 123.271 216.47 123.271C216.46 123.271 216.451 123.271 216.442 123.271C216.432 123.271 216.423 123.271 216.413 123.271C216.404 123.271 216.395 123.271 216.385 123.271C216.376 123.271 216.367 123.271 216.357 123.271C216.348 123.271 216.339 123.271 216.329 123.271C216.32 123.271 216.311 123.271 216.301 123.271C216.292 123.271 216.283 123.271 216.273 123.271C216.264 123.271 216.255 123.271 216.245 123.271C216.236 123.271 216.227 123.271 216.218 123.271C216.208 123.271 216.199 123.271 216.19 123.271C216.18 123.271 216.171 123.271 216.162 123.271C216.153 123.271 216.143 123.271 216.134 123.271C216.125 123.271 216.115 123.271 216.106 123.271C216.097 123.271 216.088 123.271 216.078 123.271C216.069 123.271 216.06 123.271 216.051 123.271C216.041 123.271 216.032 123.271 216.023 123.271C216.014 123.271 216.004 123.271 215.995 123.271C215.986 123.271 215.977 123.271 215.967 123.271C215.958 123.271 215.949 123.271 215.94 123.271C215.931 123.271 215.921 123.271 215.912 123.271C215.903 123.271 215.894 123.271 215.884 123.271C215.875 123.271 215.866 123.271 215.857 123.271C215.848 123.271 215.839 123.271 215.829 123.271C215.82 123.271 215.811 123.271 215.802 123.271C215.793 123.271 215.783 123.271 215.774 123.271C215.765 123.271 215.756 123.271 215.747 123.271C215.738 123.271 215.729 123.271 215.719 123.271C215.71 123.271 215.701 123.271 215.692 123.271C215.683 123.271 215.674 123.271 215.665 123.271C215.655 123.271 215.646 123.271 215.637 123.271C215.628 123.271 215.619 123.271 215.61 123.271C215.601 123.271 215.592 123.271 215.583 123.271C215.574 123.271 215.564 123.271 215.555 123.271C215.546 123.271 215.537 123.271 215.528 123.271C215.519 123.271 215.51 123.271 215.501 123.271C215.492 123.271 215.483 123.271 215.474 123.271C215.465 123.271 215.456 123.271 215.447 123.271C215.438 123.271 215.429 123.271 215.42 123.271C215.411 123.271 215.402 123.271 215.393 123.271C215.384 123.271 215.375 123.271 215.366 123.271C215.357 123.271 215.348 123.271 215.339 123.271C215.33 123.271 215.321 123.271 215.312 123.271C215.303 123.271 215.294 123.271 215.285 123.271C215.276 123.271 215.267 123.271 215.258 123.271C215.249 123.271 215.24 123.271 215.231 123.271C215.222 123.271 215.213 123.271 215.204 123.271C215.195 123.271 215.186 123.271 215.177 123.271C215.168 123.271 215.16 123.271 215.151 123.271C215.142 123.271 215.133 123.271 215.124 123.271C215.115 123.271 215.106 123.271 215.097 123.271C215.088 123.271 215.08 123.271 215.071 123.271C215.062 123.271 215.053 123.271 215.044 123.271C215.035 123.271 215.026 123.271 215.018 123.271C215.009 123.271 215 123.271 214.991 123.271C214.982 123.271 214.973 123.271 214.965 123.271C214.956 123.271 214.947 123.271 214.938 123.271C214.929 123.271 214.921 123.271 214.912 123.271C214.903 123.271 214.894 123.271 214.885 123.271V134.931ZM122.759 166.41C122.759 162.598 120.93 158.865 119.266 155.967C117.51 152.909 115.146 149.504 113.086 146.396C110.929 143.142 108.956 140.002 107.517 136.948C106.068 133.874 105.353 131.279 105.353 129.101L93.6936 129.101C93.6936 133.688 95.1545 138.067 96.9696 141.919C98.7941 145.79 101.173 149.526 103.367 152.837C105.659 156.295 107.646 159.145 109.154 161.772C110.754 164.558 111.1 165.94 111.1 166.41L122.759 166.41ZM105.353 129.101C105.353 123.269 106.986 116.629 110.722 111.572C114.283 106.753 120.001 102.998 129.298 102.883L129.153 91.2242C116.208 91.3847 107.074 96.8895 101.345 104.643C95.7911 112.159 93.6936 121.405 93.6936 129.101L105.353 129.101Z" fill="#006A5F"/>
<path d="M111.099 166.41C111.099 169.63 113.71 172.24 116.929 172.24C120.149 172.24 122.759 169.63 122.759 166.41L111.099 166.41ZM129.225 97.0536L129.153 91.2242L129.225 97.0536ZM204.712 134.112C207.89 134.629 210.886 132.473 211.403 129.295C211.921 126.117 209.764 123.121 206.586 122.604L204.712 134.112ZM122.759 166.41C122.759 162.598 120.929 158.865 119.265 155.967C117.51 152.909 115.146 149.504 113.086 146.396C110.929 143.142 108.956 140.002 107.516 136.948C106.068 133.874 105.353 131.279 105.353 129.101L93.6934 129.101C93.6934 133.688 95.1543 138.067 96.9693 141.919C98.7939 145.79 101.172 149.526 103.367 152.837C105.658 156.295 107.646 159.145 109.154 161.772C110.753 164.558 111.099 165.94 111.099 166.41L122.759 166.41ZM105.353 129.101C105.353 123.269 106.985 116.629 110.722 111.572C114.283 106.753 120 102.998 129.298 102.883L129.153 91.2242C116.208 91.3847 107.074 96.8895 101.345 104.643C95.7908 112.159 93.6934 121.405 93.6934 129.101L105.353 129.101ZM129.298 102.883C142.29 102.722 152.675 108.438 164.348 115.702C175.699 122.765 188.454 131.464 204.712 134.112L206.586 122.604C193.12 120.41 182.513 113.273 170.508 105.802C158.826 98.5328 145.861 91.017 129.153 91.2242L129.298 102.883Z" fill="#6DDAD2"/>
<path d="M171.362 191.883C170.969 195.079 173.241 197.988 176.436 198.382C179.632 198.775 182.541 196.503 182.934 193.308L171.362 191.883ZM187.832 122.107C187.931 118.889 185.402 116.2 182.184 116.101C178.966 116.002 176.277 118.53 176.178 121.748L187.832 122.107ZM182.934 193.308C183.742 186.749 185.536 170.146 186.265 156.057L174.621 155.455C173.912 169.161 172.152 185.464 171.362 191.883L182.934 193.308ZM186.265 156.057C186.983 142.172 187.63 128.668 187.832 122.107L176.178 121.748C175.98 128.166 175.34 141.545 174.621 155.455L186.265 156.057Z" fill="#6DDAD2"/>
<path d="M296.468 88.1279H335.744" stroke="#6DDAD2" stroke-width="11.6597" stroke-linecap="round"/>
<path d="M315.269 88.1279L335.744 88.1279" stroke="#006A5F" stroke-width="11.6597" stroke-linecap="round"/>
<path d="M296.468 151.658L334.07 151.658" stroke="#006A5F" stroke-width="11.6597" stroke-linecap="round"/>
<path d="M358.176 151.658L358.39 151.658" stroke="#6DDAD2" stroke-width="11.6597" stroke-linecap="round"/>
<path d="M262.062 119.777H335.744" stroke="#6DDAD2" stroke-width="11.6597" stroke-linecap="round"/>
<path d="M312.547 119.777L335.743 119.777" stroke="#006A5F" stroke-width="11.6597" stroke-linecap="round"/>
<path d="M253.299 208.96C253.056 212.17 255.462 214.97 258.672 215.213C261.883 215.456 264.682 213.051 264.926 209.84L253.299 208.96ZM268.874 147.649C268.93 144.43 266.365 141.775 263.146 141.719C259.927 141.663 257.272 144.227 257.216 147.446L268.874 147.649ZM261.52 178.686L267.33 179.16L261.52 178.686ZM259.112 209.4C264.926 209.84 264.926 209.84 264.926 209.84C264.926 209.84 264.926 209.84 264.926 209.839C264.926 209.839 264.926 209.838 264.926 209.837C264.926 209.835 264.926 209.832 264.926 209.828C264.927 209.82 264.928 209.808 264.929 209.792C264.932 209.76 264.935 209.712 264.94 209.648C264.95 209.522 264.964 209.334 264.983 209.09C265.02 208.602 265.074 207.89 265.143 206.992C265.28 205.196 265.475 202.656 265.705 199.684C266.165 193.739 266.767 186.07 267.33 179.16L255.709 178.212C255.144 185.145 254.541 192.833 254.08 198.784C253.85 201.76 253.654 204.304 253.517 206.103C253.448 207.003 253.394 207.717 253.356 208.206C253.338 208.45 253.324 208.639 253.314 208.766C253.309 208.83 253.305 208.878 253.303 208.91C253.302 208.927 253.301 208.939 253.3 208.947C253.3 208.951 253.3 208.954 253.299 208.956C253.299 208.957 253.299 208.958 253.299 208.959C253.299 208.959 253.299 208.959 253.299 208.959C253.299 208.96 253.299 208.96 259.112 209.4ZM267.33 179.16C267.964 171.392 268.35 163.516 268.576 157.6C268.69 154.638 268.764 152.157 268.81 150.414C268.833 149.542 268.849 148.855 268.859 148.384C268.864 148.148 268.868 147.966 268.87 147.842C268.871 147.781 268.872 147.733 268.873 147.701C268.873 147.685 268.873 147.672 268.873 147.664C268.873 147.659 268.873 147.656 268.873 147.654C268.873 147.652 268.873 147.651 268.873 147.651C268.874 147.65 268.874 147.65 268.874 147.65C268.874 147.649 268.874 147.649 263.045 147.548C257.216 147.446 257.216 147.446 257.216 147.446C257.216 147.446 257.216 147.446 257.216 147.446C257.216 147.447 257.216 147.447 257.216 147.448C257.216 147.449 257.216 147.452 257.215 147.455C257.215 147.462 257.215 147.472 257.215 147.487C257.214 147.515 257.214 147.558 257.212 147.616C257.21 147.732 257.207 147.905 257.202 148.132C257.192 148.587 257.177 149.256 257.154 150.107C257.109 151.811 257.037 154.245 256.925 157.154C256.702 162.98 256.325 170.673 255.709 178.212L267.33 179.16Z" fill="#6DDAD2"/>
</svg>
