<svg width="376" height="233" viewBox="0 0 376 233" fill="none" xmlns="http://www.w3.org/2000/svg">
<path d="M142.01 56.7137C149.919 56.7137 156.485 52.9453 158.969 47.0927C159.397 46.0935 159.625 45.0657 159.625 44.0665C159.625 41.2972 157.684 39.4416 154.715 39.4416C152.517 39.4416 151.232 40.3551 150.147 42.6105C148.377 46.4932 145.608 48.3203 141.811 48.3203C136.044 48.3203 132.447 43.4384 132.447 35.359C132.447 27.3653 136.072 22.4834 141.782 22.4834C145.408 22.4834 148.177 24.3391 150.033 28.1647C151.175 30.4486 152.602 31.3907 154.915 31.3907C157.655 31.3907 159.482 29.6492 159.482 26.9656C159.482 25.7095 159.111 24.3962 158.426 23.1401C155.343 17.2875 149.462 14.09 141.668 14.09C129.506 14.09 121.769 21.941 121.769 35.3876C121.769 48.8627 129.335 56.7137 142.01 56.7137ZM173.757 56.4568C177.497 56.4568 181.294 54.7153 182.978 51.5749H183.178V52.2886C183.464 55.2577 185.376 56.6566 188.06 56.6566C190.944 56.6566 193.028 55.0293 193.028 51.5749V34.6739C193.028 28.4216 187.518 24.1678 179.21 24.1678C172.073 24.1678 166.877 26.5088 165.563 30.363C165.335 30.9625 165.249 31.4764 165.249 32.1901C165.249 34.3598 166.962 35.8729 169.389 35.8729C170.931 35.8729 172.215 35.302 173.386 34.1314C175.327 32.0188 176.526 31.3907 178.696 31.3907C181.351 31.3907 183.121 32.7611 183.121 35.2449V37.0149L175.841 37.4431C167.79 37.9285 163.308 41.1831 163.308 47.0071C163.308 52.6312 167.962 56.4568 173.757 56.4568ZM177.354 49.4908C174.928 49.4908 173.3 48.2918 173.3 46.3219C173.3 44.4947 174.813 43.2671 177.468 43.0673L183.121 42.6962V44.8373C183.121 47.6066 180.437 49.4908 177.354 49.4908ZM202.963 56.6566C205.903 56.6566 208.016 54.9437 208.016 51.4036V38.4138C208.016 34.9879 210.014 32.5612 213.24 32.5612C216.552 32.5612 218.236 34.6739 218.236 38.214V51.4036C218.236 54.9437 220.32 56.6566 223.29 56.6566C226.259 56.6566 228.343 54.9437 228.343 51.4036V36.0442C228.343 28.65 224.489 24.3106 217.551 24.3106C212.784 24.3106 209.757 26.4232 208.13 30.5343H207.93V29.3638C207.93 26.1377 205.903 24.2535 202.791 24.2535C199.68 24.2535 197.881 26.1377 197.881 29.3352V51.4036C197.881 54.9437 199.994 56.6566 202.963 56.6566ZM250.411 56.6281C253.723 56.6281 255.636 54.6582 255.636 51.1752V19.6285C255.636 16.1455 253.723 14.1757 250.411 14.1757C247.099 14.1757 245.158 16.1455 245.158 19.6285V51.1752C245.158 54.6582 247.099 56.6281 250.411 56.6281Z" fill="#10C2D5"/>
<path d="M71.6884 82.1045C71.6884 78.8848 69.0783 76.2747 65.8586 76.2747C62.6388 76.2747 60.0287 78.8848 60.0287 82.1045H71.6884ZM150.631 227.184C153.787 226.547 155.829 223.472 155.192 220.316C154.555 217.16 151.48 215.118 148.324 215.755L150.631 227.184ZM28.36 202.33C18.671 202.33 14.0628 195.757 13.9689 189.119C13.921 185.729 15.0802 182.505 17.2846 180.168C19.4165 177.908 22.9072 176.073 28.3599 176.073V164.414C20.0644 164.414 13.3781 167.318 8.80334 172.167C4.30116 176.94 2.22436 183.195 2.31045 189.284C2.48462 201.604 11.6247 213.989 28.36 213.989V202.33ZM28.3599 176.073C33.3252 176.073 38.6771 178.517 45.1276 183.331C51.6064 188.167 58.1367 194.542 65.8702 201.507C80.8334 214.983 99.4996 229.936 124.618 229.936V218.276C104.327 218.276 88.6127 206.298 73.6732 192.843C66.4553 186.342 59.1539 179.251 52.1017 173.987C45.0212 168.703 37.1428 164.414 28.3599 164.414V176.073ZM124.618 229.936C130.898 229.936 137.41 229.238 142.275 228.562C144.725 228.221 146.795 227.88 148.26 227.624C148.992 227.495 149.575 227.387 149.979 227.311C150.182 227.272 150.339 227.242 150.449 227.22C150.504 227.209 150.547 227.201 150.577 227.195C150.593 227.192 150.605 227.189 150.614 227.188C150.618 227.187 150.622 227.186 150.625 227.185C150.626 227.185 150.628 227.185 150.629 227.185C150.629 227.184 150.63 227.184 150.63 227.184C150.631 227.184 150.631 227.184 149.478 221.469C148.324 215.755 148.325 215.755 148.325 215.755C148.325 215.755 148.325 215.755 148.325 215.755C148.326 215.755 148.326 215.755 148.326 215.755C148.325 215.755 148.324 215.755 148.322 215.755C148.319 215.756 148.312 215.757 148.302 215.759C148.283 215.763 148.251 215.769 148.207 215.778C148.12 215.795 147.985 215.821 147.807 215.855C147.451 215.923 146.921 216.021 146.245 216.139C144.891 216.377 142.959 216.695 140.669 217.014C136.053 217.655 130.135 218.276 124.618 218.276V229.936ZM60.0287 82.1045C60.0287 95.5148 58.0704 126.635 52.4793 154.276C49.6753 168.139 46.0358 180.717 41.4885 189.691C36.716 199.109 32.1379 202.33 28.36 202.33V213.989C39.361 213.989 46.8596 204.886 51.8891 194.961C57.1438 184.591 61.0317 170.805 63.9075 156.588C69.6763 128.068 71.6884 96.1611 71.6884 82.1045H60.0287Z" fill="#6DDAD2"/>
<path d="M149.478 221.463C149.478 221.463 136.415 224.1 124.618 224.1C79.209 224.1 55.8563 170.237 28.3599 170.237C0.863585 170.237 1.93562 208.153 28.36 208.153C32.7896 208.153 36.7337 205.939 40.2384 202.082" stroke="#10C2D5" stroke-width="11.6597" stroke-linecap="round"/>
<circle cx="118.778" cy="156.707" r="30.6997" stroke="#10C2D5" stroke-width="11.6597" stroke-linecap="round"/>
<path d="M138.98 179.823C133.582 184.545 126.514 187.406 118.778 187.406C101.823 187.406 88.0782 173.661 88.0782 156.706C88.0782 147.643 92.0055 139.498 98.251 133.878" stroke="#6DDAD2" stroke-width="11.6597" stroke-linecap="round"/>
<path d="M185.534 85.875H227.765M268.798 85.875H227.765M223.791 173.784C223.791 173.784 225.542 152.132 226.377 131.894C227.211 111.656 227.865 92.9634 227.765 85.875" stroke="#10C2D5" stroke-width="11.6597" stroke-linecap="round"/>
<path d="M116.93 165.41C116.93 156.845 99.5234 141.629 99.5234 128.101C99.5234 114.573 106.983 96.3293 129.226 96.0536C161.87 95.6489 179.169 128.101 214.885 128.101C219.378 128.101 225.668 128.101 225.668 128.101" stroke="#10C2D5" stroke-width="11.6597" stroke-linecap="round"/>
<path d="M111.099 165.41C111.099 168.63 113.71 171.24 116.929 171.24C120.149 171.24 122.759 168.63 122.759 165.41H111.099ZM129.225 96.0536L129.153 90.2242L129.225 96.0536ZM204.712 133.112C207.89 133.629 210.886 131.473 211.403 128.295C211.921 125.117 209.764 122.121 206.586 121.604L204.712 133.112ZM122.759 165.41C122.759 161.598 120.929 157.865 119.265 154.967C117.51 151.909 115.146 148.504 113.086 145.396C110.929 142.142 108.956 139.002 107.516 135.948C106.068 132.874 105.353 130.279 105.353 128.101L93.6934 128.101C93.6934 132.688 95.1543 137.067 96.9693 140.919C98.7939 144.79 101.172 148.526 103.367 151.837C105.658 155.295 107.646 158.145 109.154 160.772C110.753 163.558 111.099 164.94 111.099 165.41H122.759ZM105.353 128.101C105.353 122.269 106.985 115.629 110.722 110.572C114.283 105.753 120 101.998 129.298 101.883L129.153 90.2242C116.208 90.3847 107.074 95.8895 101.345 103.643C95.7908 111.159 93.6934 120.405 93.6934 128.101L105.353 128.101ZM129.298 101.883C142.29 101.722 152.675 107.438 164.348 114.702C175.699 121.765 188.454 130.464 204.712 133.112L206.586 121.604C193.12 119.41 182.513 112.273 170.508 104.802C158.826 97.5328 145.861 90.017 129.153 90.2242L129.298 101.883Z" fill="#6DDAD2"/>
<path d="M171.362 190.883C170.969 194.079 173.241 196.988 176.436 197.382C179.632 197.775 182.541 195.503 182.934 192.308L171.362 190.883ZM187.832 121.107C187.931 117.889 185.402 115.2 182.184 115.101C178.966 115.002 176.277 117.53 176.178 120.748L187.832 121.107ZM182.934 192.308C183.742 185.749 185.536 169.146 186.265 155.057L174.621 154.455C173.912 168.161 172.152 184.464 171.362 190.883L182.934 192.308ZM186.265 155.057C186.983 141.172 187.63 127.668 187.832 121.107L176.178 120.748C175.98 127.166 175.34 140.545 174.621 154.455L186.265 155.057Z" fill="#6DDAD2"/>
<path d="M296.468 87.1279H335.744" stroke="#6DDAD2" stroke-width="11.6597" stroke-linecap="round"/>
<path d="M315.269 87.1279L335.744 87.1279" stroke="#10C2D5" stroke-width="11.6597" stroke-linecap="round"/>
<path d="M296.468 150.658L334.07 150.658" stroke="#10C2D5" stroke-width="11.6597" stroke-linecap="round"/>
<path d="M358.176 150.658L358.39 150.658" stroke="#6DDAD2" stroke-width="11.6597" stroke-linecap="round"/>
<path d="M262.062 118.777H335.744" stroke="#6DDAD2" stroke-width="11.6597" stroke-linecap="round"/>
<path d="M312.547 118.777L335.743 118.777" stroke="#10C2D5" stroke-width="11.6597" stroke-linecap="round"/>
<path d="M253.299 207.96C253.056 211.17 255.462 213.97 258.672 214.213C261.883 214.456 264.682 212.051 264.926 208.84L253.299 207.96ZM268.874 146.649C268.93 143.43 266.365 140.775 263.146 140.719C259.927 140.663 257.272 143.227 257.216 146.446L268.874 146.649ZM261.52 177.686L267.33 178.16L261.52 177.686ZM259.112 208.4C264.926 208.84 264.926 208.84 264.926 208.84C264.926 208.84 264.926 208.84 264.926 208.839C264.926 208.839 264.926 208.838 264.926 208.837C264.926 208.835 264.926 208.832 264.926 208.828C264.927 208.82 264.928 208.808 264.929 208.792C264.932 208.76 264.935 208.712 264.94 208.648C264.95 208.522 264.964 208.334 264.983 208.09C265.02 207.602 265.074 206.89 265.143 205.992C265.28 204.196 265.475 201.656 265.705 198.684C266.165 192.739 266.767 185.07 267.33 178.16L255.709 177.212C255.144 184.145 254.541 191.833 254.08 197.784C253.85 200.76 253.654 203.304 253.517 205.103C253.448 206.003 253.394 206.717 253.356 207.206C253.338 207.45 253.324 207.639 253.314 207.766C253.309 207.83 253.305 207.878 253.303 207.91C253.302 207.927 253.301 207.939 253.3 207.947C253.3 207.951 253.3 207.954 253.299 207.956C253.299 207.957 253.299 207.958 253.299 207.959C253.299 207.959 253.299 207.959 253.299 207.959C253.299 207.96 253.299 207.96 259.112 208.4ZM267.33 178.16C267.964 170.392 268.35 162.516 268.576 156.6C268.69 153.638 268.764 151.157 268.81 149.414C268.833 148.542 268.849 147.855 268.859 147.384C268.864 147.148 268.868 146.966 268.87 146.842C268.871 146.781 268.872 146.733 268.873 146.701C268.873 146.685 268.873 146.672 268.873 146.664C268.873 146.659 268.873 146.656 268.873 146.654C268.873 146.652 268.873 146.651 268.873 146.651C268.874 146.65 268.874 146.65 268.874 146.65C268.874 146.649 268.874 146.649 263.045 146.548C257.216 146.446 257.216 146.446 257.216 146.446C257.216 146.446 257.216 146.446 257.216 146.446C257.216 146.447 257.216 146.447 257.216 146.448C257.216 146.449 257.216 146.452 257.215 146.455C257.215 146.462 257.215 146.472 257.215 146.487C257.214 146.515 257.214 146.558 257.212 146.616C257.21 146.732 257.207 146.905 257.202 147.132C257.192 147.587 257.177 148.256 257.154 149.107C257.109 150.811 257.037 153.245 256.925 156.154C256.702 161.98 256.325 169.673 255.709 177.212L267.33 178.16Z" fill="#6DDAD2"/>
</svg>
