<svg width="376" height="224" viewBox="0 0 376 224" fill="none" xmlns="http://www.w3.org/2000/svg">
<style>
    @media (prefers-color-scheme: dark) {
        :root {
            --color-dark: #10C2D5;
            --color-light: #6DDAD2;
        }
    }
    @media (prefers-color-scheme: light) {
        :root {
            --color-dark: #006A5F;
            --color-light: #6DDAD2;
        }
    }
    .dark-fill {
        fill: var(--color-dark);
    }
    .light-fill {
        fill: var(--color-light);
    }
</style>
<path class="dark-fill" d="M141.01 46.7136C148.919 46.7136 155.485 42.9451 157.969 37.0925C158.397 36.0933 158.625 35.0655 158.625 34.0663C158.625 31.2971 156.684 29.4414 153.715 29.4414C151.517 29.4414 150.232 30.355 149.147 32.6103C147.377 36.493 144.608 38.3201 140.811 38.3201C135.044 38.3201 131.447 33.4382 131.447 25.3589C131.447 17.3651 135.072 12.4833 140.782 12.4833C144.408 12.4833 147.177 14.3389 149.033 18.1645C150.175 20.4484 151.602 21.3906 153.915 21.3906C156.655 21.3906 158.483 19.6491 158.483 16.9655C158.483 15.7093 158.111 14.396 157.426 13.1399C154.343 7.28734 148.462 4.08984 140.668 4.08984C128.506 4.08984 120.769 11.9408 120.769 25.3874C120.769 38.8626 128.335 46.7136 141.01 46.7136Z"/>
<path class="dark-fill" d="M172.757 46.4566C176.497 46.4566 180.294 44.7151 181.978 41.5747H182.178V42.2884C182.464 45.2575 184.376 46.6565 187.06 46.6565C189.944 46.6565 192.028 45.0292 192.028 41.5747V24.6737C192.028 18.4215 186.518 14.1677 178.21 14.1677C171.073 14.1677 165.877 16.5087 164.563 20.3628C164.335 20.9623 164.249 21.4762 164.249 22.1899C164.249 24.3597 165.962 25.8728 168.389 25.8728C169.931 25.8728 171.215 25.3018 172.386 24.1313C174.327 22.0186 175.526 21.3906 177.696 21.3906C180.351 21.3906 182.121 22.7609 182.121 25.2447V27.0147L174.841 27.443C166.79 27.9283 162.308 31.1829 162.308 37.0069C162.308 42.631 166.962 46.4566 172.757 46.4566ZM176.354 39.4906C173.928 39.4906 172.3 38.2916 172.3 36.3217C172.3 34.4946 173.813 33.267 176.468 33.0671L182.121 32.696V34.8372C182.121 37.6064 179.437 39.4906 176.354 39.4906Z"/>
<path class="dark-fill" d="M201.963 46.6565C204.903 46.6565 207.016 44.9435 207.016 41.4034V28.4136C207.016 24.9877 209.014 22.5611 212.24 22.5611C215.552 22.5611 217.236 24.6737 217.236 28.2138V41.4034C217.236 44.9435 219.32 46.6565 222.29 46.6565C225.259 46.6565 227.343 44.9435 227.343 41.4034V26.044C227.343 18.6498 223.489 14.3104 216.551 14.3104C211.784 14.3104 208.757 16.423 207.13 20.5341H206.93V19.3636C206.93 16.1375 204.903 14.2533 201.791 14.2533C198.68 14.2533 196.881 16.1375 196.881 19.335V41.4034C196.881 44.9435 198.994 46.6565 201.963 46.6565Z"/>
<path class="dark-fill" d="M249.411 46.6279C252.723 46.6279 254.636 44.658 254.636 41.175V9.62836C254.636 6.14537 252.723 4.17549 249.411 4.17549C246.099 4.17549 244.158 6.14537 244.158 9.62836V41.175C244.158 44.658 246.099 46.6279 249.411 46.6279Z"/>
<path class="light-fill" fill-rule="evenodd" clip-rule="evenodd" d="M68.8586 67.2749C72.0783 67.2749 74.6884 69.885 74.6884 73.1047C74.6884 85.4261 73.1453 111.351 68.912 136.693C66.7947 149.368 63.9766 162.07 60.2726 172.925C56.6374 183.578 51.8795 193.286 45.4171 199.149C43.0324 201.312 39.3456 201.133 37.1822 198.748C35.0188 196.364 35.1982 192.677 37.5829 190.514C41.7639 186.72 45.7476 179.387 49.2377 169.159C52.6591 159.133 55.3502 147.113 57.4117 134.772C61.536 110.083 63.0287 84.8009 63.0287 73.1047C63.0287 69.885 65.6388 67.2749 68.8586 67.2749Z"/>
<path class="dark-fill" fill-rule="evenodd" clip-rule="evenodd" d="M16.9689 180.113C17.0628 186.751 21.6709 193.323 31.36 193.323C33.6294 193.323 36.1203 192.247 38.9236 189.161C41.0888 186.778 44.7758 186.602 47.1588 188.767C49.5418 190.932 49.7183 194.619 47.5531 197.002C43.3471 201.631 37.9498 204.983 31.36 204.983C14.6246 204.983 5.48461 192.597 5.31043 180.277C5.22434 174.188 7.30114 167.933 11.8033 163.161C16.3781 158.312 23.0644 155.407 31.3599 155.407C40.1428 155.407 48.0211 159.696 55.1017 164.981C60.4388 168.965 65.9186 173.995 71.397 179.024C73.1575 180.64 74.9178 182.256 76.6731 183.836C91.6127 197.292 107.327 209.27 127.618 209.27C133.135 209.27 139.053 208.649 143.669 208.007C145.959 207.689 147.891 207.37 149.245 207.133C149.921 207.014 150.451 206.916 150.807 206.849C150.985 206.815 151.12 206.789 151.207 206.772L151.302 206.753L151.324 206.749C154.48 206.111 157.555 208.154 158.192 211.31C158.829 214.466 156.787 217.541 153.631 218.178C153.631 218.175 153.63 218.178 153.63 218.178L153.629 218.178L153.614 218.181L153.577 218.188L153.449 218.214C153.339 218.235 153.182 218.266 152.979 218.304C152.575 218.381 151.992 218.489 151.26 218.617C149.795 218.874 147.725 219.215 145.275 219.556C140.41 220.232 133.898 220.93 127.618 220.93C102.5 220.93 83.8334 205.977 68.8702 192.5C66.8895 190.716 64.9878 188.971 63.1456 187.281C57.795 182.371 52.947 177.922 48.1276 174.325C41.6771 169.511 36.3252 167.067 31.3599 167.067C25.9072 167.067 22.4165 168.902 20.2846 171.162C18.0802 173.499 16.921 176.723 16.9689 180.113Z"/>
<path class="dark-fill" fill-rule="evenodd" clip-rule="evenodd" d="M121.778 122.837C116.75 122.837 112.086 124.323 108.181 126.878C105.487 128.641 101.874 127.887 100.111 125.193C98.3479 122.498 99.1027 118.885 101.797 117.122C107.541 113.363 114.413 111.177 121.778 111.177C141.953 111.177 158.307 127.532 158.307 147.707C158.307 159.127 153.06 169.327 144.866 176.016C142.372 178.052 138.699 177.681 136.663 175.187C134.627 172.693 134.998 169.02 137.492 166.984C143.09 162.414 146.648 155.478 146.648 147.707C146.648 133.972 135.513 122.837 121.778 122.837Z"/>
<path class="dark-fill" fill-rule="evenodd" clip-rule="evenodd" d="M188.534 71.0454C185.314 71.0454 182.704 73.6555 182.704 76.8752C182.704 80.095 185.314 82.7051 188.534 82.7051H224.905C224.785 89.8789 224.414 100.9 223.929 113.271H217.885C214.109 113.271 210.569 112.869 207.204 112.158C204.054 111.493 200.961 113.508 200.296 116.658C199.631 119.808 201.645 122.901 204.795 123.566C208.919 124.437 213.266 124.931 217.885 124.931H223.454C223.041 134.256 222.454 143.712 221.955 151.031C221.685 154.986 221.441 158.311 221.265 160.646C221.176 161.813 221.105 162.732 221.056 163.359C221.032 163.672 221.013 163.912 221 164.073L220.98 164.314C220.721 167.523 223.112 170.335 226.321 170.595C229.531 170.854 232.343 168.463 232.602 165.254C232.631 164.895 232.6 165.289 232.655 164.592C232.662 164.495 232.671 164.387 232.68 164.27C232.73 163.633 232.802 162.703 232.891 161.524C233.069 159.166 233.315 155.813 233.587 151.825C234.131 143.856 234.781 133.326 235.202 123.134C235.861 107.138 236.416 91.9421 236.565 82.7051H271.798C275.018 82.7051 277.628 80.095 277.628 76.8752C277.628 73.6555 275.018 71.0454 271.798 71.0454H188.534Z"/>
<path class="light-fill" fill-rule="evenodd" clip-rule="evenodd" d="M167.348 105.702C155.675 98.4378 145.29 92.7221 132.298 92.8832C123 92.9984 117.283 96.7532 113.722 101.572C109.985 106.629 108.353 113.27 108.353 119.101C108.353 121.279 109.068 123.874 110.516 126.948C111.956 130.002 113.929 133.142 116.086 136.396C116.536 137.076 117.001 137.77 117.471 138.471L117.472 138.472L117.472 138.473C119.151 140.978 120.894 143.578 122.265 145.967C123.929 148.866 125.759 152.598 125.759 156.41C125.759 159.63 123.149 162.24 119.929 162.24C116.71 162.24 114.099 159.63 114.099 156.41C114.099 155.94 113.753 154.559 112.154 151.772C111.003 149.768 109.574 147.634 107.943 145.199L107.942 145.199C107.436 144.442 106.91 143.657 106.367 142.838C104.571 140.128 102.651 137.133 101.013 134.012C98.416 137.941 96.908 142.645 96.908 147.706C96.908 161.441 108.043 172.576 121.778 172.576C128.049 172.576 133.765 170.263 138.142 166.434C140.566 164.314 144.249 164.561 146.368 166.984C148.488 169.408 148.242 173.091 145.818 175.21C139.398 180.826 130.979 184.236 121.778 184.236C101.603 184.236 85.2484 167.881 85.2484 147.706C85.2484 137.201 89.6901 127.725 96.7809 121.068C96.7236 120.418 96.6934 119.762 96.6934 119.101C96.6934 111.405 98.7908 102.159 104.345 94.6432C110.074 86.8898 119.208 81.3849 132.153 81.2244C148.861 81.0173 161.826 88.533 173.508 95.8026C174.402 96.3589 175.289 96.9138 176.17 97.4645C187.109 104.309 197.123 110.574 209.586 112.604C212.764 113.121 214.921 116.117 214.403 119.295C213.885 122.473 210.89 124.629 207.712 124.112C201.532 123.105 195.858 121.225 190.575 118.892C190.272 126.062 189.787 135.959 189.265 146.057C188.536 160.145 186.742 176.749 185.934 183.308C185.541 186.503 182.632 188.775 179.436 188.382C176.241 187.988 173.969 185.079 174.362 181.883C175.152 175.463 176.912 159.16 177.621 145.455C178.298 132.371 178.904 119.756 179.138 112.964C176.051 111.161 173.092 109.303 170.229 107.505C169.258 106.896 168.298 106.293 167.348 105.702Z"/>
<path class="light-fill" fill-rule="evenodd" clip-rule="evenodd" d="M293.639 78.1282C293.639 74.9084 296.249 72.2983 299.468 72.2983H318C321.22 72.2983 323.83 74.9084 323.83 78.1282C323.83 81.3479 321.22 83.958 318 83.958H299.468C296.249 83.958 293.639 81.3479 293.639 78.1282Z"/>
<path class="dark-fill" fill-rule="evenodd" clip-rule="evenodd" d="M312.439 78.1282C312.439 74.9084 315.049 72.2983 318.269 72.2983L338.744 72.2983C341.963 72.2983 344.573 74.9084 344.573 78.1282C344.573 81.3479 341.963 83.958 338.744 83.958L318.269 83.958C315.049 83.958 312.439 81.3479 312.439 78.1282Z"/>
<path class="dark-fill" fill-rule="evenodd" clip-rule="evenodd" d="M293.638 141.658C293.638 138.438 296.249 135.828 299.468 135.828L337.07 135.828C340.289 135.828 342.899 138.438 342.899 141.658C342.899 144.878 340.289 147.488 337.07 147.488L299.468 147.488C296.249 147.488 293.638 144.878 293.638 141.658Z"/>
<path class="light-fill" fill-rule="evenodd" clip-rule="evenodd" d="M355.346 141.658C355.346 138.438 357.956 135.828 361.176 135.828L361.39 135.828C364.61 135.828 367.22 138.438 367.22 141.658C367.22 144.878 364.61 147.488 361.39 147.488L361.176 147.488C357.956 147.488 355.346 144.878 355.346 141.658Z"/>
<path class="light-fill" fill-rule="evenodd" clip-rule="evenodd" d="M259.233 109.778C259.233 106.558 261.843 103.948 265.062 103.948H315C318.22 103.948 320.83 106.558 320.83 109.778C320.83 112.997 318.22 115.607 315 115.607H265.062C261.843 115.607 259.233 112.997 259.233 109.778Z"/>
<path class="dark-fill" fill-rule="evenodd" clip-rule="evenodd" d="M309.718 109.777C309.718 106.557 312.328 103.947 315.547 103.947L338.743 103.947C341.963 103.947 344.573 106.557 344.573 109.777C344.573 112.997 341.963 115.607 338.743 115.607L315.547 115.607C312.328 115.607 309.718 112.997 309.718 109.777Z"/>
<path class="light-fill" fill-rule="evenodd" clip-rule="evenodd" d="M266.146 131.719C269.89 131.784 271.932 134.968 271.859 138.383C271.849 138.855 271.833 139.542 271.81 140.414C271.764 142.157 271.69 144.638 271.576 147.6C271.35 153.516 270.964 161.392 270.33 169.16C269.767 176.07 269.165 183.739 268.705 189.684C268.475 192.656 268.28 195.195 268.143 196.992C268.074 197.89 268.02 198.602 267.983 199.09L267.926 199.839C267.682 203.05 264.883 205.456 261.672 205.213C258.462 204.97 256.056 202.17 256.299 198.959L256.356 198.206C256.394 197.717 256.448 197.003 256.517 196.103C256.654 194.303 256.85 191.76 257.08 188.784C257.541 182.832 258.144 175.145 258.709 168.212C259.325 160.673 259.702 152.98 259.925 147.154C260.037 144.245 260.109 141.811 260.154 140.107C260.177 139.255 260.192 138.586 260.202 138.132C260.207 137.905 260.21 137.732 260.212 137.616L260.216 137.446C260.272 134.227 262.927 131.663 266.146 131.719Z"/>
</svg>
