<svg width="24" height="24" viewBox="0 0 24 24" fill="none" xmlns="http://www.w3.org/2000/svg">
<path d="M20.281 8.15962C20.1549 8.25412 17.9301 9.46595 17.9301 12.1605C17.9301 15.2772 20.7611 16.3798 20.8459 16.4071C20.8328 16.4743 20.3961 17.9172 19.3532 19.3873C18.4233 20.6811 17.4521 21.9727 15.9746 21.9727C14.4972 21.9727 14.1169 21.1431 12.4113 21.1431C10.7492 21.1431 10.1582 22 8.8068 22C7.45536 22 6.5124 20.8029 5.42821 19.3327C4.17238 17.6064 3.15771 14.9244 3.15771 12.3789C3.15771 8.29613 5.90404 6.13081 8.60691 6.13081C10.0431 6.13081 11.2403 7.0423 12.1419 7.0423C13.0002 7.0423 14.3386 6.07621 15.9724 6.07621C16.5917 6.07621 18.8165 6.13081 20.281 8.15962ZM15.1968 4.34773C15.8725 3.57276 16.3505 2.49745 16.3505 1.42214C16.3505 1.27303 16.3375 1.12181 16.3092 1C15.2098 1.0399 13.9018 1.70777 13.1131 2.59196C12.4939 3.27243 11.916 4.34773 11.916 5.43774C11.916 5.60156 11.9442 5.76538 11.9572 5.81788C12.0268 5.83048 12.1398 5.84518 12.2527 5.84518C13.2392 5.84518 14.4798 5.20672 15.1968 4.34773Z" fill="black"/>
</svg>
